SplineFontDB: 3.0
FontName: Experiment-Thaana
FullName: Experiment-Thaana
FamilyName: Experiment-Thaana
Weight: Book
Copyright: Copyright 2014 Google Inc. All Rights Reserved.
Version: 1.01 uh
ItalicAngle: -4
UnderlinePosition: -190
UnderlineWidth: 48
Ascent: 800
Descent: 200
InvalidEm: 0
sfntRevision: 0x00000042
LayerCount: 3
Layer: 0 0 "Back" 1
Layer: 1 0 "Fore" 0
Layer: 2 0 "Back 2" 1
XUID: [1021 779 -1439063335 8095165]
FSType: 0
OS2Version: 4
OS2_WeightWidthSlopeOnly: 0
OS2_UseTypoMetrics: 0
CreationTime: 975487894
ModificationTime: 1463329671
PfmFamily: 17
TTFWeight: 400
TTFWidth: 5
LineGap: 0
VLineGap: 0
Panose: 2 11 5 2 4 5 4 2 2 4
OS2TypoAscent: 1069
OS2TypoAOffset: 0
OS2TypoDescent: -293
OS2TypoDOffset: 0
OS2TypoLinegap: 0
OS2WinAscent: 1074
OS2WinAOffset: 0
OS2WinDescent: 293
OS2WinDOffset: 0
HheadAscent: 1069
HheadAOffset: 0
HheadDescent: -293
HheadDOffset: 0
OS2SubXSize: 700
OS2SubYSize: 650
OS2SubXOff: 0
OS2SubYOff: 0
OS2SupXSize: 700
OS2SupYSize: 650
OS2SupXOff: 0
OS2SupYOff: 0
OS2StrikeYSize: 49
OS2StrikeYPos: 244
OS2CapHeight: 1462
OS2XHeight: 1098
OS2FamilyClass: 2566
OS2Vendor: 'GOOG'
OS2CodePages: 00000001.00000000
OS2UnicodeRanges: 00000000.00000000.00000100.00000000
Lookup: 5 1 0 "'calt' Contextual Alternates lookup 1" { "'calt' Contextual Alternates lookup 1-1"  } ['calt' ('DFLT' <'dflt' > 'arab' <'dflt' > 'latn' <'dflt' > 'thaa' <'dflt' > ) ]
Lookup: 1 1 0 "ccmp" { "ccmp-1"  } ['ccmp' ('thaa' <'dflt' > ) ]
Lookup: 260 1 0 "'mark' Mark Positioning in Thaana lookup 2" { "'mark' Mark Positioning in Thaana lookup 2-1"  } ['mark' ('thaa' <'dflt' > ) ]
MarkAttachClasses: 1
DEI: 91125
ContextSub2: glyph "'calt' Contextual Alternates lookup 1-1" 0 0 0 1
 String: 40 sub thn_TT uni07A8nsp by thn_Ibifili.alt
 BString: 0 
 FString: 0 
 0
EndFPST
ShortTable: maxp 16
  1
  0
  95
  720
  16
  85
  5
  1
  0
  0
  0
  0
  0
  0
  2
  1
EndShort

StartChar: .notdef
Encoding: 256 -1 0
Width: 630
VWidth: 1064
GlyphClass: 2
Flags: HW
LayerCount: 3
Back
SplineSet
94.23828125 713.8671875 m 1
 504.8828125 713.8671875 l 1
 504.8828125 0 l 1
 94.23828125 0 l 1
 94.23828125 713.8671875 l 1
145.01953125 50.78125 m 1
 454.1015625 50.78125 l 1
 454.1015625 663.0859375 l 1
 145.01953125 663.0859375 l 1
 145.01953125 50.78125 l 1
EndSplineSet
Fore
SplineSet
73.4501953125 749.700195312 m 1
 525.549804688 749.700195312 l 1
 525.549804688 -35.7001953125 l 1
 73.4501953125 -35.7001953125 l 1
 73.4501953125 749.700195312 l 1
129.549804688 20.400390625 m 1
 469.450195312 20.400390625 l 1
 469.450195312 693.599609375 l 1
 129.549804688 693.599609375 l 1
 129.549804688 20.400390625 l 1
EndSplineSet
EndChar

StartChar: parenleft
Encoding: 260 40 4
Width: 371
VWidth: 153
GlyphClass: 2
Flags: HW
LayerCount: 3
Back
SplineSet
177.24609375 -178.466796875 m 128
 149.90234375 -147.379882812 128.173828125 -107.829101562 112.060546875 -59.814453125 c 128
 95.947265625 -11.7998046875 87.890625 37.7607421875 87.890625 88.8671875 c 0
 87.890625 194.3359375 111.002929688 296.223632812 157.2265625 394.53125 c 128
 203.450195312 492.838867188 263.752929688 570.80078125 338.134765625 628.41796875 c 128
 412.516601562 686.03515625 474.934570312 714.84375 525.390625 714.84375 c 0
 535.807617188 714.84375 544.108398438 712.077148438 550.29296875 706.54296875 c 128
 556.477539062 701.008789062 559.5703125 694.172851562 559.5703125 686.03515625 c 0
 559.5703125 680.827148438 557.942382812 674.31640625 554.6875 666.50390625 c 128
 551.432617188 658.69140625 530.598632812 647.379882812 492.1875 632.568359375 c 128
 453.776367188 617.756835938 409.66796875 586.42578125 359.86328125 538.57421875 c 128
 310.05859375 490.72265625 268.5546875 426.513671875 235.3515625 345.947265625 c 128
 202.1484375 265.380859375 185.546875 179.6875 185.546875 88.8671875 c 0
 185.546875 43.9453125 193.278320312 2.3603515625 208.740234375 -35.888671875 c 128
 224.202148438 -74.1376953125 242.756835938 -104.084960938 264.404296875 -125.732421875 c 128
 286.051757812 -147.379882812 296.875 -166.178710938 296.875 -182.12890625 c 0
 296.875 -193.522460938 292.073242188 -203.532226562 282.470703125 -212.158203125 c 128
 272.868164062 -220.784179688 261.23046875 -225.09765625 247.55859375 -225.09765625 c 0
 228.02734375 -225.09765625 204.58984375 -209.553710938 177.24609375 -178.466796875 c 128
EndSplineSet
Fore
SplineSet
81 235 m 0
 63 462 145 696 265 883 c 1
 336 849 l 1
 255 717 199 483 201 322 c 0
 202 191 215 18 319 -110 c 1
 257 -164 l 1
 199 -118 96 41 81 235 c 0
EndSplineSet
EndChar

StartChar: parenright
Encoding: 261 41 5
Width: 371
VWidth: 153
GlyphClass: 2
Flags: HW
LayerCount: 3
Back
SplineSet
324.70703125 667.236328125 m 128
 352.375976562 635.498046875 374.0234375 595.21484375 389.6484375 546.38671875 c 128
 405.2734375 497.55859375 413.0859375 449.055664062 413.0859375 400.87890625 c 0
 413.0859375 295.41015625 389.973632812 193.522460938 343.75 95.21484375 c 128
 297.526367188 -3.0927734375 237.223632812 -81.0546875 162.841796875 -138.671875 c 128
 88.4599609375 -196.2890625 26.0419921875 -225.09765625 -24.4140625 -225.09765625 c 0
 -34.8310546875 -225.09765625 -43.1318359375 -222.331054688 -49.31640625 -216.796875 c 128
 -55.5009765625 -211.262695312 -58.59375 -204.426757812 -58.59375 -196.2890625 c 2
 -58.10546875 -186.03515625 l 2
 -57.7802734375 -182.454101562 -54.2802734375 -177.327148438 -47.607421875 -170.654296875 c 128
 -40.9345703125 -163.981445312 -25.2275390625 -156.168945312 -0.48828125 -147.216796875 c 128
 24.2509765625 -138.264648438 56.0712890625 -119.221679688 94.970703125 -90.087890625 c 128
 133.870117188 -60.9541015625 170.491210938 -21.4033203125 204.833984375 28.564453125 c 128
 239.176757812 78.5322265625 266.194335938 135.823242188 285.888671875 200.439453125 c 128
 305.583007812 265.055664062 315.4296875 331.868164062 315.4296875 400.87890625 c 0
 315.4296875 445.80078125 307.698242188 487.385742188 292.236328125 525.634765625 c 128
 276.774414062 563.883789062 258.219726562 593.831054688 236.572265625 615.478515625 c 128
 214.924804688 637.125976562 204.1015625 655.924804688 204.1015625 671.875 c 0
 204.1015625 683.268554688 208.903320312 693.278320312 218.505859375 701.904296875 c 128
 228.108398438 710.530273438 239.74609375 714.84375 253.41796875 714.84375 c 0
 273.274414062 714.84375 297.038085938 698.974609375 324.70703125 667.236328125 c 128
EndSplineSet
Fore
SplineSet
52 -95 m 5
 133 37 189.716796875 241.00390625 192 402 c 4
 194 543 163 696 69 814 c 5
 131 865 l 5
 184 817 292 683 307 489 c 4
 325 262 237 54 117 -133 c 5
 52 -95 l 5
EndSplineSet
EndChar

StartChar: comma
Encoding: 262 44 6
Width: 268
VWidth: 79
GlyphClass: 2
Flags: HW
LayerCount: 3
Back
SplineSet
225.341796875 117.1875 m 128
 237.223632812 104.4921875 243.1640625 87.5654296875 243.1640625 66.40625 c 0
 243.1640625 46.5498046875 233.967773438 20.751953125 215.576171875 -10.986328125 c 128
 197.184570312 -42.724609375 176.594726562 -70.2314453125 153.80859375 -93.505859375 c 128
 131.022460938 -116.780273438 112.79296875 -128.41796875 99.12109375 -128.41796875 c 0
 91.30859375 -128.41796875 85.2861328125 -126.139648438 81.0546875 -121.58203125 c 128
 76.8232421875 -117.024414062 74.70703125 -111.979492188 74.70703125 -106.4453125 c 0
 74.70703125 -99.609375 77.3115234375 -93.505859375 82.51953125 -88.134765625 c 128
 87.7275390625 -82.763671875 98.0634765625 -72.265625 113.525390625 -56.640625 c 128
 128.987304688 -41.015625 140.461914062 -23.92578125 147.94921875 -5.37109375 c 1
 131.34765625 -4.39453125 117.919921875 1.708984375 107.666015625 12.939453125 c 128
 97.412109375 24.169921875 92.28515625 37.59765625 92.28515625 53.22265625 c 0
 92.28515625 74.70703125 101.155273438 93.9130859375 118.896484375 110.83984375 c 128
 136.637695312 127.766601562 156.575195312 136.23046875 178.7109375 136.23046875 c 0
 197.916992188 136.23046875 213.459960938 129.8828125 225.341796875 117.1875 c 128
EndSplineSet
Fore
SplineSet
93.1708984375 130.06640625 m 5
 94.84765625 31.1748046875 71.216796875 -90.5927734375 46.705078125 -156.932617188 c 4
 111.69140625 -186.944335938 l 0
 157.313476562 -132.368164062 223.26171875 15.0419921875 224.772460938 120.734375 c 5
 191.956054688 130.088867188 131.510742188 134.654296875 93.1708984375 130.06640625 c 5
EndSplineSet
EndChar

StartChar: period
Encoding: 263 46 7
Width: 307
VWidth: 79
GlyphClass: 2
Flags: HW
LayerCount: 3
Back
SplineSet
95.703125 7.080078125 m 128
 84.6357421875 18.310546875 79.1015625 32.71484375 79.1015625 50.29296875 c 0
 79.1015625 72.75390625 88.0537109375 93.26171875 105.95703125 111.81640625 c 128
 123.860351562 130.37109375 144.53125 139.6484375 167.96875 139.6484375 c 0
 186.198242188 139.6484375 201.252929688 133.708007812 213.134765625 121.826171875 c 128
 225.016601562 109.944335938 230.95703125 95.21484375 230.95703125 77.63671875 c 0
 230.95703125 54.8505859375 221.760742188 34.5869140625 203.369140625 16.845703125 c 128
 184.977539062 -0.8955078125 164.0625 -9.765625 140.625 -9.765625 c 0
 121.745117188 -9.765625 106.770507812 -4.150390625 95.703125 7.080078125 c 128
EndSplineSet
Fore
SplineSet
83.4150390625 53.685546875 m 4
 83.4150390625 92.9013671875 113.142578125 121.073242188 151.440429688 121.073242188 c 4
 185.818359375 121.073242188 215.671875 96.52734375 215.671875 57.39453125 c 4
 215.671875 16.7265625 186.509765625 -10.3876953125 147.280273438 -10.3876953125 c 4
 108.5859375 -10.3876953125 83.4150390625 13.0166015625 83.4150390625 53.685546875 c 4
EndSplineSet
EndChar

StartChar: afii57388
Encoding: 264 1548 8
Width: 0
VWidth: 1100
GlyphClass: 2
Flags: HW
LayerCount: 3
Back
SplineSet
108.642578125 9.27734375 m 128
 96.7607421875 21.97265625 90.8203125 38.8994140625 90.8203125 60.05859375 c 0
 90.8203125 79.9150390625 100.016601562 105.712890625 118.408203125 137.451171875 c 128
 136.799804688 169.189453125 157.389648438 196.696289062 180.17578125 219.970703125 c 128
 202.961914062 243.245117188 221.19140625 254.8828125 234.86328125 254.8828125 c 0
 242.67578125 254.8828125 248.698242188 252.604492188 252.9296875 248.046875 c 128
 257.161132812 243.489257812 259.27734375 238.444335938 259.27734375 232.91015625 c 0
 259.27734375 226.07421875 256.672851562 219.970703125 251.46484375 214.599609375 c 128
 246.256835938 209.228515625 235.920898438 198.73046875 220.458984375 183.10546875 c 128
 204.997070312 167.48046875 193.522460938 150.390625 186.03515625 131.8359375 c 1
 202.63671875 130.859375 216.064453125 124.755859375 226.318359375 113.525390625 c 128
 236.572265625 102.294921875 241.69921875 88.8671875 241.69921875 73.2421875 c 0
 241.69921875 51.7578125 232.829101562 32.5517578125 215.087890625 15.625 c 128
 197.346679688 -1.3017578125 177.409179688 -9.765625 155.2734375 -9.765625 c 0
 136.067382812 -9.765625 120.524414062 -3.41796875 108.642578125 9.27734375 c 128
EndSplineSet
EndChar

StartChar: afii57403
Encoding: 265 1563 9
Width: 0
VWidth: 1100
GlyphClass: 2
Flags: HW
LayerCount: 3
Back
SplineSet
95.703125 7.080078125 m 128
 84.6357421875 18.310546875 79.1015625 32.71484375 79.1015625 50.29296875 c 0
 79.1015625 72.75390625 88.0537109375 93.26171875 105.95703125 111.81640625 c 128
 123.860351562 130.37109375 144.53125 139.6484375 167.96875 139.6484375 c 0
 186.198242188 139.6484375 201.252929688 133.708007812 213.134765625 121.826171875 c 128
 225.016601562 109.944335938 230.95703125 95.21484375 230.95703125 77.63671875 c 0
 230.95703125 54.8505859375 221.760742188 34.5869140625 203.369140625 16.845703125 c 128
 184.977539062 -0.8955078125 164.0625 -9.765625 140.625 -9.765625 c 0
 121.745117188 -9.765625 106.770507812 -4.150390625 95.703125 7.080078125 c 128
125.732421875 260.25390625 m 128
 113.850585938 272.94921875 107.91015625 289.875976562 107.91015625 311.03515625 c 0
 107.91015625 330.891601562 117.106445312 356.689453125 135.498046875 388.427734375 c 128
 153.889648438 420.166015625 174.479492188 447.672851562 197.265625 470.947265625 c 128
 220.051757812 494.221679688 238.28125 505.859375 251.953125 505.859375 c 0
 259.765625 505.859375 265.788085938 503.581054688 270.01953125 499.0234375 c 128
 274.250976562 494.465820312 276.3671875 489.420898438 276.3671875 483.88671875 c 0
 276.3671875 477.05078125 273.762695312 470.947265625 268.5546875 465.576171875 c 128
 263.346679688 460.205078125 253.010742188 449.70703125 237.548828125 434.08203125 c 128
 222.086914062 418.45703125 210.612304688 401.3671875 203.125 382.8125 c 1
 219.7265625 381.8359375 233.154296875 375.732421875 243.408203125 364.501953125 c 128
 253.662109375 353.271484375 258.7890625 339.84375 258.7890625 324.21875 c 0
 258.7890625 302.734375 249.918945312 283.528320312 232.177734375 266.6015625 c 128
 214.436523438 249.674804688 194.499023438 241.2109375 172.36328125 241.2109375 c 0
 153.157226562 241.2109375 137.614257812 247.55859375 125.732421875 260.25390625 c 128
173.33984375 390.625 m 1024
EndSplineSet
EndChar

StartChar: afii57407
Encoding: 266 1567 10
Width: 0
VWidth: 1100
GlyphClass: 2
Flags: HW
LayerCount: 3
Back
SplineSet
493.65234375 597.412109375 m 128
 481.282226562 585.205078125 470.377929688 579.1015625 460.9375 579.1015625 c 0
 449.543945312 579.1015625 430.989257812 587.890625 405.2734375 605.46875 c 128
 379.557617188 623.046875 356.282226562 631.8359375 335.44921875 631.8359375 c 0
 299.641601562 631.8359375 269.775390625 622.0703125 245.849609375 602.5390625 c 128
 221.923828125 583.0078125 209.9609375 557.6171875 209.9609375 526.3671875 c 0
 209.9609375 499.0234375 224.284179688 465.739257812 252.9296875 426.513671875 c 128
 281.575195312 387.288085938 295.8984375 351.399414062 295.8984375 318.84765625 c 0
 295.8984375 287.922851562 288.330078125 262.288085938 273.193359375 241.943359375 c 128
 258.056640625 221.598632812 239.909179688 211.42578125 218.75 211.42578125 c 2
 205.078125 211.9140625 l 2
 196.940429688 211.9140625 189.778320312 213.37890625 183.59375 216.30859375 c 128
 177.409179688 219.23828125 174.31640625 223.795898438 174.31640625 229.98046875 c 0
 174.31640625 241.047851562 178.955078125 255.696289062 188.232421875 273.92578125 c 128
 197.509765625 292.155273438 202.1484375 309.08203125 202.1484375 324.70703125 c 0
 202.1484375 344.889648438 189.860351562 372.883789062 165.283203125 408.69140625 c 128
 140.706054688 444.499023438 128.41796875 483.235351562 128.41796875 524.90234375 c 0
 128.41796875 575.032226562 149.495117188 619.059570312 191.650390625 656.982421875 c 128
 233.805664062 694.905273438 286.1328125 713.8671875 348.6328125 713.8671875 c 0
 393.5546875 713.8671875 429.606445312 707.194335938 456.787109375 693.84765625 c 128
 483.967773438 680.500976562 500 669.921875 504.8828125 662.109375 c 128
 509.765625 654.296875 512.20703125 645.344726562 512.20703125 635.25390625 c 0
 512.20703125 622.233398438 506.022460938 609.619140625 493.65234375 597.412109375 c 128
125.48828125 111.81640625 m 128
 143.391601562 130.37109375 164.0625 139.6484375 187.5 139.6484375 c 0
 205.729492188 139.6484375 220.784179688 133.708007812 232.666015625 121.826171875 c 128
 244.547851562 109.944335938 250.48828125 95.21484375 250.48828125 77.63671875 c 0
 250.48828125 54.8505859375 241.291992188 34.5869140625 222.900390625 16.845703125 c 128
 204.508789062 -0.8955078125 183.59375 -9.765625 160.15625 -9.765625 c 0
 141.276367188 -9.765625 126.301757812 -4.150390625 115.234375 7.080078125 c 128
 104.166992188 18.310546875 98.6328125 32.71484375 98.6328125 50.29296875 c 0
 98.6328125 72.75390625 107.584960938 93.26171875 125.48828125 111.81640625 c 128
EndSplineSet
EndChar

StartChar: thn_H
Encoding: 267 1920 11
Width: 529
VWidth: -32
GlyphClass: 2
Flags: HW
AnchorPoint: "bottom_fili" 199.15 0.138672 basechar 0
AnchorPoint: "top_fili" 204.15 602.439 basechar 0
LayerCount: 3
Back
SplineSet
3.60546875 185.546875 m 1
 -88.6796875 178.7109375 l 0
 -96.98046875 166.403320312 -101.375 153.236328125 -85.26171875 137.20703125 c 1
 -44.24609375 125.48828125 l 0
 -44.24609375 125.48828125 -23.0869140625 144.04296875 -6.16015625 144.04296875 c 0
 136.001953125 144.04296875 449.461914062 386.009765625 517.27734375 468.75 c 1
 517.27734375 468.75 519.71875 501.953125 468.44921875 512.6953125 c 5
 437.6875 507.8125 l 5
 389.610351562 448.193359375 142.116210938 196.2890625 3.60546875 185.546875 c 1
EndSplineSet
Fore
SplineSet
13.0498046875 281.939453125 m 1
 -1.853515625 258.806640625 -2.7060546875 233.732421875 -1 218.0390625 c 1
 7.513671875 205.142578125 32.943359375 185.759765625 94.349609375 185.838867188 c 0
 235.951171875 186.020507812 495.590820312 386.733398438 550.650390625 446.838867188 c 1
 551.771484375 454.385742188 540.5703125 495.909179688 532.849609375 513.239257812 c 1
 510.150390625 516.239257812 l 1
 410.71875 413.1484375 205.176757812 257.796875 100 258.0390625 c 0
 64.06640625 258.122070312 32.318359375 271.607421875 13.0498046875 281.939453125 c 1
EndSplineSet
Colour: ff00
EndChar

StartChar: thn_SH
Encoding: 268 1921 12
Width: 708
VWidth: -32
GlyphClass: 2
Flags: HW
AnchorPoint: "top_fili" 201.15 602.439 basechar 0
AnchorPoint: "bottom_fili" 196.15 0.138672 basechar 0
LayerCount: 3
Back
SplineSet
393.83203125 336.669921875 m 128
 408.48046875 326.416015625 420.362304688 313.4765625 429.4765625 297.8515625 c 1
 454.8671875 297.8515625 480.013671875 303.874023438 504.916015625 315.91796875 c 128
 529.818359375 327.961914062 552.198242188 343.424804688 572.0546875 362.3046875 c 128
 591.911132812 381.184570312 607.69921875 390.625 619.41796875 390.625 c 0
 630.16015625 390.625 638.705078125 387.370117188 645.052734375 380.859375 c 128
 651.400390625 374.348632812 654.57421875 366.862304688 654.57421875 358.3984375 c 0
 654.57421875 322.265625 624.708007812 286.051757812 564.974609375 249.755859375 c 128
 505.241210938 213.459960938 435.661132812 195.3125 356.234375 195.3125 c 0
 350.700195312 195.3125 346.631835938 195.475585938 344.02734375 195.80078125 c 1
 298.12890625 139.16015625 251.823242188 89.7626953125 205.111328125 47.607421875 c 128
 158.399414062 5.4521484375 115.104492188 -26.0419921875 75.228515625 -46.875 c 128
 35.3525390625 -67.7080078125 6.9501953125 -78.125 -9.9765625 -78.125 c 0
 -28.8564453125 -78.125 -43.1796875 -73.0791015625 -52.9453125 -62.98828125 c 128
 -62.7109375 -52.8974609375 -67.59375 -39.0625 -67.59375 -21.484375 c 0
 -67.59375 4.8828125 -53.189453125 22.7861328125 -24.380859375 32.2265625 c 128
 4.427734375 41.6669921875 28.6787109375 50.537109375 48.373046875 58.837890625 c 128
 68.0673828125 67.138671875 92.8876953125 82.1123046875 122.8359375 103.759765625 c 128
 152.784179688 125.407226562 179.557617188 147.297851562 203.158203125 169.43359375 c 128
 226.758789062 191.569335938 247.184570312 212.239257812 264.4375 231.4453125 c 1
 252.71875 244.140625 246.859375 258.30078125 246.859375 273.92578125 c 0
 246.859375 296.711914062 255.485351562 315.4296875 272.73828125 330.078125 c 128
 289.991210938 344.7265625 313.265625 352.05078125 342.5625 352.05078125 c 0
 362.09375 352.05078125 379.18359375 346.923828125 393.83203125 336.669921875 c 128
EndSplineSet
Fore
SplineSet
737.650390625 446.838867188 m 5
 738.771484375 454.385742188 727.5703125 495.909179688 719.849609375 513.239257812 c 5
 697.150390625 516.239257812 l 5
 654.259765625 451.390625 586 390.85546875 488.086914062 403.900390625 c 5
 489.38671875 388.201171875 l 5
 505.083984375 423 509.44140625 463 500 486 c 5
 452.211914062 494.161132812 400.162109375 480.255859375 399.086914062 439.400390625 c 4
 398.0625 400.484375 429.606521649 335.785828936 530.38671875 333.201171875 c 4
 626.837890625 330.727539062 720.108398438 396.102539062 737.650390625 446.838867188 c 5
30.0498046875 281.939453125 m 5
 15.146484375 258.806640625 14.2939453125 233.732421875 16 218.0390625 c 5
 24.513671875 205.142578125 49.943359375 185.759765625 111.349609375 185.838867188 c 4
 252.951171875 186.020507812 432.590820312 326.733398438 487.650390625 386.838867188 c 5
 488.771484375 394.385742188 467.5703125 425.909179688 459.849609375 443.239257812 c 5
 437.150390625 436.239257812 l 5
 407.71875 363.1484375 222.176757812 257.796875 117 258.0390625 c 4
 81.06640625 258.122070312 49.318359375 271.607421875 30.0498046875 281.939453125 c 5
EndSplineSet
Colour: ff00
EndChar

StartChar: thn_N
Encoding: 269 1922 13
Width: 806
VWidth: -31
GlyphClass: 2
Flags: HW
AnchorPoint: "bottom_fili" 420.887 -0.298828 basechar 0
AnchorPoint: "top_fili" 464.687 602.301 basechar 0
LayerCount: 3
Fore
SplineSet
647.650390625 446.838867188 m 1
 649.023404498 452.11260044 635.30522582 481.129052029 625.849609375 493.239257812 c 1
 607.150390625 496.239257812 l 1
 578.62068509 442.935806901 553.216100448 393.17789236 468.086914062 403.900390625 c 1
 469.38671875 388.201171875 l 1
 485.083984375 423 489.44140625 463 480 486 c 1
 432.211914062 494.161132812 380.162381546 480.255852211 379.086914062 439.400390625 c 0
 378.078104198 400.484375 409.159412149 333.36572093 508.38671875 333.201171875 c 0
 593.240793727 333.06045801 635.863654329 396.102539062 647.650390625 446.838867188 c 1
30.0498046875 281.939453125 m 1
 15.146484375 258.806640625 14.2939453125 233.732421875 16 218.0390625 c 1
 24.513671875 205.142578125 49.943358948 185.76009779 111.349609375 185.838867188 c 0
 245.425194276 186.020507812 415.517179919 326.733398438 467.650390625 386.838867188 c 1
 468.771484375 394.385742188 447.5703125 425.909179688 439.849609375 443.239257812 c 1
 417.150390625 436.239257812 l 1
 389.557363445 363.1484375 215.606296698 257.796100649 117 258.0390625 c 0
 81.06640625 258.122070312 49.318359375 271.607421875 30.0498046875 281.939453125 c 1
562 416 m 0
 564.130859375 378.193359375 578.166000442 301.592061847 676.186523438 299.500976562 c 0
 755.9296875 297.799804688 828.54296875 368.607421875 836.987304688 445.500976562 c 1
 835.50390625 461.974609375 817.301757812 496.904296875 792 513 c 1
 778.086914062 504.500976562 l 1
 768.774414062 453.688476562 725.739257812 367.900390625 681.38671875 367.900390625 c 0
 642.751044365 367.900390625 642.112680616 413.174057332 648 448 c 1
 640.076684984 453.937423622 615.810472059 461.358593014 601 461.372070312 c 0
 597.129882812 461.380859375 593.087890625 461.177734375 589.586914062 460.900390625 c 1
 600.290574696 442.986987317 560.810746237 437.100261313 562 416 c 0
EndSplineSet
Colour: ff00
EndChar

StartChar: thn_B
Encoding: 271 1924 15
Width: 531
VWidth: -30
GlyphClass: 2
Flags: HWO
AnchorPoint: "top_fili" 262.4 582.45 basechar 0
AnchorPoint: "bottom_fili" 252.4 -20.1504 basechar 0
LayerCount: 3
Fore
SplineSet
89 292.91015625 m 0
 100.920543324 303.604651331 113.261541193 314.191659433 126 324.66015625 c 1
 195.577789592 436.914861251 315.520764481 519.849609375 412.900390625 519.849609375 c 0
 478.431640625 519.849609375 517.900390625 484.477539062 517.900390625 429.650390625 c 0
 517.900390625 313.68359375 384.44921875 214.450195312 221.200195312 226.349609375 c 0
 117.419921875 233.569335938 40.6328125 298.305664062 42.1005859375 377.25 c 0
 43.5859375 460.002929688 110.283203125 506.450195312 180.700195312 506.450195312 c 0
 277.5 506.450195312 332.5 447.150390625 332.5 447.150390625 c 1
 277.5 411.950195312 l 0
 277.5 411.950195312 248.799804688 450.0546875 181.600585938 449.25 c 0
 146.00390625 448.823242188 108.673828125 425.903320312 108.30078125 384.150390625 c 0
 107.735351562 320.844726562 180.873046875 295.4453125 226.900390625 291.549804688 c 0
 334.0703125 282.478515625 451.100585938 338.916992188 451.100585938 418.650390625 c 0
 451.100585938 436.96875 436.038085938 450.75 403.600585938 450.75 c 0
 320.672851562 450.75 223.553710938 377.979492188 171.953125 290 c 1
 162.5703125 280.333984375 153.892578125 270.526367188 146 260.622070312 c 1
 89 292.91015625 l 0
EndSplineSet
Colour: ff00
EndChar

StartChar: thn_L
Encoding: 272 1925 16
Width: 491
VWidth: -23
GlyphClass: 2
Flags: HW
AnchorPoint: "bottom_fili" 329.15 -0.0996 basechar 0
AnchorPoint: "top_fili" 331.15 602.2 basechar 0
LayerCount: 3
Fore
SplineSet
3.0498046875 281.939453125 m 5
 -11.853515625 258.806640625 -12.7060546875 233.732421875 -11 218.0390625 c 5
 -2.486328125 205.142578125 22.9433412202 185.775405267 84.349609375 185.838867188 c 4
 239.904601263 185.99962958 456.889659281 343.642073006 519.650390625 416.838867188 c 5
 522.488986394 437.56046119 498.833244904 481.66802598 480.150390625 490.239257812 c 5
 396.107616376 377.178810419 241.363357414 257.833019091 90 258.0390625 c 4
 50.0663538637 258.093422186 22.318359375 271.607421875 3.0498046875 281.939453125 c 5
280 528.578125 m 5
 280 528.578125 227.376470614 492.205479647 227 435.578125 c 4
 226.577253219 371.990075883 284.901839961 337.457354256 353 352.359375 c 4
 395 382.578125 l 4
 412.151025979 399.39070012 448 443.578125 448 443.578125 c 5
 476 484.578125 l 5
 476 484.578125 416.714554512 406.989919334 353 407.578125 c 4
 328.663856908 407.837357955 311.544611778 419.487235808 311 437.578125 c 4
 310.422738722 456.753563798 324.500550313 471.587873274 335 482.578125 c 5
 329.261979045 499.43686996 308.173089105 521.157321069 296 528.578125 c 5
 280 528.578125 l 5
EndSplineSet
Colour: ff00
EndChar

StartChar: hn_K
Encoding: 273 1926 17
Width: 529
VWidth: -32
GlyphClass: 2
Flags: HW
AnchorPoint: "bottom_fili" 199.15 0.138672 basechar 0
AnchorPoint: "top_fili" 204.15 602.439 basechar 0
LayerCount: 3
Back
SplineSet
182.12890625 113.76953125 m 1
 226.399414062 128.092773438 272.135742188 157.470703125 319.3359375 201.904296875 c 128
 366.536132812 246.337890625 400.309570312 284.016601562 420.654296875 314.94140625 c 128
 440.999023438 345.866210938 462.239257812 361.328125 484.375 361.328125 c 0
 497.0703125 361.328125 506.266601562 357.421875 511.962890625 349.609375 c 128
 517.659179688 341.796875 520.5078125 331.706054688 520.5078125 319.3359375 c 0
 520.5078125 283.528320312 482.177734375 232.340820312 405.517578125 165.771484375 c 128
 328.857421875 99.2021484375 262.939453125 53.3037109375 207.763671875 28.076171875 c 128
 152.587890625 2.8486328125 109.211914062 -9.765625 77.63671875 -9.765625 c 0
 63.96484375 -9.765625 52.490234375 -6.0224609375 43.212890625 1.46484375 c 128
 33.935546875 8.9521484375 29.296875 17.578125 29.296875 27.34375 c 0
 29.296875 41.015625 34.5869140625 54.931640625 45.166015625 69.091796875 c 128
 55.7451171875 83.251953125 71.6142578125 107.666015625 92.7734375 142.333984375 c 128
 113.932617188 177.001953125 127.197265625 211.588867188 132.568359375 246.09375 c 128
 137.939453125 280.598632812 146.077148438 302.653320312 156.982421875 312.255859375 c 128
 167.887695312 321.858398438 180.989257812 326.66015625 196.2890625 326.66015625 c 0
 213.8671875 326.66015625 226.725585938 322.021484375 234.86328125 312.744140625 c 128
 243.000976562 303.466796875 247.0703125 288.411132812 247.0703125 267.578125 c 0
 247.0703125 248.372070312 238.525390625 222.086914062 221.435546875 188.720703125 c 128
 204.345703125 155.354492188 190.4296875 133.30078125 179.6875 122.55859375 c 1
 182.12890625 113.76953125 l 1
EndSplineSet
Fore
SplineSet
13.0498046875 281.939453125 m 1
 -1.853515625 258.806640625 -2.7060546875 233.732421875 -1 218.0390625 c 1
 7.513671875 205.142578125 32.943359375 185.759765625 94.349609375 185.838867188 c 0
 235.951171875 186.020507812 495.590820312 386.733398438 550.650390625 446.838867188 c 1
 551.771484375 454.385742188 540.5703125 495.909179688 532.849609375 513.239257812 c 1
 510.150390625 516.239257812 l 1
 410.71875 413.1484375 205.176757812 257.796875 100 258.0390625 c 0
 64.06640625 258.122070312 32.318359375 271.607421875 13.0498046875 281.939453125 c 1
EndSplineSet
Colour: ff0000
EndChar

StartChar: thn_Alifu
Encoding: 274 1927 18
Width: 529
VWidth: -32
GlyphClass: 2
Flags: HW
AnchorPoint: "bottom_fili" 199.15 0.138672 basechar 0
AnchorPoint: "top_fili" 204.15 602.439 basechar 0
LayerCount: 3
Back
SplineSet
384.27734375 256.8359375 m 1
 326.334960938 188.151367188 256.916992188 126.545898438 176.025390625 72.021484375 c 128
 95.1337890625 17.4970703125 37.4345703125 -9.765625 2.9296875 -9.765625 c 0
 -17.578125 -9.765625 -32.958984375 -5.2900390625 -43.212890625 3.662109375 c 128
 -53.466796875 12.6142578125 -58.59375 25.390625 -58.59375 41.9921875 c 0
 -58.59375 70.3125 -43.2939453125 88.7861328125 -12.6953125 97.412109375 c 128
 17.9033203125 106.038085938 51.26953125 118.571289062 87.40234375 135.009765625 c 128
 123.53515625 151.448242188 158.447265625 171.305664062 192.138671875 194.580078125 c 128
 225.830078125 217.854492188 262.939453125 251.46484375 303.466796875 295.41015625 c 128
 343.994140625 339.35546875 379.069335938 361.328125 408.69140625 361.328125 c 0
 430.500976562 361.328125 446.858398438 353.678710938 457.763671875 338.37890625 c 128
 468.668945312 323.079101562 474.12109375 298.828125 474.12109375 265.625 c 0
 474.12109375 228.840820312 467.7734375 192.952148438 455.078125 157.958984375 c 128
 442.3828125 122.965820312 423.909179688 87.7275390625 399.658203125 52.24609375 c 128
 375.407226562 16.7646484375 351.887695312 -0.9765625 329.1015625 -0.9765625 c 0
 315.104492188 -0.9765625 303.955078125 2.5224609375 295.654296875 9.521484375 c 128
 287.353515625 16.5205078125 283.203125 25.87890625 283.203125 37.59765625 c 0
 283.203125 49.9677734375 286.784179688 60.9541015625 293.9453125 70.556640625 c 128
 301.106445312 80.1591796875 314.290039062 99.4462890625 333.49609375 128.41796875 c 128
 352.702148438 157.389648438 365.559570312 180.989257812 372.0703125 199.21875 c 128
 378.581054688 217.448242188 382.649414062 236.653320312 384.27734375 256.8359375 c 1
EndSplineSet
Fore
SplineSet
13.0498046875 281.939453125 m 1
 -1.853515625 258.806640625 -2.7060546875 233.732421875 -1 218.0390625 c 1
 7.513671875 205.142578125 32.943359375 185.759765625 94.349609375 185.838867188 c 0
 235.951171875 186.020507812 495.590820312 386.733398438 550.650390625 446.838867188 c 1
 551.771484375 454.385742188 540.5703125 495.909179688 532.849609375 513.239257812 c 1
 510.150390625 516.239257812 l 1
 410.71875 413.1484375 205.176757812 257.796875 100 258.0390625 c 0
 64.06640625 258.122070312 32.318359375 271.607421875 13.0498046875 281.939453125 c 1
EndSplineSet
Colour: ff0000
EndChar

StartChar: thn_V
Encoding: 275 1928 19
Width: 491
VWidth: -23
GlyphClass: 2
Flags: HW
AnchorPoint: "bottom_fili" 235.15 -0.0996 basechar 0
AnchorPoint: "top_fili" 249.15 599.2 basechar 0
LayerCount: 3
Back
SplineSet
3.0498046875 281.939453125 m 1
 -11.853515625 258.806640625 -12.7060546875 233.732421875 -11 218.0390625 c 1
 -2.486328125 205.142578125 22.9433412202 185.775405267 84.349609375 185.838867188 c 0
 239.904601263 185.99962958 456.889659281 343.642073006 519.650390625 416.838867188 c 1
 522.488986394 437.56046119 498.833244904 481.66802598 480.150390625 490.239257812 c 5
 413.079486403 375.275183148 233.332493458 257.612153561 90 258.0390625 c 4
 50.0664939933 258.158002527 22.318359375 271.607421875 3.0498046875 281.939453125 c 1
280 528.578125 m 1
 280 528.578125 227.376470614 492.205479647 227 435.578125 c 0
 226.577253219 371.990075883 284.901839961 337.457354256 353 352.359375 c 0
 395 382.578125 l 0
 412.151025979 399.39070012 448 443.578125 448 443.578125 c 1
 476 484.578125 l 1
 476 484.578125 416.714554512 406.989919334 353 407.578125 c 0
 328.663856908 407.837357955 311.544611778 419.487235808 311 437.578125 c 0
 310.422738722 456.753563798 324.500550313 471.587873274 335 482.578125 c 1
 329.261979045 499.43686996 308.173089105 521.157321069 296 528.578125 c 1
 280 528.578125 l 1
EndSplineSet
Fore
SplineSet
424 443 m 0
 425.093239646 340.000947446 201.893206536 257.777666595 90 258.0390625 c 0
 50.0664258328 258.132352102 22.318359375 271.607421875 3.0498046875 281.939453125 c 1
 -11.853515625 258.806640625 -12.7060546875 233.732421875 -11 218.0390625 c 1
 -2.486328125 205.142578125 22.9433412202 185.775405267 84.349609375 185.838867188 c 0
 239.904601263 186.003941215 499.244224093 328.629707872 499.650390625 453.838867188 c 0
 499.859081007 514.278178853 457.166329814 553.339669009 375 554 c 0
 265.022294193 554.893712827 197.094257592 495.114257812 196 418.578125 c 0
 195.186997497 359.924804688 245.242671041 333.116210938 297 329.359375 c 0
 331.688476562 326.890625 369.764648438 334.692382812 395 349.578125 c 0
 437.51953125 374.659179688 461 384 461 384 c 1
 443.323749166 382.095313542 431.292968826 376.090834195 362 376.578125 c 0
 298.115862732 377.027379133 257.97279932 398.760080748 258 434.578125 c 0
 258.030730184 475.043845676 297.243164062 501 340 501 c 0
 390 501 423.622374101 478.57784421 424 443 c 0
EndSplineSet
Colour: ff00
EndChar

StartChar: thn_M
Encoding: 276 1929 20
Width: 582
VWidth: -31
GlyphClass: 2
Flags: HW
AnchorPoint: "top_fili" 319.15 602.4 basechar 0
AnchorPoint: "bottom_fili" 321.454 0.2998 basechar 0
LayerCount: 3
Fore
SplineSet
34.0498046875 207.900390625 m 1
 60.3211902096 193.504454823 106.771017547 179.659434163 148 180 c 0
 298.316209274 180.974130449 473.378874748 288.334956802 474.432617188 387.450195312 c 0
 474.77734375 422.502347463 425.26953125 441 359.454101562 441 c 0
 297.214145511 441 224.851451672 421.074766644 190.254882812 407.700195312 c 1
 190.254882812 407.700195312 161.354492188 442.102190229 160.5546875 473.799804688 c 1
 174.854492188 489.100585938 l 1
 174.854492188 489.100585938 250.909813555 508.60781183 362.754882812 508.100585938 c 0
 474.252929688 507.526226881 557.613890081 471.559534083 557.254882812 386.299804688 c 0
 556.810546875 285.107421875 367.010736056 107.901503223 125.349609375 107.799804688 c 0
 61.4482402274 107.775820029 18.8290157737 128.311580729 11 138 c 1
 9.2939453125 155.721567497 15.146484375 193.070294813 34.0498046875 207.900390625 c 1
EndSplineSet
Colour: ff00
EndChar

StartChar: thn_F
Encoding: 277 1930 21
Width: 529
VWidth: -32
GlyphClass: 2
Flags: HW
AnchorPoint: "bottom_fili" 199.15 0.138672 basechar 0
AnchorPoint: "top_fili" 204.15 602.439 basechar 0
LayerCount: 3
Back
SplineSet
330.56640625 222.16796875 m 1
 341.959960938 216.30859375 350.830078125 210.530273438 357.177734375 204.833984375 c 128
 363.525390625 199.137695312 366.69921875 190.754882812 366.69921875 179.6875 c 0
 366.69921875 152.668945312 339.35546875 117.106445312 284.66796875 72.998046875 c 128
 229.98046875 28.8896484375 174.8046875 -7.32421875 119.140625 -35.64453125 c 128
 63.4765625 -63.96484375 24.7392578125 -78.125 2.9296875 -78.125 c 0
 -17.578125 -78.125 -32.958984375 -72.8349609375 -43.212890625 -62.255859375 c 128
 -53.466796875 -51.6767578125 -58.59375 -38.0859375 -58.59375 -21.484375 c 0
 -58.59375 9.1142578125 -33.447265625 29.541015625 16.845703125 39.794921875 c 128
 67.138671875 50.048828125 119.059570312 68.4404296875 172.607421875 94.970703125 c 128
 226.155273438 121.500976562 252.9296875 144.856445312 252.9296875 165.0390625 c 0
 252.9296875 168.9453125 247.477539062 173.420898438 236.572265625 178.466796875 c 128
 225.666992188 183.512695312 217.366210938 189.453125 211.669921875 196.2890625 c 128
 205.973632812 203.125 203.125 211.588867188 203.125 221.6796875 c 0
 203.125 230.143554688 208.170898438 238.688476562 218.26171875 247.314453125 c 128
 228.352539062 255.940429688 242.024414062 264.485351562 259.27734375 272.94921875 c 2
 286.1328125 286.1328125 l 2
 294.596679688 290.0390625 301.513671875 293.701171875 306.884765625 297.119140625 c 128
 312.255859375 300.537109375 314.94140625 303.547851562 314.94140625 306.15234375 c 0
 314.94140625 309.08203125 313.720703125 311.360351562 311.279296875 312.98828125 c 128
 308.837890625 314.616210938 305.012695312 316.081054688 299.8046875 317.3828125 c 2
 280.76171875 321.77734375 l 2
 259.602539062 326.66015625 244.62890625 332.03125 235.83984375 337.890625 c 128
 227.05078125 343.75 222.65625 352.702148438 222.65625 364.74609375 c 0
 222.65625 380.37109375 230.793945312 392.497070312 247.0703125 401.123046875 c 128
 263.346679688 409.749023438 279.622070312 418.864257812 295.8984375 428.466796875 c 128
 312.174804688 438.069335938 327.392578125 448.811523438 341.552734375 460.693359375 c 128
 355.712890625 472.575195312 368.65234375 478.515625 380.37109375 478.515625 c 0
 390.788085938 478.515625 399.739257812 474.690429688 407.2265625 467.041015625 c 128
 414.713867188 459.391601562 418.45703125 450.1953125 418.45703125 439.453125 c 0
 418.45703125 430.338867188 412.353515625 420.002929688 400.146484375 408.447265625 c 128
 387.939453125 396.891601562 369.954101562 385.25390625 346.19140625 373.53515625 c 1
 381.672851562 363.76953125 403.645507812 355.143554688 412.109375 347.65625 c 128
 420.573242188 340.168945312 424.8046875 331.217773438 424.8046875 320.80078125 c 0
 424.8046875 303.22265625 416.9921875 286.295898438 401.3671875 270.01953125 c 128
 385.7421875 253.743164062 362.141601562 237.79296875 330.56640625 222.16796875 c 1
EndSplineSet
Fore
SplineSet
13.0498046875 281.939453125 m 1
 -1.853515625 258.806640625 -2.7060546875 233.732421875 -1 218.0390625 c 1
 7.513671875 205.142578125 32.943359375 185.759765625 94.349609375 185.838867188 c 0
 235.951171875 186.020507812 495.590820312 386.733398438 550.650390625 446.838867188 c 1
 551.771484375 454.385742188 540.5703125 495.909179688 532.849609375 513.239257812 c 1
 510.150390625 516.239257812 l 1
 410.71875 413.1484375 205.176757812 257.796875 100 258.0390625 c 0
 64.06640625 258.122070312 32.318359375 271.607421875 13.0498046875 281.939453125 c 1
EndSplineSet
Colour: ff0000
EndChar

StartChar: thn_D
Encoding: 278 1931 22
Width: 806
VWidth: -31
GlyphClass: 2
Flags: HW
AnchorPoint: "bottom_fili" 426.887 -0.298828 basechar 0
AnchorPoint: "top_fili" 419.687 602.301 basechar 0
LayerCount: 3
Back
SplineSet
539.0625 386.23046875 m 1
 548.176757812 382.975585938 557.454101562 373.779296875 566.89453125 358.642578125 c 128
 576.334960938 343.505859375 581.0546875 326.497070312 581.0546875 307.6171875 c 0
 581.0546875 259.765625 560.302734375 221.19140625 518.798828125 191.89453125 c 128
 477.294921875 162.59765625 427.24609375 147.94921875 368.65234375 147.94921875 c 0
 362.141601562 147.94921875 354.573242188 148.274414062 345.947265625 148.92578125 c 128
 337.321289062 149.577148438 328.125 150.715820312 318.359375 152.34375 c 1
 249.0234375 69.9873046875 184.407226562 10.986328125 124.51171875 -24.658203125 c 128
 64.6162109375 -60.302734375 22.7861328125 -78.125 -0.9765625 -78.125 c 0
 -19.8564453125 -78.125 -34.1796875 -73.0791015625 -43.9453125 -62.98828125 c 128
 -53.7109375 -52.8974609375 -58.59375 -39.0625 -58.59375 -21.484375 c 0
 -58.59375 6.5107421875 -41.015625 25.4716796875 -5.859375 35.400390625 c 128
 29.296875 45.3291015625 57.4541015625 55.5009765625 78.61328125 65.91796875 c 128
 99.7724609375 76.3349609375 123.698242188 91.3896484375 150.390625 111.083984375 c 128
 177.083007812 130.778320312 205.241210938 155.924804688 234.86328125 186.5234375 c 1
 228.678710938 192.057617188 223.876953125 198.323242188 220.458984375 205.322265625 c 128
 217.041015625 212.321289062 215.33203125 220.21484375 215.33203125 229.00390625 c 0
 215.33203125 251.139648438 221.842773438 268.147460938 234.86328125 280.029296875 c 128
 247.883789062 291.911132812 265.950195312 297.8515625 289.0625 297.8515625 c 0
 301.7578125 297.8515625 313.313476562 292.805664062 323.73046875 282.71484375 c 128
 334.147460938 272.624023438 341.471679688 259.928710938 345.703125 244.62890625 c 1
 358.723632812 240.397460938 375.163085938 238.28125 395.01953125 238.28125 c 0
 419.108398438 238.28125 439.860351562 244.547851562 457.275390625 257.080078125 c 128
 474.690429688 269.612304688 483.3984375 285.969726562 483.3984375 306.15234375 c 0
 483.3984375 329.264648438 471.110351562 345.051757812 446.533203125 353.515625 c 128
 421.956054688 361.979492188 409.66796875 374.348632812 409.66796875 390.625 c 0
 409.66796875 412.434570312 424.967773438 427.327148438 455.56640625 435.302734375 c 128
 486.165039062 443.278320312 507.649414062 451.171875 520.01953125 458.984375 c 2
 534.66796875 468.26171875 l 2
 539.225585938 471.19140625 543.864257812 473.6328125 548.583984375 475.5859375 c 128
 553.303710938 477.5390625 558.59375 478.515625 564.453125 478.515625 c 0
 576.171875 478.515625 585.774414062 474.772460938 593.26171875 467.28515625 c 128
 600.749023438 459.797851562 604.4921875 450.520507812 604.4921875 439.453125 c 0
 604.4921875 429.362304688 600.422851562 420.491210938 592.28515625 412.841796875 c 128
 584.147460938 405.192382812 566.40625 396.321289062 539.0625 386.23046875 c 1
EndSplineSet
Fore
SplineSet
647.650390625 446.838867188 m 1
 649.023404498 452.11260044 635.30522582 481.129052029 625.849609375 493.239257812 c 1
 607.150390625 496.239257812 l 1
 578.62068509 442.935806901 553.216100448 393.17789236 468.086914062 403.900390625 c 1
 469.38671875 388.201171875 l 1
 485.083984375 423 489.44140625 463 480 486 c 1
 432.211914062 494.161132812 380.162381546 480.255852211 379.086914062 439.400390625 c 0
 378.078104198 400.484375 409.159412149 333.36572093 508.38671875 333.201171875 c 0
 593.240793727 333.06045801 635.863654329 396.102539062 647.650390625 446.838867188 c 1
30.0498046875 281.939453125 m 1
 15.146484375 258.806640625 14.2939453125 233.732421875 16 218.0390625 c 1
 24.513671875 205.142578125 49.943358948 185.76009779 111.349609375 185.838867188 c 0
 245.425194276 186.020507812 415.517179919 326.733398438 467.650390625 386.838867188 c 1
 468.771484375 394.385742188 447.5703125 425.909179688 439.849609375 443.239257812 c 1
 417.150390625 436.239257812 l 1
 389.557363445 363.1484375 215.606296698 257.796100649 117 258.0390625 c 0
 81.06640625 258.122070312 49.318359375 271.607421875 30.0498046875 281.939453125 c 1
562 416 m 0
 564.130859375 378.193359375 578.166000442 301.592061847 676.186523438 299.500976562 c 0
 755.9296875 297.799804688 828.54296875 368.607421875 836.987304688 445.500976562 c 1
 835.50390625 461.974609375 817.301757812 496.904296875 792 513 c 1
 778.086914062 504.500976562 l 1
 768.774414062 453.688476562 725.739257812 367.900390625 681.38671875 367.900390625 c 0
 642.751044365 367.900390625 642.112680616 413.174057332 648 448 c 1
 640.076684984 453.937423622 615.810472059 461.358593014 601 461.372070312 c 0
 597.129882812 461.380859375 593.087890625 461.177734375 589.586914062 460.900390625 c 1
 600.290574696 442.986987317 560.810746237 437.100261313 562 416 c 0
EndSplineSet
Colour: ff0000
EndChar

StartChar: thn_T
Encoding: 279 1932 23
Width: 806
VWidth: -31
GlyphClass: 2
Flags: HW
AnchorPoint: "bottom_fili" 426.887 -0.298828 basechar 0
AnchorPoint: "top_fili" 419.687 602.301 basechar 0
LayerCount: 3
Back
SplineSet
277.83203125 208.49609375 m 1
 267.415039062 200.68359375 258.381835938 193.766601562 250.732421875 187.744140625 c 128
 243.083007812 181.721679688 239.2578125 176.26953125 239.2578125 171.38671875 c 0
 239.2578125 166.829101562 248.698242188 155.680664062 267.578125 137.939453125 c 128
 286.458007812 120.198242188 295.8984375 101.07421875 295.8984375 80.56640625 c 0
 295.8984375 47.0380859375 273.681640625 17.9033203125 229.248046875 -6.8359375 c 128
 184.814453125 -31.5751953125 138.671875 -43.9453125 90.8203125 -43.9453125 c 0
 54.0361328125 -43.9453125 25.634765625 -39.2255859375 5.615234375 -29.78515625 c 128
 -14.404296875 -20.3447265625 -24.4140625 -6.9990234375 -24.4140625 10.25390625 c 0
 -24.4140625 24.2509765625 -21.1591796875 35.5634765625 -14.6484375 44.189453125 c 128
 -8.1376953125 52.8154296875 2.2783203125 57.12890625 16.6015625 57.12890625 c 0
 27.0185546875 57.12890625 39.2255859375 54.7685546875 53.22265625 50.048828125 c 128
 67.2197265625 45.3291015625 80.7294921875 42.96875 93.75 42.96875 c 0
 124.348632812 42.96875 149.006835938 46.4677734375 167.724609375 53.466796875 c 128
 186.442382812 60.4658203125 195.80078125 70.80078125 195.80078125 84.47265625 c 0
 195.80078125 94.5634765625 186.5234375 105.95703125 167.96875 118.65234375 c 128
 149.4140625 131.34765625 140.13671875 142.252929688 140.13671875 151.3671875 c 0
 140.13671875 178.059570312 159.66796875 210.041992188 198.73046875 247.314453125 c 128
 237.79296875 284.586914062 287.109375 317.790039062 346.6796875 346.923828125 c 128
 406.25 376.057617188 457.03125 390.625 499.0234375 390.625 c 0
 529.622070312 390.625 551.920898438 382.731445312 565.91796875 366.943359375 c 128
 579.915039062 351.155273438 586.9140625 328.938476562 586.9140625 300.29296875 c 0
 586.9140625 257.649414062 569.416992188 222.493164062 534.423828125 194.82421875 c 128
 499.430664062 167.155273438 459.635742188 153.3203125 415.0390625 153.3203125 c 0
 392.903320312 153.3203125 369.221679688 158.203125 343.994140625 167.96875 c 128
 318.766601562 177.734375 296.711914062 191.243164062 277.83203125 208.49609375 c 1
489.74609375 307.6171875 m 128
 486.81640625 309.245117188 482.747070312 310.05859375 477.5390625 310.05859375 c 0
 469.7265625 310.05859375 453.61328125 304.6875 429.19921875 293.9453125 c 128
 404.78515625 283.203125 381.022460938 271.321289062 357.91015625 258.30078125 c 1
 366.374023438 251.790039062 375.732421875 246.500976562 385.986328125 242.431640625 c 128
 396.240234375 238.362304688 407.551757812 236.328125 419.921875 236.328125 c 0
 443.359375 236.328125 461.588867188 241.455078125 474.609375 251.708984375 c 128
 487.629882812 261.962890625 494.140625 277.018554688 494.140625 296.875 c 0
 494.140625 302.409179688 492.67578125 305.989257812 489.74609375 307.6171875 c 128
EndSplineSet
Fore
SplineSet
647.650390625 446.838867188 m 1
 649.023404498 452.11260044 635.30522582 481.129052029 625.849609375 493.239257812 c 1
 607.150390625 496.239257812 l 1
 578.62068509 442.935806901 553.216100448 393.17789236 468.086914062 403.900390625 c 1
 469.38671875 388.201171875 l 1
 485.083984375 423 489.44140625 463 480 486 c 1
 432.211914062 494.161132812 380.162381546 480.255852211 379.086914062 439.400390625 c 0
 378.078104198 400.484375 409.159412149 333.36572093 508.38671875 333.201171875 c 0
 593.240793727 333.06045801 635.863654329 396.102539062 647.650390625 446.838867188 c 1
30.0498046875 281.939453125 m 1
 15.146484375 258.806640625 14.2939453125 233.732421875 16 218.0390625 c 1
 24.513671875 205.142578125 49.943358948 185.76009779 111.349609375 185.838867188 c 0
 245.425194276 186.020507812 415.517179919 326.733398438 467.650390625 386.838867188 c 1
 468.771484375 394.385742188 447.5703125 425.909179688 439.849609375 443.239257812 c 1
 417.150390625 436.239257812 l 1
 389.557363445 363.1484375 215.606296698 257.796100649 117 258.0390625 c 0
 81.06640625 258.122070312 49.318359375 271.607421875 30.0498046875 281.939453125 c 1
562 416 m 0
 564.130859375 378.193359375 578.166000442 301.592061847 676.186523438 299.500976562 c 0
 755.9296875 297.799804688 828.54296875 368.607421875 836.987304688 445.500976562 c 1
 835.50390625 461.974609375 817.301757812 496.904296875 792 513 c 1
 778.086914062 504.500976562 l 1
 768.774414062 453.688476562 725.739257812 367.900390625 681.38671875 367.900390625 c 0
 642.751044365 367.900390625 642.112680616 413.174057332 648 448 c 1
 640.076684984 453.937423622 615.810472059 461.358593014 601 461.372070312 c 0
 597.129882812 461.380859375 593.087890625 461.177734375 589.586914062 460.900390625 c 1
 600.290574696 442.986987317 560.810746237 437.100261313 562 416 c 0
EndSplineSet
Colour: ff0000
EndChar

StartChar: thn_LL
Encoding: 280 1933 24
Width: 806
VWidth: -31
GlyphClass: 2
Flags: HW
AnchorPoint: "bottom_fili" 426.887 -0.298828 basechar 0
AnchorPoint: "top_fili" 419.687 602.301 basechar 0
LayerCount: 3
Back
SplineSet
337.890625 361.81640625 m 1
 351.237304688 361.81640625 364.420898438 362.629882812 377.44140625 364.2578125 c 2
 454.58984375 372.0703125 l 2
 467.28515625 373.046875 479.98046875 373.53515625 492.67578125 373.53515625 c 0
 502.766601562 373.53515625 510.986328125 370.930664062 517.333984375 365.72265625 c 128
 523.681640625 360.514648438 526.85546875 352.702148438 526.85546875 342.28515625 c 256
 526.85546875 331.868164062 523.356445312 320.719726562 516.357421875 308.837890625 c 128
 509.358398438 296.956054688 482.502929688 267.08984375 435.791015625 219.23828125 c 128
 389.079101562 171.38671875 336.9140625 123.616210938 279.296875 75.927734375 c 128
 221.6796875 28.2392578125 166.911132812 -9.3583984375 114.990234375 -36.865234375 c 128
 63.0693359375 -64.3720703125 25.7158203125 -78.125 2.9296875 -78.125 c 0
 -17.578125 -78.125 -32.958984375 -72.8349609375 -43.212890625 -62.255859375 c 128
 -53.466796875 -51.6767578125 -58.59375 -38.0859375 -58.59375 -21.484375 c 0
 -58.59375 8.1376953125 -41.748046875 26.5302734375 -8.056640625 33.69140625 c 128
 25.634765625 40.8525390625 65.2666015625 55.17578125 110.83984375 76.66015625 c 128
 156.413085938 98.14453125 206.217773438 131.266601562 260.25390625 176.025390625 c 128
 314.290039062 220.784179688 357.421875 257.649414062 389.6484375 286.62109375 c 1
 375 284.993164062 359.86328125 283.772460938 344.23828125 282.958984375 c 128
 328.61328125 282.145507812 311.848632812 281.73828125 293.9453125 281.73828125 c 0
 266.276367188 281.73828125 245.036132812 286.62109375 230.224609375 296.38671875 c 128
 215.413085938 306.15234375 208.0078125 318.84765625 208.0078125 334.47265625 c 0
 208.0078125 350.422851562 215.657226562 363.606445312 230.95703125 374.0234375 c 128
 246.256835938 384.440429688 262.370117188 397.216796875 279.296875 412.353515625 c 128
 296.223632812 427.490234375 310.872070312 442.301757812 323.2421875 456.787109375 c 128
 335.612304688 471.272460938 350.422851562 478.515625 367.67578125 478.515625 c 0
 379.069335938 478.515625 388.264648438 474.528320312 395.263671875 466.552734375 c 128
 402.262695312 458.577148438 405.76171875 448.893554688 405.76171875 437.5 c 0
 405.76171875 415.690429688 383.137695312 390.461914062 337.890625 361.81640625 c 1
EndSplineSet
Fore
SplineSet
647.650390625 446.838867188 m 1
 649.023404498 452.11260044 635.30522582 481.129052029 625.849609375 493.239257812 c 1
 607.150390625 496.239257812 l 1
 578.62068509 442.935806901 553.216100448 393.17789236 468.086914062 403.900390625 c 1
 469.38671875 388.201171875 l 1
 485.083984375 423 489.44140625 463 480 486 c 1
 432.211914062 494.161132812 380.162381546 480.255852211 379.086914062 439.400390625 c 0
 378.078104198 400.484375 409.159412149 333.36572093 508.38671875 333.201171875 c 0
 593.240793727 333.06045801 635.863654329 396.102539062 647.650390625 446.838867188 c 1
30.0498046875 281.939453125 m 1
 15.146484375 258.806640625 14.2939453125 233.732421875 16 218.0390625 c 1
 24.513671875 205.142578125 49.943358948 185.76009779 111.349609375 185.838867188 c 0
 245.425194276 186.020507812 415.517179919 326.733398438 467.650390625 386.838867188 c 1
 468.771484375 394.385742188 447.5703125 425.909179688 439.849609375 443.239257812 c 1
 417.150390625 436.239257812 l 1
 389.557363445 363.1484375 215.606296698 257.796100649 117 258.0390625 c 0
 81.06640625 258.122070312 49.318359375 271.607421875 30.0498046875 281.939453125 c 1
562 416 m 0
 564.130859375 378.193359375 578.166000442 301.592061847 676.186523438 299.500976562 c 0
 755.9296875 297.799804688 828.54296875 368.607421875 836.987304688 445.500976562 c 1
 835.50390625 461.974609375 817.301757812 496.904296875 792 513 c 1
 778.086914062 504.500976562 l 1
 768.774414062 453.688476562 725.739257812 367.900390625 681.38671875 367.900390625 c 0
 642.751044365 367.900390625 642.112680616 413.174057332 648 448 c 1
 640.076684984 453.937423622 615.810472059 461.358593014 601 461.372070312 c 0
 597.129882812 461.380859375 593.087890625 461.177734375 589.586914062 460.900390625 c 1
 600.290574696 442.986987317 560.810746237 437.100261313 562 416 c 0
EndSplineSet
Colour: ff0000
EndChar

StartChar: thn_G
Encoding: 281 1934 25
Width: 806
VWidth: -31
GlyphClass: 2
Flags: HW
AnchorPoint: "bottom_fili" 426.887 -0.298828 basechar 0
AnchorPoint: "top_fili" 419.687 602.301 basechar 0
LayerCount: 3
Back
SplineSet
246.09375 123.53515625 m 2
 221.19140625 149.90234375 l 2
 212.077148438 159.66796875 203.776367188 170.573242188 196.2890625 182.6171875 c 128
 188.801757812 194.661132812 185.05859375 207.844726562 185.05859375 222.16796875 c 0
 185.05859375 257.649414062 220.133789062 294.596679688 290.283203125 333.0078125 c 128
 360.432617188 371.418945312 405.76171875 390.625 426.26953125 390.625 c 0
 441.243164062 390.625 452.717773438 386.555664062 460.693359375 378.41796875 c 128
 468.668945312 370.280273438 472.65625 360.3515625 472.65625 348.6328125 c 0
 472.65625 332.682617188 461.995117188 320.068359375 440.673828125 310.791015625 c 128
 419.352539062 301.513671875 387.6953125 285.15625 345.703125 261.71875 c 128
 303.7109375 238.28125 282.71484375 223.14453125 282.71484375 216.30859375 c 0
 282.71484375 211.750976562 286.458007812 205.891601562 293.9453125 198.73046875 c 2
 318.84765625 173.828125 l 2
 327.961914062 164.713867188 336.262695312 155.110351562 343.75 145.01953125 c 128
 351.237304688 134.928710938 354.98046875 125 354.98046875 115.234375 c 0
 354.98046875 68.359375 326.252929688 30.1103515625 268.798828125 0.48828125 c 128
 211.344726562 -29.1337890625 143.5546875 -43.9453125 65.4296875 -43.9453125 c 0
 29.296875 -43.9453125 0 -38.7373046875 -22.4609375 -28.3203125 c 128
 -44.921875 -17.9033203125 -56.15234375 -3.5810546875 -56.15234375 14.6484375 c 0
 -56.15234375 28.9716796875 -51.5947265625 40.6904296875 -42.48046875 49.8046875 c 128
 -33.3662109375 58.9189453125 -22.6240234375 63.4765625 -10.25390625 63.4765625 c 0
 -4.0693359375 63.4765625 2.6044921875 62.5 9.765625 60.546875 c 2
 32.2265625 53.7109375 l 2
 40.3642578125 51.1064453125 49.2353515625 48.828125 58.837890625 46.875 c 128
 68.4404296875 44.921875 78.9384765625 43.9453125 90.33203125 43.9453125 c 0
 138.18359375 43.9453125 177.978515625 49.4794921875 209.716796875 60.546875 c 128
 241.455078125 71.6142578125 257.32421875 85.7744140625 257.32421875 103.02734375 c 0
 257.32421875 108.88671875 253.581054688 115.72265625 246.09375 123.53515625 c 2
EndSplineSet
Fore
SplineSet
647.650390625 446.838867188 m 1
 649.023404498 452.11260044 635.30522582 481.129052029 625.849609375 493.239257812 c 1
 607.150390625 496.239257812 l 1
 578.62068509 442.935806901 553.216100448 393.17789236 468.086914062 403.900390625 c 1
 469.38671875 388.201171875 l 1
 485.083984375 423 489.44140625 463 480 486 c 1
 432.211914062 494.161132812 380.162381546 480.255852211 379.086914062 439.400390625 c 0
 378.078104198 400.484375 409.159412149 333.36572093 508.38671875 333.201171875 c 0
 593.240793727 333.06045801 635.863654329 396.102539062 647.650390625 446.838867188 c 1
30.0498046875 281.939453125 m 1
 15.146484375 258.806640625 14.2939453125 233.732421875 16 218.0390625 c 1
 24.513671875 205.142578125 49.943358948 185.76009779 111.349609375 185.838867188 c 0
 245.425194276 186.020507812 415.517179919 326.733398438 467.650390625 386.838867188 c 1
 468.771484375 394.385742188 447.5703125 425.909179688 439.849609375 443.239257812 c 1
 417.150390625 436.239257812 l 1
 389.557363445 363.1484375 215.606296698 257.796100649 117 258.0390625 c 0
 81.06640625 258.122070312 49.318359375 271.607421875 30.0498046875 281.939453125 c 1
562 416 m 0
 564.130859375 378.193359375 578.166000442 301.592061847 676.186523438 299.500976562 c 0
 755.9296875 297.799804688 828.54296875 368.607421875 836.987304688 445.500976562 c 1
 835.50390625 461.974609375 817.301757812 496.904296875 792 513 c 1
 778.086914062 504.500976562 l 1
 768.774414062 453.688476562 725.739257812 367.900390625 681.38671875 367.900390625 c 0
 642.751044365 367.900390625 642.112680616 413.174057332 648 448 c 1
 640.076684984 453.937423622 615.810472059 461.358593014 601 461.372070312 c 0
 597.129882812 461.380859375 593.087890625 461.177734375 589.586914062 460.900390625 c 1
 600.290574696 442.986987317 560.810746237 437.100261313 562 416 c 0
EndSplineSet
Colour: ff0000
EndChar

StartChar: thn_GN
Encoding: 282 1935 26
Width: 806
VWidth: -31
GlyphClass: 2
Flags: HW
AnchorPoint: "bottom_fili" 426.887 -0.298828 basechar 0
AnchorPoint: "top_fili" 419.687 602.301 basechar 0
LayerCount: 3
Back
SplineSet
316.40625 322.021484375 m 128
 329.426757812 295.491210938 342.610351562 282.2265625 355.95703125 282.2265625 c 0
 363.118164062 282.2265625 371.418945312 285.64453125 380.859375 292.48046875 c 128
 390.299804688 299.31640625 401.3671875 309.08203125 414.0625 321.77734375 c 2
 432.6171875 340.8203125 l 2
 438.4765625 346.6796875 444.010742188 351.5625 449.21875 355.46875 c 128
 454.426757812 359.375 458.821289062 361.328125 462.40234375 361.328125 c 0
 481.608398438 361.328125 491.455078125 344.889648438 491.943359375 312.01171875 c 128
 492.431640625 279.133789062 498.53515625 258.30078125 510.25390625 249.51171875 c 1
 520.670898438 249.51171875 533.69140625 257.243164062 549.31640625 272.705078125 c 128
 564.94140625 288.166992188 580.485351562 309.326171875 595.947265625 336.181640625 c 128
 611.409179688 363.037109375 633.137695312 376.46484375 661.1328125 376.46484375 c 0
 673.176757812 376.46484375 682.209960938 373.127929688 688.232421875 366.455078125 c 128
 694.254882812 359.782226562 697.265625 350.911132812 697.265625 339.84375 c 0
 697.265625 315.754882812 682.12890625 289.469726562 651.85546875 260.986328125 c 128
 621.58203125 232.502929688 594.319335938 208.821289062 570.068359375 189.94140625 c 128
 545.817382812 171.061523438 522.624023438 161.62109375 500.48828125 161.62109375 c 0
 484.211914062 161.62109375 468.75 168.131835938 454.1015625 181.15234375 c 128
 439.453125 194.172851562 429.362304688 211.42578125 423.828125 232.91015625 c 1
 407.551757812 208.821289062 390.869140625 192.138671875 373.779296875 182.861328125 c 128
 356.689453125 173.583984375 340.983398438 168.9453125 326.66015625 168.9453125 c 0
 322.102539062 168.9453125 316.40625 170.735351562 309.5703125 174.31640625 c 128
 302.734375 177.897460938 295.735351562 182.12890625 288.57421875 187.01171875 c 1
 244.62890625 159.66796875 209.147460938 129.638671875 182.12890625 96.923828125 c 128
 155.110351562 64.208984375 141.6015625 33.203125 141.6015625 3.90625 c 0
 141.6015625 -20.8330078125 152.424804688 -39.0625 174.072265625 -50.78125 c 128
 195.719726562 -62.5 228.352539062 -68.359375 271.97265625 -68.359375 c 0
 302.571289062 -68.359375 327.067382812 -67.87109375 345.458984375 -66.89453125 c 128
 363.850585938 -65.91796875 379.231445312 -64.7783203125 391.6015625 -63.4765625 c 2
 423.33984375 -60.546875 l 2
 432.454101562 -59.5703125 443.034179688 -59.08203125 455.078125 -59.08203125 c 0
 465.8203125 -59.08203125 474.528320312 -62.0927734375 481.201171875 -68.115234375 c 128
 487.874023438 -74.1376953125 491.2109375 -83.0078125 491.2109375 -94.7265625 c 0
 491.2109375 -114.909179688 471.516601562 -130.208007812 432.12890625 -140.625 c 128
 392.741210938 -151.041992188 337.40234375 -156.25 266.11328125 -156.25 c 0
 194.499023438 -156.25 140.380859375 -143.310546875 103.759765625 -117.431640625 c 128
 67.138671875 -91.552734375 48.828125 -54.8505859375 48.828125 -7.32421875 c 0
 48.828125 34.0166015625 65.9990234375 76.7412109375 100.341796875 120.849609375 c 128
 134.684570312 164.958007812 177.734375 202.799804688 229.4921875 234.375 c 1
 214.35546875 243.65234375 l 2
 205.241210938 248.860351562 198.079101562 254.557617188 192.87109375 260.7421875 c 128
 187.663085938 266.926757812 185.05859375 273.92578125 185.05859375 281.73828125 c 0
 185.05859375 300.618164062 194.580078125 318.684570312 213.623046875 335.9375 c 128
 232.666015625 353.190429688 253.581054688 361.81640625 276.3671875 361.81640625 c 0
 290.0390625 361.81640625 303.385742188 348.551757812 316.40625 322.021484375 c 128
EndSplineSet
Fore
SplineSet
647.650390625 446.838867188 m 1
 649.023404498 452.11260044 635.30522582 481.129052029 625.849609375 493.239257812 c 1
 607.150390625 496.239257812 l 1
 578.62068509 442.935806901 553.216100448 393.17789236 468.086914062 403.900390625 c 1
 469.38671875 388.201171875 l 1
 485.083984375 423 489.44140625 463 480 486 c 1
 432.211914062 494.161132812 380.162381546 480.255852211 379.086914062 439.400390625 c 0
 378.078104198 400.484375 409.159412149 333.36572093 508.38671875 333.201171875 c 0
 593.240793727 333.06045801 635.863654329 396.102539062 647.650390625 446.838867188 c 1
30.0498046875 281.939453125 m 1
 15.146484375 258.806640625 14.2939453125 233.732421875 16 218.0390625 c 1
 24.513671875 205.142578125 49.943358948 185.76009779 111.349609375 185.838867188 c 0
 245.425194276 186.020507812 415.517179919 326.733398438 467.650390625 386.838867188 c 1
 468.771484375 394.385742188 447.5703125 425.909179688 439.849609375 443.239257812 c 1
 417.150390625 436.239257812 l 1
 389.557363445 363.1484375 215.606296698 257.796100649 117 258.0390625 c 0
 81.06640625 258.122070312 49.318359375 271.607421875 30.0498046875 281.939453125 c 1
562 416 m 0
 564.130859375 378.193359375 578.166000442 301.592061847 676.186523438 299.500976562 c 0
 755.9296875 297.799804688 828.54296875 368.607421875 836.987304688 445.500976562 c 1
 835.50390625 461.974609375 817.301757812 496.904296875 792 513 c 1
 778.086914062 504.500976562 l 1
 768.774414062 453.688476562 725.739257812 367.900390625 681.38671875 367.900390625 c 0
 642.751044365 367.900390625 642.112680616 413.174057332 648 448 c 1
 640.076684984 453.937423622 615.810472059 461.358593014 601 461.372070312 c 0
 597.129882812 461.380859375 593.087890625 461.177734375 589.586914062 460.900390625 c 1
 600.290574696 442.986987317 560.810746237 437.100261313 562 416 c 0
EndSplineSet
EndChar

StartChar: thn_S
Encoding: 283 1936 27
Width: 996
VWidth: -24
GlyphClass: 2
Flags: HW
AnchorPoint: "top_fili" 509.807 601.943 basechar 0
AnchorPoint: "bottom_fili" 482.007 0.342773 basechar 0
LayerCount: 3
Back
SplineSet
543.73828125 206.54296875 m 1
 519.975585938 219.563476562 504.024414062 231.852539062 495.88671875 243.408203125 c 128
 487.749023438 254.963867188 483.6796875 268.5546875 483.6796875 284.1796875 c 0
 483.6796875 303.385742188 491.4921875 321.2890625 507.1171875 337.890625 c 128
 522.7421875 354.4921875 541.133789062 362.79296875 562.29296875 362.79296875 c 0
 587.358398438 362.79296875 608.028320312 354.329101562 624.3046875 337.40234375 c 128
 640.581054688 320.475585938 649.6953125 298.176757812 651.6484375 270.5078125 c 1
 689.083007812 265.299804688 729.692382812 261.23046875 773.474609375 258.30078125 c 128
 817.256835938 255.37109375 866.00390625 253.90625 919.71484375 253.90625 c 0
 1100.70410156 253.90625 1207.23144531 266.6015625 1239.29492188 291.9921875 c 128
 1271.35839844 317.3828125 1292.51757812 342.610351562 1302.77148438 367.67578125 c 128
 1313.02539062 392.741210938 1329.21972656 405.2734375 1351.35546875 405.2734375 c 0
 1364.05078125 405.2734375 1373.08398438 401.611328125 1378.45507812 394.287109375 c 128
 1383.82617188 386.962890625 1386.51171875 377.116210938 1386.51171875 364.74609375 c 0
 1386.51171875 328.288085938 1368.20117188 292.073242188 1331.58007812 256.103515625 c 128
 1294.95898438 220.133789062 1247.02636719 196.125976562 1187.78125 184.08203125 c 128
 1128.53613281 172.038085938 1034.94921875 166.015625 907.01953125 166.015625 c 0
 851.030273438 166.015625 800.57421875 167.887695312 755.65234375 171.630859375 c 128
 710.73046875 175.374023438 670.854492188 179.6875 636.0234375 184.5703125 c 1
 621.700195312 152.34375 595.333007812 121.174804688 556.921875 91.064453125 c 128
 518.510742188 60.9541015625 486.934570312 45.8984375 462.1953125 45.8984375 c 0
 446.5703125 45.8984375 434.200195312 49.8046875 425.0859375 57.6171875 c 128
 415.971679688 65.4296875 411.4140625 75.8466796875 411.4140625 88.8671875 c 0
 411.4140625 107.421875 423.784179688 121.012695312 448.5234375 129.638671875 c 128
 473.262695312 138.264648438 494.421875 149.821289062 512 164.306640625 c 128
 529.578125 178.791992188 540.157226562 192.87109375 543.73828125 206.54296875 c 1
EndSplineSet
Fore
SplineSet
14.0498046875 296.900390625 m 5
 29.5380859375 294.5078125 69.603515625 285.786132812 106 292 c 4
 222.822265625 311.944335938 253.311523438 395.149414062 289.150390625 482.200195312 c 1
 320.849609375 487.200195312 l 1
 330 440.299804688 318.067382812 405.26171875 311.650390625 393.799804688 c 1
 304.22265625 331.967773438 214.29296875 236.455078125 107.349609375 218.799804688 c 4
 58.310546875 210.704101562 27.4296875 219.466796875 14 226 c 5
 5.2939453125 251.693359375 5.146484375 283.767578125 14.0498046875 296.900390625 c 5
937.106445312 516.143554688 m 1
 959.849609375 513.239257812 l 1
 967.5703125 495.909179688 978.771484375 454.385742188 977.806640625 447.143554688 c 1
 966.609461227 403.412895756 900.61328125 325.836914062 791 312 c 0
 718.416992188 302.837890625 488.565429688 299.184570312 414 299.819335938 c 0
 284.581054688 300.921875 219.40625 365.5625 219.40625 435.54296875 c 0
 219.40625 472.5 249.423828125 498.818359375 320.306640625 487.443359375 c 1
 283 419 l 1
 319.6015625 361.630859375 431.44140625 375.91015625 508 375.564453125 c 0
 579.954101562 375.239257812 716.846679688 378.342773438 782 385 c 0
 880.330078125 395.047851562 909.545151963 469.369545507 937.106445312 516.143554688 c 1
EndSplineSet
Colour: ff00
EndChar

StartChar: thn_DD
Encoding: 284 1937 28
Width: 628
VWidth: -30
GlyphClass: 2
Flags: HW
AnchorPoint: "top_fili" 345.4 602.45 basechar 0
AnchorPoint: "bottom_fili" 335.4 -1.15039 basechar 0
LayerCount: 3
Back
SplineSet
261.962890625 47.119140625 m 128
 268.310546875 47.607421875 276.3671875 47.8515625 286.1328125 47.8515625 c 0
 298.502929688 47.8515625 307.536132812 44.0263671875 313.232421875 36.376953125 c 128
 318.928710938 28.7275390625 321.77734375 18.06640625 321.77734375 4.39453125 c 0
 321.77734375 -12.20703125 315.999023438 -24.4140625 304.443359375 -32.2265625 c 128
 292.887695312 -40.0390625 275.715820312 -43.9453125 252.9296875 -43.9453125 c 0
 200.846679688 -43.9453125 149.739257812 -32.1455078125 99.609375 -8.544921875 c 128
 49.4794921875 15.0556640625 24.4140625 43.7822265625 24.4140625 77.63671875 c 0
 24.4140625 100.09765625 32.3896484375 119.547851562 48.33984375 135.986328125 c 128
 64.2900390625 152.424804688 84.1474609375 166.015625 107.91015625 176.7578125 c 2
 149.4140625 195.80078125 l 1
 141.926757812 198.73046875 121.58203125 203.206054688 88.37890625 209.228515625 c 128
 55.17578125 215.250976562 38.57421875 227.864257812 38.57421875 247.0703125 c 0
 38.57421875 261.393554688 45.2470703125 274.90234375 58.59375 287.59765625 c 128
 71.9404296875 300.29296875 85.0419921875 312.825195312 97.900390625 325.1953125 c 128
 110.758789062 337.565429688 127.360351562 350.911132812 147.705078125 365.234375 c 128
 168.049804688 379.557617188 184.895507812 386.71875 198.2421875 386.71875 c 0
 209.9609375 386.71875 218.75 383.381835938 224.609375 376.708984375 c 128
 230.46875 370.036132812 233.3984375 362.467773438 233.3984375 354.00390625 c 0
 233.3984375 343.26171875 227.131835938 330.810546875 214.599609375 316.650390625 c 128
 202.067382812 302.490234375 183.430664062 287.434570312 158.69140625 271.484375 c 1
 163.57421875 269.856445312 169.758789062 268.229492188 177.24609375 266.6015625 c 2
 200.68359375 260.7421875 l 2
 225.749023438 254.231445312 243.733398438 246.989257812 254.638671875 239.013671875 c 128
 265.543945312 231.038085938 270.99609375 222.16796875 270.99609375 212.40234375 c 0
 270.99609375 183.430664062 259.033203125 164.306640625 235.107421875 155.029296875 c 128
 211.181640625 145.751953125 187.5 134.196289062 164.0625 120.361328125 c 128
 140.625 106.526367188 128.90625 97.16796875 128.90625 92.28515625 c 0
 128.90625 82.8447265625 140.13671875 72.8349609375 162.59765625 62.255859375 c 128
 185.05859375 51.6767578125 210.9375 46.38671875 240.234375 46.38671875 c 0
 248.372070312 46.38671875 255.615234375 46.630859375 261.962890625 47.119140625 c 128
271.484375 390.625 m 1024
EndSplineSet
Fore
SplineSet
154 168.650390625 m 4
 153.322945599 114.18928518 227.56331104 95.75 318.600585938 95.75 c 4
 382.676731503 95.75 444.658764649 106.842867775 500.200195312 125.849609375 c 5
 509.185762903 105.36918944 509.509223559 75.8944011065 501.600585938 47.5498046875 c 5
 501.600585938 47.5498046875 411.10587185 26.5498046875 322.30078125 26.5498046875 c 4
 201.76795029 26.5498046875 76.900390625 56.3662524929 76.900390625 152.25 c 4
 76.900390625 200.979386104 108.81135857 253.319749964 142 292.91015625 c 5
 152.631395709 304.278674471 163.638746324 315.53195508 175 326.66015625 c 5
 245.547637853 437.765066563 367.163320999 519.849609375 465.900390625 519.849609375 c 4
 531.431318091 519.849609375 570.900390625 484.477246067 570.900390625 429.650390625 c 4
 570.900390625 313.683498745 437.449565911 214.449962953 274.200195312 226.349609375 c 4
 170.419735445 233.569090488 93.633171296 298.305633221 95.1005859375 377.25 c 4
 96.5860094526 460.003040764 163.283440714 506.450195312 233.700195312 506.450195312 c 4
 330.500111099 506.450195312 385.5 447.150390625 385.5 447.150390625 c 5
 330.5 411.950195312 l 4
 330.5 411.950195312 301.800132791 450.055100321 234.600585938 449.25 c 4
 199.004041282 448.823527042 161.673667827 425.903152921 161.30078125 384.150390625 c 4
 160.735409061 320.84467763 233.87338849 295.445733532 279.900390625 291.549804688 c 4
 387.070736003 282.478433092 504.100585938 338.916683244 504.100585938 418.650390625 c 4
 504.100585938 436.968984683 489.037890625 450.75 456.600585938 450.75 c 4
 373.673251588 450.75 276.553498628 377.979123282 224.953125 290 c 5
 215.570162676 280.33447076 206.892818421 270.526508269 199 260.622070312 c 5
 171.012379121 230.385876593 154.376583023 198.942089004 154 168.650390625 c 4
EndSplineSet
Colour: ff0000
EndChar

StartChar: thn_Z
Encoding: 285 1938 29
Width: 628
VWidth: -30
GlyphClass: 2
Flags: HW
AnchorPoint: "top_fili" 345.4 602.45 basechar 0
AnchorPoint: "bottom_fili" 335.4 -1.15039 basechar 0
LayerCount: 3
Back
SplineSet
345.21484375 94.970703125 m 128
 324.055664062 101.643554688 303.547851562 110.676757812 283.69140625 122.0703125 c 1
 233.561523438 88.8671875 197.346679688 60.546875 175.048828125 37.109375 c 128
 152.750976562 13.671875 141.6015625 -5.37109375 141.6015625 -20.01953125 c 0
 141.6015625 -35.64453125 152.668945312 -47.607421875 174.8046875 -55.908203125 c 128
 196.940429688 -64.208984375 228.840820312 -68.359375 270.5078125 -68.359375 c 0
 284.1796875 -68.359375 296.549804688 -68.115234375 307.6171875 -67.626953125 c 128
 318.684570312 -67.138671875 328.776367188 -66.5693359375 337.890625 -65.91796875 c 2
 365.234375 -63.96484375 l 2
 374.0234375 -63.96484375 383.137695312 -63.8017578125 392.578125 -63.4765625 c 0
 403.3203125 -63.4765625 412.028320312 -66.40625 418.701171875 -72.265625 c 128
 425.374023438 -78.125 428.7109375 -86.9140625 428.7109375 -98.6328125 c 0
 428.7109375 -116.862304688 414.225585938 -131.022460938 385.25390625 -141.11328125 c 128
 356.282226562 -151.204101562 315.91796875 -156.25 264.16015625 -156.25 c 0
 196.125976562 -156.25 143.229492188 -144.694335938 105.46875 -121.58203125 c 128
 67.7080078125 -98.4697265625 48.828125 -68.84765625 48.828125 -32.71484375 c 0
 48.828125 5.37109375 61.03515625 41.5849609375 85.44921875 75.927734375 c 128
 109.86328125 110.270507812 151.204101562 146.159179688 209.47265625 183.59375 c 1
 195.80078125 201.171875 188.96484375 218.913085938 188.96484375 236.81640625 c 0
 188.96484375 250.163085938 193.359375 262.614257812 202.1484375 274.169921875 c 128
 210.9375 285.725585938 222.16796875 291.50390625 235.83984375 291.50390625 c 0
 248.209960938 291.50390625 258.7890625 288.981445312 267.578125 283.935546875 c 128
 276.3671875 278.889648438 284.66796875 271.647460938 292.48046875 262.20703125 c 2
 306.15234375 243.65234375 l 1
 356.93359375 274.90234375 399.821289062 299.072265625 434.814453125 316.162109375 c 128
 469.807617188 333.251953125 494.303710938 341.796875 508.30078125 341.796875 c 0
 517.741210938 341.796875 526.286132812 338.37890625 533.935546875 331.54296875 c 128
 541.584960938 324.70703125 545.41015625 315.4296875 545.41015625 303.7109375 c 0
 545.41015625 286.1328125 528.727539062 268.147460938 495.361328125 249.755859375 c 128
 461.995117188 231.364257812 423.33984375 208.984375 379.39453125 182.6171875 c 1
 384.27734375 180.338867188 389.323242188 178.547851562 394.53125 177.24609375 c 2
 409.66796875 172.36328125 l 2
 422.688476562 168.45703125 432.780273438 162.59765625 439.94140625 154.78515625 c 128
 447.102539062 146.97265625 450.68359375 137.858398438 450.68359375 127.44140625 c 0
 450.68359375 116.047851562 447.184570312 106.120117188 440.185546875 97.65625 c 128
 433.186523438 89.1923828125 421.38671875 84.9609375 404.78515625 84.9609375 c 0
 386.23046875 84.9609375 366.374023438 88.2978515625 345.21484375 94.970703125 c 128
395.01953125 351.5625 m 1024
EndSplineSet
Fore
SplineSet
154 168.650390625 m 4
 153.322945599 114.18928518 227.56331104 95.75 318.600585938 95.75 c 4
 382.676731503 95.75 444.658764649 106.842867775 500.200195312 125.849609375 c 5
 509.185762903 105.36918944 509.509223559 75.8944011065 501.600585938 47.5498046875 c 5
 501.600585938 47.5498046875 411.10587185 26.5498046875 322.30078125 26.5498046875 c 4
 201.76795029 26.5498046875 76.900390625 56.3662524929 76.900390625 152.25 c 4
 76.900390625 200.979386104 108.81135857 253.319749964 142 292.91015625 c 5
 152.631395709 304.278674471 163.638746324 315.53195508 175 326.66015625 c 5
 245.547637853 437.765066563 367.163320999 519.849609375 465.900390625 519.849609375 c 4
 531.431318091 519.849609375 570.900390625 484.477246067 570.900390625 429.650390625 c 4
 570.900390625 313.683498745 437.449565911 214.449962953 274.200195312 226.349609375 c 4
 170.419735445 233.569090488 93.633171296 298.305633221 95.1005859375 377.25 c 4
 96.5860094526 460.003040764 163.283440714 506.450195312 233.700195312 506.450195312 c 4
 330.500111099 506.450195312 385.5 447.150390625 385.5 447.150390625 c 5
 330.5 411.950195312 l 4
 330.5 411.950195312 301.800132791 450.055100321 234.600585938 449.25 c 4
 199.004041282 448.823527042 161.673667827 425.903152921 161.30078125 384.150390625 c 4
 160.735409061 320.84467763 233.87338849 295.445733532 279.900390625 291.549804688 c 4
 387.070736003 282.478433092 504.100585938 338.916683244 504.100585938 418.650390625 c 4
 504.100585938 436.968984683 489.037890625 450.75 456.600585938 450.75 c 4
 373.673251588 450.75 276.553498628 377.979123282 224.953125 290 c 5
 215.570162676 280.33447076 206.892818421 270.526508269 199 260.622070312 c 5
 171.012379121 230.385876593 154.376583023 198.942089004 154 168.650390625 c 4
EndSplineSet
Colour: ff0000
EndChar

StartChar: thn_TT
Encoding: 286 1939 30
Width: 628
VWidth: -30
GlyphClass: 2
Flags: HW
AnchorPoint: "top_fili" 345.4 602.45 basechar 0
AnchorPoint: "bottom_fili" 335.4 -1.15039 basechar 0
LayerCount: 3
Fore
SplineSet
154 168.650390625 m 0
 153.322945599 114.18928518 227.56331104 95.75 318.600585938 95.75 c 0
 382.676731503 95.75 444.658764649 106.842867775 500.200195312 125.849609375 c 1
 509.185762903 105.36918944 509.509223559 75.8944011065 501.600585938 47.5498046875 c 1
 501.600585938 47.5498046875 411.10587185 26.5498046875 322.30078125 26.5498046875 c 0
 201.76795029 26.5498046875 76.900390625 56.3662524929 76.900390625 152.25 c 0
 76.900390625 200.979386104 110.772105693 253.319749964 146 292.91015625 c 1
 156.953559215 304.278674471 168.29446591 315.53195508 180 326.66015625 c 1
 249.335064063 437.765066563 368.860415139 519.849609375 465.900390625 519.849609375 c 0
 531.431318091 519.849609375 570.900390625 484.477246067 570.900390625 429.650390625 c 0
 570.900390625 315.394759634 432.501948434 217.625559619 263.200195312 229.349609375 c 0
 159.419735445 236.569090488 82.633171296 301.305633221 84.1005859375 380.25 c 0
 85.70390054 461.081533434 157.694793646 506.450195312 233.700195312 506.450195312 c 0
 330.500111099 506.450195312 385.5 447.150390625 385.5 447.150390625 c 1
 330.5 418.950195312 l 0
 330.5 418.950195312 300.603050724 449.904008317 230.600585938 449.25 c 4
 191.604635054 448.830078125 150.709277827 426.261785597 150.30078125 385.150390625 c 0
 149.735409061 323.211962995 222.87338849 298.361588733 268.900390625 294.549804688 c 0
 381.32886612 285.692547878 504.100585938 340.798666088 504.100585938 418.650390625 c 0
 504.100585938 436.968984683 489.037890625 450.75 456.600585938 450.75 c 0
 375.463198562 450.75 280.439729165 377.979123282 229.953125 290 c 1
 220.208627704 280.33447076 211.196936651 270.526508269 203 260.622070312 c 1
 172.524590599 230.385876593 154.410057069 198.942089004 154 168.650390625 c 0
EndSplineSet
Colour: ff00
EndChar

StartChar: thn_Y
Encoding: 287 1940 31
Width: 529
VWidth: -32
GlyphClass: 2
Flags: HW
AnchorPoint: "bottom_fili" 199.15 0.138672 basechar 0
AnchorPoint: "top_fili" 204.15 602.439 basechar 0
LayerCount: 3
Back
SplineSet
568.359375 263.18359375 m 1
 544.270507812 253.092773438 520.915039062 244.303710938 498.291015625 236.81640625 c 128
 475.666992188 229.329101562 451.334960938 224.284179688 425.29296875 221.6796875 c 1
 345.866210938 136.393554688 284.1796875 76.416015625 240.234375 41.748046875 c 128
 196.2890625 7.080078125 151.286132812 -21.5654296875 105.224609375 -44.189453125 c 128
 59.1630859375 -66.8134765625 25.0654296875 -78.125 2.9296875 -78.125 c 0
 -17.578125 -78.125 -32.958984375 -72.8349609375 -43.212890625 -62.255859375 c 128
 -53.466796875 -51.6767578125 -58.59375 -38.0859375 -58.59375 -21.484375 c 0
 -58.59375 8.7890625 -41.9921875 27.587890625 -8.7890625 34.912109375 c 128
 24.4140625 42.236328125 61.279296875 54.6875 101.806640625 72.265625 c 128
 142.333984375 89.84375 181.396484375 111.81640625 218.994140625 138.18359375 c 128
 256.591796875 164.55078125 292.317382812 195.475585938 326.171875 230.95703125 c 1
 310.546875 237.141601562 298.33984375 245.60546875 289.55078125 256.34765625 c 128
 280.76171875 267.08984375 276.3671875 279.459960938 276.3671875 293.45703125 c 0
 276.3671875 316.569335938 284.260742188 336.181640625 300.048828125 352.294921875 c 128
 315.836914062 368.408203125 337.077148438 376.46484375 363.76953125 376.46484375 c 0
 383.30078125 376.46484375 400.390625 371.418945312 415.0390625 361.328125 c 128
 429.6875 351.237304688 441.569335938 338.37890625 450.68359375 322.75390625 c 1
 475.422851562 324.70703125 496.907226562 329.508789062 515.13671875 337.158203125 c 128
 533.366210938 344.807617188 548.665039062 352.375976562 561.03515625 359.86328125 c 2
 596.6796875 381.34765625 l 2
 607.096679688 387.532226562 617.67578125 390.625 628.41796875 390.625 c 0
 641.438476562 390.625 650.715820312 385.661132812 656.25 375.732421875 c 128
 661.784179688 365.803710938 664.55078125 343.913085938 664.55078125 310.05859375 c 0
 664.55078125 270.99609375 656.819335938 231.689453125 641.357421875 192.138671875 c 128
 625.895507812 152.587890625 606.201171875 115.071289062 582.275390625 79.58984375 c 128
 558.349609375 44.1083984375 534.831054688 26.3671875 511.71875 26.3671875 c 0
 497.721679688 26.3671875 486.572265625 29.8662109375 478.271484375 36.865234375 c 128
 469.970703125 43.8642578125 465.8203125 53.22265625 465.8203125 64.94140625 c 0
 465.8203125 80.2412109375 471.354492188 94.23828125 482.421875 106.93359375 c 128
 493.489257812 119.62890625 509.846679688 141.682617188 531.494140625 173.095703125 c 128
 553.141601562 204.508789062 565.4296875 234.538085938 568.359375 263.18359375 c 1
EndSplineSet
Fore
SplineSet
13.0498046875 281.939453125 m 5
 -1.853515625 258.806640625 -2.7060546875 233.732421875 -1 218.0390625 c 5
 7.513671875 205.142578125 32.943359375 185.759765625 94.349609375 185.838867188 c 4
 235.951171875 186.020507812 495.590820312 386.733398438 550.650390625 446.838867188 c 5
 551.771484375 454.385742188 540.5703125 495.909179688 532.849609375 513.239257812 c 5
 510.150390625 516.239257812 l 5
 410.71875 413.1484375 205.176757812 257.796875 100 258.0390625 c 4
 64.06640625 258.122070312 32.318359375 271.607421875 13.0498046875 281.939453125 c 5
EndSplineSet
Colour: ff0000
EndChar

StartChar: thn_P
Encoding: 288 1941 32
Width: 529
VWidth: -32
GlyphClass: 2
Flags: HW
AnchorPoint: "bottom_fili" 199.15 0.138672 basechar 0
AnchorPoint: "top_fili" 204.15 602.439 basechar 0
LayerCount: 3
Back
Refer: 21 1930 N 1 0 0 1 0 0 1
Refer: 67 -1 N 1 0 0 1 95.2148 -150.391 0
Fore
SplineSet
13.0498046875 281.939453125 m 1
 -1.853515625 258.806640625 -2.7060546875 233.732421875 -1 218.0390625 c 1
 7.513671875 205.142578125 32.943359375 185.759765625 94.349609375 185.838867188 c 0
 235.951171875 186.020507812 495.590820312 386.733398438 550.650390625 446.838867188 c 1
 551.771484375 454.385742188 540.5703125 495.909179688 532.849609375 513.239257812 c 1
 510.150390625 516.239257812 l 1
 410.71875 413.1484375 205.176757812 257.796875 100 258.0390625 c 0
 64.06640625 258.122070312 32.318359375 271.607421875 13.0498046875 281.939453125 c 1
EndSplineSet
Colour: ff0000
EndChar

StartChar: thn_J
Encoding: 289 1942 33
Width: 529
VWidth: -32
GlyphClass: 2
Flags: HW
AnchorPoint: "bottom_fili" 199.15 0.138672 basechar 0
AnchorPoint: "top_fili" 204.15 602.439 basechar 0
LayerCount: 3
Back
SplineSet
260.25390625 185.546875 m 1
 274.250976562 181.315429688 290.690429688 179.19921875 309.5703125 179.19921875 c 0
 333.984375 179.19921875 354.817382812 185.546875 372.0703125 198.2421875 c 128
 389.323242188 210.9375 397.94921875 227.213867188 397.94921875 247.0703125 c 0
 397.94921875 257.487304688 395.751953125 266.032226562 391.357421875 272.705078125 c 128
 386.962890625 279.377929688 381.022460938 284.342773438 373.53515625 287.59765625 c 2
 360.3515625 293.45703125 l 2
 348.6328125 298.665039062 339.680664062 303.7109375 333.49609375 308.59375 c 128
 327.311523438 313.4765625 324.21875 321.125976562 324.21875 331.54296875 c 0
 324.21875 353.352539062 339.518554688 368.245117188 370.1171875 376.220703125 c 128
 400.715820312 384.196289062 422.200195312 392.08984375 434.5703125 399.90234375 c 2
 449.21875 409.1796875 l 2
 453.776367188 412.109375 458.415039062 414.55078125 463.134765625 416.50390625 c 128
 467.854492188 418.45703125 473.14453125 419.43359375 479.00390625 419.43359375 c 0
 490.72265625 419.43359375 500.325195312 415.690429688 507.8125 408.203125 c 128
 515.299804688 400.715820312 519.04296875 391.438476562 519.04296875 380.37109375 c 0
 519.04296875 370.280273438 514.973632812 361.409179688 506.8359375 353.759765625 c 128
 498.698242188 346.110351562 480.95703125 337.239257812 453.61328125 327.1484375 c 1
 462.727539062 323.893554688 472.004882812 314.697265625 481.4453125 299.560546875 c 128
 490.885742188 284.423828125 495.60546875 267.415039062 495.60546875 248.53515625 c 0
 495.60546875 201.008789062 474.934570312 162.516601562 433.59375 133.056640625 c 128
 392.252929688 103.596679688 342.122070312 88.8671875 283.203125 88.8671875 c 0
 256.510742188 88.8671875 233.235351562 90.6572265625 213.37890625 94.23828125 c 1
 181.15234375 76.9853515625 159.423828125 61.5234375 148.193359375 47.8515625 c 128
 136.962890625 34.1796875 131.34765625 20.3447265625 131.34765625 6.34765625 c 0
 131.34765625 -22.2978515625 141.276367188 -41.9111328125 161.1328125 -52.490234375 c 128
 180.989257812 -63.0693359375 215.657226562 -68.359375 265.13671875 -68.359375 c 0
 298.665039062 -68.359375 327.63671875 -67.626953125 352.05078125 -66.162109375 c 128
 376.46484375 -64.697265625 396.159179688 -62.6630859375 411.1328125 -60.05859375 c 0
 440.4296875 -54.8505859375 455.078125 -52.0830078125 455.078125 -51.7578125 c 1
 465.8203125 -51.7578125 474.528320312 -54.5244140625 481.201171875 -60.05859375 c 128
 487.874023438 -65.5927734375 491.2109375 -74.21875 491.2109375 -85.9375 c 0
 491.2109375 -108.3984375 471.19140625 -125.732421875 431.15234375 -137.939453125 c 128
 391.11328125 -150.146484375 335.612304688 -156.25 264.6484375 -156.25 c 0
 191.40625 -156.25 135.416992188 -144.124023438 96.6796875 -119.873046875 c 128
 57.9423828125 -95.6220703125 38.57421875 -60.8720703125 38.57421875 -15.625 c 0
 38.57421875 12.0439453125 46.5498046875 37.353515625 62.5 60.302734375 c 128
 78.4501953125 83.251953125 104.817382812 107.096679688 141.6015625 131.8359375 c 1
 133.7890625 142.578125 129.8828125 155.2734375 129.8828125 169.921875 c 0
 129.8828125 192.057617188 136.393554688 209.065429688 149.4140625 220.947265625 c 128
 162.434570312 232.829101562 180.500976562 238.76953125 203.61328125 238.76953125 c 0
 216.30859375 238.76953125 227.864257812 233.723632812 238.28125 223.6328125 c 128
 248.698242188 213.541992188 256.022460938 200.846679688 260.25390625 185.546875 c 1
198.2421875 405.2734375 m 1024
EndSplineSet
Fore
SplineSet
13.0498046875 281.939453125 m 1
 -1.853515625 258.806640625 -2.7060546875 233.732421875 -1 218.0390625 c 1
 7.513671875 205.142578125 32.943359375 185.759765625 94.349609375 185.838867188 c 0
 235.951171875 186.020507812 495.590820312 386.733398438 550.650390625 446.838867188 c 1
 551.771484375 454.385742188 540.5703125 495.909179688 532.849609375 513.239257812 c 1
 510.150390625 516.239257812 l 1
 410.71875 413.1484375 205.176757812 257.796875 100 258.0390625 c 0
 64.06640625 258.122070312 32.318359375 271.607421875 13.0498046875 281.939453125 c 1
EndSplineSet
Colour: ff0000
EndChar

StartChar: thn_C
Encoding: 290 1943 34
Width: 529
VWidth: -32
GlyphClass: 2
Flags: HW
AnchorPoint: "bottom_fili" 199.15 0.138672 basechar 0
AnchorPoint: "top_fili" 204.15 602.439 basechar 0
LayerCount: 3
Back
SplineSet
209.9609375 141.6015625 m 1
 206.706054688 138.671875 200.032226562 132.975585938 189.94140625 124.51171875 c 128
 179.850585938 116.047851562 174.8046875 108.88671875 174.8046875 103.02734375 c 0
 174.8046875 98.7958984375 183.430664062 88.8671875 200.68359375 73.2421875 c 128
 217.936523438 57.6171875 226.5625 41.015625 226.5625 23.4375 c 0
 226.5625 1.953125 216.633789062 -21.728515625 196.77734375 -47.607421875 c 128
 176.920898438 -73.486328125 145.751953125 -98.0634765625 103.271484375 -121.337890625 c 128
 60.791015625 -144.612304688 30.5986328125 -156.25 12.6953125 -156.25 c 0
 -7.8125 -156.25 -23.193359375 -151.774414062 -33.447265625 -142.822265625 c 128
 -43.701171875 -133.870117188 -48.828125 -121.09375 -48.828125 -104.4921875 c 0
 -48.828125 -75.5205078125 -31.5751953125 -56.4775390625 2.9296875 -47.36328125 c 128
 37.4345703125 -38.2490234375 65.9990234375 -27.5068359375 88.623046875 -15.13671875 c 128
 111.247070312 -2.7666015625 122.55859375 9.765625 122.55859375 22.4609375 c 0
 122.55859375 29.296875 115.153320312 40.1201171875 100.341796875 54.931640625 c 128
 85.5302734375 69.7431640625 78.125 82.3564453125 78.125 92.7734375 c 256
 78.125 103.190429688 81.8681640625 114.583007812 89.35546875 126.953125 c 128
 96.8427734375 139.323242188 110.3515625 155.680664062 129.8828125 176.025390625 c 128
 149.4140625 196.370117188 174.560546875 219.075195312 205.322265625 244.140625 c 128
 236.083984375 269.206054688 278.401367188 300.374023438 332.275390625 337.646484375 c 128
 386.149414062 374.918945312 444.254882812 412.59765625 506.591796875 450.68359375 c 128
 568.928710938 488.76953125 605.793945312 510.090820312 617.1875 514.6484375 c 128
 628.581054688 519.206054688 640.788085938 521.484375 653.80859375 521.484375 c 0
 667.155273438 521.484375 677.001953125 518.473632812 683.349609375 512.451171875 c 128
 689.697265625 506.428710938 692.87109375 498.372070312 692.87109375 488.28125 c 0
 692.87109375 471.6796875 677.897460938 454.915039062 647.94921875 437.98828125 c 2
 611.81640625 417.48046875 l 2
 585.124023438 402.180664062 554.6875 384.358398438 520.5078125 364.013671875 c 128
 486.328125 343.668945312 453.938476562 324.055664062 423.33984375 305.17578125 c 1
 448.73046875 300.29296875 469.319335938 287.59765625 485.107421875 267.08984375 c 128
 500.895507812 246.58203125 508.7890625 221.842773438 508.7890625 192.87109375 c 0
 508.7890625 154.78515625 492.1875 123.127929688 458.984375 97.900390625 c 128
 425.78125 72.6728515625 390.299804688 60.05859375 352.5390625 60.05859375 c 0
 319.010742188 60.05859375 290.283203125 66.7314453125 266.357421875 80.078125 c 128
 242.431640625 93.4248046875 223.6328125 113.932617188 209.9609375 141.6015625 c 1
290.52734375 196.2890625 m 1
 294.758789062 181.640625 301.513671875 169.108398438 310.791015625 158.69140625 c 128
 320.068359375 148.274414062 334.635742188 143.06640625 354.4921875 143.06640625 c 0
 370.768554688 143.06640625 385.090820312 147.94921875 397.4609375 157.71484375 c 128
 409.831054688 167.48046875 416.015625 180.338867188 416.015625 196.2890625 c 0
 416.015625 207.03125 412.272460938 216.227539062 404.78515625 223.876953125 c 128
 397.297851562 231.526367188 385.7421875 235.3515625 370.1171875 235.3515625 c 0
 346.028320312 235.3515625 319.499023438 222.331054688 290.52734375 196.2890625 c 1
344.7265625 478.515625 m 1024
EndSplineSet
Fore
SplineSet
13.0498046875 281.939453125 m 1
 -1.853515625 258.806640625 -2.7060546875 233.732421875 -1 218.0390625 c 1
 7.513671875 205.142578125 32.943359375 185.759765625 94.349609375 185.838867188 c 0
 235.951171875 186.020507812 495.590820312 386.733398438 550.650390625 446.838867188 c 1
 551.771484375 454.385742188 540.5703125 495.909179688 532.849609375 513.239257812 c 1
 510.150390625 516.239257812 l 1
 410.71875 413.1484375 205.176757812 257.796875 100 258.0390625 c 0
 64.06640625 258.122070312 32.318359375 271.607421875 13.0498046875 281.939453125 c 1
EndSplineSet
Colour: ff0000
EndChar

StartChar: uni0798
Encoding: 291 1944 35
Width: 529
VWidth: -32
GlyphClass: 2
Flags: HW
AnchorPoint: "bottom_fili" 199.15 0.138672 basechar 0
AnchorPoint: "top_fili" 204.15 602.439 basechar 0
LayerCount: 3
Back
Refer: 23 1932 N 1 0 0 1 -31.25 0 0
Refer: 68 -1 N 1 0 0 1 289.062 415.039 0
Fore
SplineSet
13.0498046875 281.939453125 m 1
 -1.853515625 258.806640625 -2.7060546875 233.732421875 -1 218.0390625 c 1
 7.513671875 205.142578125 32.943359375 185.759765625 94.349609375 185.838867188 c 0
 235.951171875 186.020507812 495.590820312 386.733398438 550.650390625 446.838867188 c 1
 551.771484375 454.385742188 540.5703125 495.909179688 532.849609375 513.239257812 c 1
 510.150390625 516.239257812 l 1
 410.71875 413.1484375 205.176757812 257.796875 100 258.0390625 c 0
 64.06640625 258.122070312 32.318359375 271.607421875 13.0498046875 281.939453125 c 1
EndSplineSet
Colour: ff0000
EndChar

StartChar: uni079A
Encoding: 293 1946 37
Width: 529
VWidth: -32
GlyphClass: 2
Flags: HW
AnchorPoint: "bottom_fili" 233.007 0.499023 basechar 0
AnchorPoint: "top_fili" 174.807 602.1 basechar 0
LayerCount: 3
Back
SplineSet
376.953125 434.326171875 m 128
 368.1640625 443.278320312 363.76953125 454.426757812 363.76953125 467.7734375 c 0
 363.76953125 483.073242188 369.140625 495.930664062 379.8828125 506.34765625 c 128
 390.625 516.764648438 402.995117188 521.97265625 416.9921875 521.97265625 c 0
 430.6640625 521.97265625 442.057617188 517.252929688 451.171875 507.8125 c 128
 460.286132812 498.372070312 464.84375 486.979492188 464.84375 473.6328125 c 0
 464.84375 459.309570312 459.47265625 446.940429688 448.73046875 436.5234375 c 128
 437.98828125 426.106445312 425.29296875 420.8984375 410.64453125 420.8984375 c 0
 396.97265625 420.8984375 385.7421875 425.374023438 376.953125 434.326171875 c 128
EndSplineSet
Refer: 11 1920 N 1 0 0 1 0 0 0
Fore
Refer: 67 -1 S 1 0 0 1 401 514 2
Refer: 11 1920 N 1 0 0 1 0 -10 2
Colour: ff00
EndChar

StartChar: uni079B
Encoding: 294 1947 38
Width: 529
VWidth: -32
GlyphClass: 2
Flags: HW
AnchorPoint: "bottom_fili" 199.15 0.138672 basechar 0
AnchorPoint: "top_fili" 204.15 602.439 basechar 0
LayerCount: 3
Back
SplineSet
457.51953125 443.115234375 m 128
 448.73046875 452.067382812 444.3359375 463.215820312 444.3359375 476.5625 c 0
 444.3359375 491.862304688 449.70703125 504.719726562 460.44921875 515.13671875 c 128
 471.19140625 525.553710938 483.561523438 530.76171875 497.55859375 530.76171875 c 0
 511.23046875 530.76171875 522.624023438 526.041992188 531.73828125 516.6015625 c 128
 540.852539062 507.161132812 545.41015625 495.768554688 545.41015625 482.421875 c 0
 545.41015625 468.098632812 540.0390625 455.729492188 529.296875 445.3125 c 128
 518.5546875 434.895507812 505.859375 429.6875 491.2109375 429.6875 c 0
 477.5390625 429.6875 466.30859375 434.163085938 457.51953125 443.115234375 c 128
EndSplineSet
Refer: 22 1931 N 1 0 0 1 0 0 1
Fore
SplineSet
13.0498046875 281.939453125 m 1
 -1.853515625 258.806640625 -2.7060546875 233.732421875 -1 218.0390625 c 1
 7.513671875 205.142578125 32.943359375 185.759765625 94.349609375 185.838867188 c 0
 235.951171875 186.020507812 495.590820312 386.733398438 550.650390625 446.838867188 c 1
 551.771484375 454.385742188 540.5703125 495.909179688 532.849609375 513.239257812 c 1
 510.150390625 516.239257812 l 1
 410.71875 413.1484375 205.176757812 257.796875 100 258.0390625 c 0
 64.06640625 258.122070312 32.318359375 271.607421875 13.0498046875 281.939453125 c 1
EndSplineSet
Colour: ff0000
EndChar

StartChar: uni079C
Encoding: 295 1948 39
Width: 529
VWidth: -32
GlyphClass: 2
Flags: HW
AnchorPoint: "bottom_fili" 199.15 0.138672 basechar 0
AnchorPoint: "top_fili" 204.15 602.439 basechar 0
LayerCount: 3
Back
SplineSet
473.14453125 443.115234375 m 128
 464.35546875 452.067382812 459.9609375 463.215820312 459.9609375 476.5625 c 0
 459.9609375 491.862304688 465.33203125 504.719726562 476.07421875 515.13671875 c 128
 486.81640625 525.553710938 499.186523438 530.76171875 513.18359375 530.76171875 c 0
 526.85546875 530.76171875 538.249023438 526.041992188 547.36328125 516.6015625 c 128
 556.477539062 507.161132812 561.03515625 495.768554688 561.03515625 482.421875 c 0
 561.03515625 468.098632812 555.6640625 455.729492188 544.921875 445.3125 c 128
 534.1796875 434.895507812 521.484375 429.6875 506.8359375 429.6875 c 0
 493.1640625 429.6875 481.93359375 434.163085938 473.14453125 443.115234375 c 128
EndSplineSet
Refer: 14 1923 N 1 0 0 1 0 0 1
Fore
SplineSet
13.0498046875 281.939453125 m 1
 -1.853515625 258.806640625 -2.7060546875 233.732421875 -1 218.0390625 c 1
 7.513671875 205.142578125 32.943359375 185.759765625 94.349609375 185.838867188 c 0
 235.951171875 186.020507812 495.590820312 386.733398438 550.650390625 446.838867188 c 1
 551.771484375 454.385742188 540.5703125 495.909179688 532.849609375 513.239257812 c 1
 510.150390625 516.239257812 l 1
 410.71875 413.1484375 205.176757812 257.796875 100 258.0390625 c 0
 64.06640625 258.122070312 32.318359375 271.607421875 13.0498046875 281.939453125 c 1
EndSplineSet
Colour: ff0000
EndChar

StartChar: uni079F
Encoding: 298 1951 42
Width: 996
VWidth: -24
GlyphClass: 2
Flags: HW
AnchorPoint: "bottom_fili" 563.007 0.499023 basechar 0
AnchorPoint: "top_fili" 544.807 602.1 basechar 0
LayerCount: 3
Back
SplineSet
537.59765625 346.435546875 m 128
 528.80859375 355.387695312 524.4140625 366.536132812 524.4140625 379.8828125 c 0
 524.4140625 395.182617188 529.78515625 408.040039062 540.52734375 418.45703125 c 128
 551.26953125 428.874023438 563.639648438 434.08203125 577.63671875 434.08203125 c 0
 591.30859375 434.08203125 602.702148438 429.362304688 611.81640625 419.921875 c 128
 620.930664062 410.481445312 625.48828125 399.088867188 625.48828125 385.7421875 c 0
 625.48828125 371.418945312 620.1171875 359.049804688 609.375 348.6328125 c 128
 598.6328125 338.215820312 585.9375 333.0078125 571.2890625 333.0078125 c 0
 557.6171875 333.0078125 546.38671875 337.483398438 537.59765625 346.435546875 c 128
EndSplineSet
Refer: 27 1936 N 1 0 0 1 0 0 1
Fore
Refer: 67 -1 S 1 0 0 1 562 455 2
Refer: 27 1936 N 1 0 0 1 0 0 2
Colour: ff00
EndChar

StartChar: uni07A1
Encoding: 300 1953 44
Width: 1021
VWidth: -30
GlyphClass: 2
Flags: HW
AnchorPoint: "top_fili" 441.807 602.1 basechar 0
AnchorPoint: "bottom_fili" 480.007 0.499023 basechar 0
LayerCount: 3
Back
SplineSet
451.66015625 443.115234375 m 128
 442.87109375 452.067382812 438.4765625 463.215820312 438.4765625 476.5625 c 0
 438.4765625 491.862304688 443.84765625 504.719726562 454.58984375 515.13671875 c 128
 465.33203125 525.553710938 477.702148438 530.76171875 491.69921875 530.76171875 c 0
 505.37109375 530.76171875 516.764648438 526.041992188 525.87890625 516.6015625 c 128
 534.993164062 507.161132812 539.55078125 495.768554688 539.55078125 482.421875 c 0
 539.55078125 468.098632812 534.1796875 455.729492188 523.4375 445.3125 c 128
 512.6953125 434.895507812 500 429.6875 485.3515625 429.6875 c 0
 471.6796875 429.6875 460.44921875 434.163085938 451.66015625 443.115234375 c 128
EndSplineSet
Refer: 23 1932 N 1 0 0 1 0 0 1
Fore
Refer: 27 1936 N 1 0 0 1 -83 -40 2
Refer: 68 -1 N 1 0 0 1 481 391.8 2
Colour: ff0000
EndChar

StartChar: uni07A3
Encoding: 302 1955 46
Width: 1021
VWidth: -30
GlyphClass: 2
Flags: HW
AnchorPoint: "top_fili" 441.807 602.1 basechar 0
AnchorPoint: "bottom_fili" 480.007 0.499023 basechar 0
LayerCount: 3
Back
SplineSet
381.34765625 443.115234375 m 128
 372.55859375 452.067382812 368.1640625 463.215820312 368.1640625 476.5625 c 0
 368.1640625 491.862304688 373.53515625 504.719726562 384.27734375 515.13671875 c 128
 395.01953125 525.553710938 407.389648438 530.76171875 421.38671875 530.76171875 c 0
 435.05859375 530.76171875 446.452148438 526.041992188 455.56640625 516.6015625 c 128
 464.680664062 507.161132812 469.23828125 495.768554688 469.23828125 482.421875 c 0
 469.23828125 468.098632812 463.8671875 455.729492188 453.125 445.3125 c 128
 442.3828125 434.895507812 429.6875 429.6875 415.0390625 429.6875 c 0
 401.3671875 429.6875 390.13671875 434.163085938 381.34765625 443.115234375 c 128
EndSplineSet
Refer: 18 1927 N 1 0 0 1 0 0 0
Fore
Refer: 27 1936 N 1 0 0 1 -83 -40 2
Refer: 68 -1 N 1 0 0 1 481 391.8 2
Colour: ff0000
EndChar

StartChar: uni07A6nsp
Encoding: 305 1958 49
Width: 1
VWidth: -65
GlyphClass: 4
Flags: HW
AnchorPoint: "top_fili" 0.0185547 517.402 mark 0
LayerCount: 3
Fore
SplineSet
-200.381835938 638.001953125 m 1
 -207.555664062 629.856445312 -209.90234375 618.272460938 -208.963867188 603 c 0
 -207.9609375 586.669921875 -195.184570312 566.516601562 -163.782226562 567.202148438 c 0
 -82.806640625 568.969726562 104.612304688 689.697265625 207.618164062 749.702148438 c 1
 207.618164062 749.702148438 208.818359375 776.501953125 199.518554688 800.801757812 c 1
 181.518554688 801.602539062 l 1
 83.40234375 740.455078125 -101.255859375 633.5703125 -200.381835938 638.001953125 c 1
EndSplineSet
Substitution2: "ccmp-1" thn_Abafili.nsp
EndChar

StartChar: uni07A7nsp
Encoding: 306 1959 50
Width: 1
VWidth: -59
GlyphClass: 4
Flags: HW
AnchorPoint: "top_fili" -0.182 389.702 mark 0
LayerCount: 3
Back
SplineSet
270.01953125 630.859375 m 128
 275.227539062 625 277.83203125 617.512695312 277.83203125 608.3984375 c 0
 277.83203125 582.03125 239.501953125 545.654296875 162.841796875 499.267578125 c 128
 86.181640625 452.880859375 30.9248046875 429.6875 -2.9296875 429.6875 c 0
 -15.625 429.6875 -25.87890625 432.780273438 -33.69140625 438.96484375 c 128
 -41.50390625 445.149414062 -45.41015625 453.450195312 -45.41015625 463.8671875 c 0
 -45.41015625 482.421875 -33.0400390625 496.58203125 -8.30078125 506.34765625 c 128
 16.4384765625 516.11328125 49.072265625 531.413085938 89.599609375 552.24609375 c 128
 130.126953125 573.079101562 161.865234375 592.854492188 184.814453125 611.572265625 c 128
 207.763671875 630.290039062 227.375976562 639.6484375 243.65234375 639.6484375 c 0
 256.022460938 639.6484375 264.811523438 636.71875 270.01953125 630.859375 c 128
-13.671875 656.25 m 2
 15.9501953125 669.596679688 42.96875 683.674804688 67.3828125 698.486328125 c 128
 91.796875 713.297851562 113.606445312 728.108398438 132.8125 742.919921875 c 128
 152.018554688 757.731445312 169.108398438 765.13671875 184.08203125 765.13671875 c 0
 196.452148438 765.13671875 205.159179688 762.288085938 210.205078125 756.591796875 c 128
 215.250976562 750.895507812 217.7734375 743.327148438 217.7734375 733.88671875 c 0
 217.7734375 707.844726562 179.524414062 671.630859375 103.02734375 625.244140625 c 128
 26.5302734375 578.857421875 -28.80859375 555.6640625 -62.98828125 555.6640625 c 0
 -76.0087890625 555.6640625 -86.181640625 558.59375 -93.505859375 564.453125 c 128
 -100.830078125 570.3125 -104.4921875 578.61328125 -104.4921875 589.35546875 c 0
 -104.4921875 605.95703125 -96.435546875 618.083007812 -80.322265625 625.732421875 c 128
 -64.208984375 633.381835938 -55.0126953125 637.6953125 -52.734375 638.671875 c 2
 -13.671875 656.25 l 2
EndSplineSet
Fore
Refer: 49 1958 S 0.8925 0 0 0.9875 31.05 -124.213 2
Refer: 49 1958 S 0.8925 0 0 0.9875 -3.7575 7.125 2
EndChar

StartChar: uni07A8nsp
Encoding: 307 1960 51
Width: -1
VWidth: -1
GlyphClass: 4
Flags: HW
AnchorPoint: "bottom_fili" 0.318 166.302 mark 0
LayerCount: 3
Back
SplineSet
281.494140625 -86.669921875 m 128
 286.865234375 -92.3662109375 289.55078125 -99.4462890625 289.55078125 -107.91015625 c 0
 289.55078125 -127.44140625 276.286132812 -147.541992188 249.755859375 -168.212890625 c 128
 223.225585938 -188.883789062 180.338867188 -215.657226562 121.09375 -248.53515625 c 128
 61.8486328125 -281.413085938 15.4619140625 -297.8515625 -18.06640625 -297.8515625 c 0
 -31.0869140625 -297.8515625 -41.8291015625 -294.840820312 -50.29296875 -288.818359375 c 128
 -58.7568359375 -282.795898438 -62.98828125 -274.088867188 -62.98828125 -262.6953125 c 0
 -62.98828125 -239.2578125 -46.0615234375 -223.388671875 -12.20703125 -215.087890625 c 128
 21.6474609375 -206.787109375 61.1162109375 -190.104492188 106.201171875 -165.0390625 c 128
 151.286132812 -139.973632812 182.6171875 -119.221679688 200.1953125 -102.783203125 c 128
 217.7734375 -86.3447265625 236.002929688 -78.125 254.8828125 -78.125 c 0
 267.252929688 -78.125 276.123046875 -80.9736328125 281.494140625 -86.669921875 c 128
EndSplineSet
Fore
Refer: 49 1958 N 1 0 0 1 5.5 -619.5 2
EndChar

StartChar: uni07A9nsp
Encoding: 308 1961 52
Width: 0
VWidth: 6
GlyphClass: 4
Flags: HW
AnchorPoint: "bottom_fili" -1.432 165.591 mark 0
LayerCount: 3
Back
SplineSet
374.51171875 -212.40234375 m 128
 379.719726562 -218.26171875 382.32421875 -225.749023438 382.32421875 -234.86328125 c 0
 382.32421875 -261.23046875 343.994140625 -297.607421875 267.333984375 -343.994140625 c 128
 190.673828125 -390.380859375 135.416992188 -413.57421875 101.5625 -413.57421875 c 0
 88.8671875 -413.57421875 78.61328125 -410.481445312 70.80078125 -404.296875 c 128
 62.98828125 -398.112304688 59.08203125 -389.811523438 59.08203125 -379.39453125 c 0
 59.08203125 -360.83984375 71.4521484375 -346.6796875 96.19140625 -336.9140625 c 128
 120.930664062 -327.1484375 153.564453125 -311.848632812 194.091796875 -291.015625 c 128
 234.619140625 -270.182617188 266.357421875 -250.407226562 289.306640625 -231.689453125 c 128
 312.255859375 -212.971679688 331.868164062 -203.61328125 348.14453125 -203.61328125 c 0
 360.514648438 -203.61328125 369.303710938 -206.54296875 374.51171875 -212.40234375 c 128
90.8203125 -187.01171875 m 2
 120.442382812 -173.665039062 147.4609375 -159.586914062 171.875 -144.775390625 c 128
 196.2890625 -129.963867188 218.098632812 -115.153320312 237.3046875 -100.341796875 c 128
 256.510742188 -85.5302734375 273.600585938 -78.125 288.57421875 -78.125 c 0
 300.944335938 -78.125 309.651367188 -80.9736328125 314.697265625 -86.669921875 c 128
 319.743164062 -92.3662109375 322.265625 -99.9345703125 322.265625 -109.375 c 0
 322.265625 -135.416992188 284.016601562 -171.630859375 207.51953125 -218.017578125 c 128
 131.022460938 -264.404296875 75.68359375 -287.59765625 41.50390625 -287.59765625 c 0
 28.4833984375 -287.59765625 18.310546875 -284.66796875 10.986328125 -278.80859375 c 128
 3.662109375 -272.94921875 0 -264.6484375 0 -253.90625 c 0
 0 -237.3046875 8.056640625 -225.178710938 24.169921875 -217.529296875 c 128
 40.283203125 -209.879882812 49.4794921875 -205.56640625 51.7578125 -204.58984375 c 2
 90.8203125 -187.01171875 l 2
EndSplineSet
Fore
Refer: 50 1959 N 1 0 0 1 2.8 -558.6 2
EndChar

StartChar: uni07AAnsp
Encoding: 309 1962 53
Width: 0
VWidth: 75
GlyphClass: 4
Flags: HW
AnchorPoint: "top_fili" 0.418945 517.292 mark 0
LayerCount: 3
Back
SplineSet
147.650390625 446.838867188 m 1
 149.0234375 452.112304688 135.305664062 481.12890625 125.849609375 493.239257812 c 1
 107.150390625 496.239257812 l 1
 78.62109375 442.935546875 53.2158203125 393.177734375 -31.9130859375 403.900390625 c 1
 -30.61328125 388.201171875 l 1
 -14.916015625 423 -10.55859375 463 -20 486 c 1
 -67.7880859375 494.161132812 -119.837890625 480.255859375 -120.913085938 439.400390625 c 0
 -121.921875 400.484375 -90.8408203125 333.365234375 8.38671875 333.201171875 c 0
 93.2412109375 333.060546875 135.86328125 396.102539062 147.650390625 446.838867188 c 1
-469.950195312 281.939453125 m 1
 -484.853515625 258.806640625 -485.706054688 233.732421875 -484 218.0390625 c 1
 -475.486328125 205.142578125 -450.056640625 185.759765625 -388.650390625 185.838867188 c 0
 -254.575195312 186.020507812 -84.482421875 326.733398438 -32.349609375 386.838867188 c 1
 -31.228515625 394.385742188 -52.4296875 425.909179688 -60.150390625 443.239257812 c 1
 -82.849609375 436.239257812 l 1
 -110.442382812 363.1484375 -284.393554688 257.795898438 -383 258.0390625 c 0
 -418.93359375 258.122070312 -450.681640625 271.607421875 -469.950195312 281.939453125 c 1
62 416 m 0
 64.130859375 378.193359375 78.166015625 301.591796875 176.186523438 299.500976562 c 0
 255.9296875 297.799804688 328.54296875 368.607421875 336.987304688 445.500976562 c 1
 335.50390625 461.974609375 312.301757812 493.904296875 292 513 c 5
 278.086914062 504.500976562 l 1
 268.774414062 453.688476562 225.739257812 367.900390625 181.38671875 367.900390625 c 0
 142.750976562 367.900390625 142.112304688 413.173828125 148 448 c 1
 140.077148438 453.9375 115.810546875 461.358398438 101 461.372070312 c 0
 97.1298828125 461.380859375 93.087890625 461.177734375 89.5869140625 460.900390625 c 1
 100.291015625 442.987304688 60.810546875 437.100585938 62 416 c 0
EndSplineSet
Fore
SplineSet
-60.9951171875 762.3046875 m 5
 -68.4034865913 771.133309793 -74.1051736357 791.510843558 -70 813 c 5
 -64.5615234375 820.8125 l 5
 -36.345703125 830.765641507 13.958030973 837.099622413 49 836.9140625 c 4
 122.109375 836.526921889 165.813650424 806.621305258 166.024414062 760.520507812 c 4
 166.51171875 653.93127429 48.4736328125 561.612435988 -101.159179688 561.149414062 c 5
 -116.51171875 570.874023438 -120.534179688 598.801757812 -114.514648438 623.59765625 c 5
 4.25 622.719726562 98.5640862433 686.97847266 98.4599609375 739.809570312 c 4
 98.4111328125 764.583984375 77.0018272071 779.46400702 38 779.669921875 c 4
 9.77809786091 779.818922814 -23.681640625 772.72881442 -60.9951171875 762.3046875 c 5
EndSplineSet
EndChar

StartChar: uni07ACnsp
Encoding: 311 1964 55
Width: 0
VWidth: 75
GlyphClass: 4
Flags: HW
AnchorPoint: "top_fili" -0.581055 517.292 mark 0
LayerCount: 3
Fore
SplineSet
83.888671875 634.162109375 m 5
 90.9794921875 625.077148438 95.95703125 604.510742188 91.0927734375 583.180664062 c 5
 85.3818359375 575.565429688 l 5
 56.80859375 565.999023438 6.298828125 561.0625 -28.7138671875 562.494140625 c 4
 -101.763671875 565.485351562 -144.328125 598.092773438 -142.854492188 645.981445312 c 4
 -139.625 750.918945312 -18.4404296875 837.612304688 131.114257812 832.770507812 c 5
 146.11328125 822.5078125 149.14453125 794.455078125 142.25 769.888671875 c 5
 23.5908203125 774.969726562 -72.939453125 714.090820312 -74.705078125 661.2890625 c 4
 -75.5341796875 636.529296875 -54.6640625 620.912109375 -15.6943359375 619.313476562 c 4
 12.50390625 618.157226562 46.208984375 624.465820312 83.888671875 634.162109375 c 5
EndSplineSet
EndChar

StartChar: uni07ADnsp
Encoding: 312 1965 56
Width: 0
VWidth: 68
GlyphClass: 4
Flags: HW
AnchorPoint: "top_fili" 0.475586 518.476 mark 0
LayerCount: 3
Back
SplineSet
97.65625 536.1328125 m 1
 106.770507812 528.971679688 116.943359375 523.762695312 128.173828125 520.5078125 c 128
 139.404296875 517.252929688 151.692382812 515.625 165.0390625 515.625 c 0
 171.875 515.625 179.931640625 516.438476562 189.208984375 518.06640625 c 128
 198.486328125 519.694335938 206.706054688 520.5078125 213.8671875 520.5078125 c 0
 226.5625 520.5078125 236.165039062 517.822265625 242.67578125 512.451171875 c 128
 249.186523438 507.080078125 252.44140625 495.442382812 252.44140625 477.5390625 c 0
 252.44140625 461.9140625 243.245117188 450.032226562 224.853515625 441.89453125 c 128
 206.461914062 433.756835938 180.827148438 429.6875 147.94921875 429.6875 c 0
 106.282226562 429.6875 71.2080078125 439.94140625 42.724609375 460.44921875 c 128
 14.2412109375 480.95703125 0 503.581054688 0 528.3203125 c 0
 0 548.828125 10.0908203125 569.3359375 30.2734375 589.84375 c 128
 50.4560546875 610.3515625 79.1015625 634.114257812 116.2109375 661.1328125 c 128
 153.3203125 688.151367188 186.03515625 701.66015625 214.35546875 701.66015625 c 0
 225.749023438 701.66015625 235.188476562 698.974609375 242.67578125 693.603515625 c 128
 250.163085938 688.232421875 253.90625 679.524414062 253.90625 667.48046875 c 0
 253.90625 660.319335938 252.116210938 654.052734375 248.53515625 648.681640625 c 128
 244.954101562 643.310546875 241.047851562 639.16015625 236.81640625 636.23046875 c 2
 180.6640625 602.5390625 l 2
 156.575195312 588.215820312 137.6953125 575.68359375 124.0234375 564.94140625 c 128
 110.3515625 554.19921875 101.5625 544.596679688 97.65625 536.1328125 c 1
385.7421875 536.1328125 m 1
 394.856445312 528.971679688 405.029296875 523.762695312 416.259765625 520.5078125 c 128
 427.490234375 517.252929688 439.778320312 515.625 453.125 515.625 c 0
 459.9609375 515.625 468.017578125 516.438476562 477.294921875 518.06640625 c 128
 486.572265625 519.694335938 494.791992188 520.5078125 501.953125 520.5078125 c 0
 514.6484375 520.5078125 524.250976562 517.822265625 530.76171875 512.451171875 c 128
 537.272460938 507.080078125 540.52734375 495.442382812 540.52734375 477.5390625 c 0
 540.52734375 461.9140625 531.331054688 450.032226562 512.939453125 441.89453125 c 128
 494.547851562 433.756835938 468.913085938 429.6875 436.03515625 429.6875 c 0
 394.368164062 429.6875 359.293945312 439.94140625 330.810546875 460.44921875 c 128
 302.327148438 480.95703125 288.0859375 503.581054688 288.0859375 528.3203125 c 0
 288.0859375 548.828125 298.176757812 569.3359375 318.359375 589.84375 c 128
 338.541992188 610.3515625 367.1875 634.114257812 404.296875 661.1328125 c 128
 441.40625 688.151367188 474.12109375 701.66015625 502.44140625 701.66015625 c 0
 513.834960938 701.66015625 523.274414062 698.974609375 530.76171875 693.603515625 c 128
 538.249023438 688.232421875 541.9921875 679.524414062 541.9921875 667.48046875 c 0
 541.9921875 660.319335938 540.202148438 654.052734375 536.62109375 648.681640625 c 128
 533.040039062 643.310546875 529.133789062 639.16015625 524.90234375 636.23046875 c 2
 468.75 602.5390625 l 2
 444.661132812 588.215820312 425.78125 575.68359375 412.109375 564.94140625 c 128
 398.4375 554.19921875 389.6484375 544.596679688 385.7421875 536.1328125 c 1
EndSplineSet
Fore
Refer: 55 1964 S 1 0 0 1 159.24 -3.4375 2
Refer: 55 1964 N 1 0 0 1 -127.56 -3.875 2
EndChar

StartChar: uni07AFnsp
Encoding: 314 1967 58
Width: 0
VWidth: 75
GlyphClass: 4
Flags: HW
AnchorPoint: "top_fili" -0.581055 517.292 mark 0
LayerCount: 3
Back
SplineSet
-226.950195312 281.939453125 m 5
 -241.853515625 258.806640625 -242.706054688 233.732421875 -241 218.0390625 c 5
 -232.486328125 205.142578125 -207.056640625 185.759765625 -145.650390625 185.838867188 c 4
 -4.048828125 186.020507812 255.590820312 386.733398438 310.650390625 446.838867188 c 5
 311.771484375 454.385742188 300.5703125 495.909179688 292.849609375 513.239257812 c 5
 270.150390625 516.239257812 l 5
 170.71875 413.1484375 -34.8232421875 257.796875 -140 258.0390625 c 4
 -175.93359375 258.122070312 -207.681640625 271.607421875 -226.950195312 281.939453125 c 5
EndSplineSet
Fore
SplineSet
101.2265625 866.358398438 m 0
 15.9697265625 868.299804688 -152.973632812 778.408203125 -153.108398438 682.1953125 c 0
 -153.174804688 634.836914062 -103.647460938 617.322265625 -34.66796875 628.328125 c 1
 -24.341796875 602.227539062 -42.81640625 566.947265625 -54.5244140625 553.233398438 c 5
 -136.74609375 529.755859375 -228.919775663 563.06529937 -228.640625 667.719726562 c 0
 -228.277018479 804.036910365 -34.2008607592 939.276255861 123.310546875 939.796875 c 0
 215.788085938 940.102539062 260.338867188 904.89453125 260.439453125 845.356445312 c 4
 260.594726562 753.690429688 143.06640625 678.0078125 89.3798828125 669.571289062 c 1
 65.5322265625 672.333984375 44.169921875 701.885742188 43.2763671875 736.124023438 c 1
 73.53515625 739.50390625 169.245117188 777.0078125 169.409179688 827.06640625 c 0
 169.501953125 855.43359375 145.611328125 865.34765625 101.2265625 866.358398438 c 0
EndSplineSet
EndChar

StartChar: uni07B0nsp
Encoding: 315 1968 59
Width: 0
VWidth: 75
GlyphClass: 4
Flags: HW
AnchorPoint: "top_fili" 0.418945 517.292 mark 0
LayerCount: 3
Back
SplineSet
34.1796875 462.40234375 m 128
 11.3935546875 484.211914062 0 512.858398438 0 548.33984375 c 0
 0 592.936523438 20.1826171875 633.30078125 60.546875 669.43359375 c 128
 100.911132812 705.56640625 147.624023438 723.6328125 200.68359375 723.6328125 c 0
 238.444335938 723.6328125 266.682617188 715.087890625 285.400390625 697.998046875 c 128
 304.118164062 680.908203125 313.4765625 655.76171875 313.4765625 622.55859375 c 0
 313.4765625 569.499023438 294.270507812 524.088867188 255.859375 486.328125 c 128
 217.448242188 448.567382812 173.502929688 429.6875 124.0234375 429.6875 c 0
 86.9140625 429.6875 56.9658203125 440.592773438 34.1796875 462.40234375 c 128
214.84375 633.30078125 m 128
 207.356445312 641.438476562 198.567382812 645.5078125 188.4765625 645.5078125 c 0
 157.877929688 645.5078125 133.463867188 636.71875 115.234375 619.140625 c 128
 97.0048828125 601.5625 87.890625 579.426757812 87.890625 552.734375 c 0
 87.890625 536.1328125 91.3896484375 524.658203125 98.388671875 518.310546875 c 128
 105.387695312 511.962890625 116.047851562 508.7890625 130.37109375 508.7890625 c 0
 155.76171875 508.7890625 178.059570312 518.229492188 197.265625 537.109375 c 128
 216.471679688 555.989257812 226.07421875 578.61328125 226.07421875 604.98046875 c 0
 226.07421875 615.72265625 222.331054688 625.163085938 214.84375 633.30078125 c 128
EndSplineSet
Fore
SplineSet
26.7919921875 749.094726562 m 0
 -26.933863791 748.966940268 -68.534414543 709.28692476 -68.705078125 669.2890625 c 0
 -68.8250931995 642.216541971 -49.3964000345 619.276983531 -1 619.716796875 c 0
 56.73389765 620.219212018 91.4727837339 664.947298947 92 697 c 4
 92.5524310636 734.149216631 63.3560025794 749.188082762 26.7919921875 749.094726562 c 0
-19.7138671875 554.494140625 m 0
 -109.421194563 554.166138154 -136.047065987 607.384763059 -135.854492188 652.981445312 c 0
 -135.495967783 737.549312881 -61.7302290206 810.467946392 40.1142578125 810.770507812 c 0
 110.268953385 810.978924635 162.381007489 780.362734672 162.641601562 711.358398438 c 0
 162.951114611 628.690960909 85.1157090804 554.877435514 -19.7138671875 554.494140625 c 0
EndSplineSet
EndChar

StartChar: uni07B1
Encoding: 316 1969 60
Width: 996
VWidth: -30
GlyphClass: 2
Flags: HW
AnchorPoint: "top_fili" 340.807 598.1 basechar 0
AnchorPoint: "bottom_fili" 519.007 63.499 basechar 0
LayerCount: 3
Back
SplineSet
401.3671875 358.88671875 m 128
 429.362304688 337.727539062 443.359375 310.05859375 443.359375 275.87890625 c 0
 443.359375 233.88671875 424.072265625 194.905273438 385.498046875 158.935546875 c 128
 346.923828125 122.965820312 292.561523438 86.5068359375 222.412109375 49.560546875 c 128
 152.262695312 12.6142578125 117.1875 -17.9033203125 117.1875 -41.9921875 c 0
 117.1875 -61.8486328125 126.301757812 -75.68359375 144.53125 -83.49609375 c 128
 162.760742188 -91.30859375 189.94140625 -95.21484375 226.07421875 -95.21484375 c 0
 253.41796875 -95.21484375 276.123046875 -91.3896484375 294.189453125 -83.740234375 c 128
 312.255859375 -76.0908203125 328.450195312 -67.3828125 342.7734375 -57.6171875 c 128
 357.096679688 -47.8515625 369.62890625 -42.96875 380.37109375 -42.96875 c 0
 391.438476562 -42.96875 400.227539062 -46.142578125 406.73828125 -52.490234375 c 128
 413.249023438 -58.837890625 416.50390625 -67.87109375 416.50390625 -79.58984375 c 0
 416.50390625 -103.678710938 397.216796875 -125.732421875 358.642578125 -145.751953125 c 128
 320.068359375 -165.771484375 274.088867188 -175.78125 220.703125 -175.78125 c 0
 164.0625 -175.78125 118.000976562 -164.306640625 82.51953125 -141.357421875 c 128
 47.0380859375 -118.408203125 29.296875 -86.9140625 29.296875 -46.875 c 0
 29.296875 -4.5576171875 62.8251953125 36.4580078125 129.8828125 76.171875 c 128
 196.940429688 115.885742188 232.91015625 137.20703125 237.79296875 140.13671875 c 1
 196.125976562 148.600585938 165.608398438 162.272460938 146.240234375 181.15234375 c 128
 126.872070312 200.032226562 117.1875 223.958007812 117.1875 252.9296875 c 0
 117.1875 291.015625 135.905273438 323.486328125 173.33984375 350.341796875 c 128
 210.774414062 377.197265625 252.766601562 390.625 299.31640625 390.625 c 0
 339.35546875 390.625 373.372070312 380.045898438 401.3671875 358.88671875 c 128
237.548828125 292.96875 m 128
 218.831054688 281.575195312 209.47265625 267.741210938 209.47265625 251.46484375 c 0
 209.47265625 237.141601562 219.157226562 226.237304688 238.525390625 218.75 c 128
 257.893554688 211.262695312 286.784179688 207.03125 325.1953125 206.0546875 c 1
 334.309570312 215.168945312 340.8203125 224.690429688 344.7265625 234.619140625 c 128
 348.6328125 244.547851562 350.5859375 256.8359375 350.5859375 271.484375 c 0
 350.5859375 281.25 346.028320312 290.120117188 336.9140625 298.095703125 c 128
 327.799804688 306.071289062 313.96484375 310.05859375 295.41015625 310.05859375 c 0
 275.553710938 310.05859375 256.266601562 304.362304688 237.548828125 292.96875 c 128
EndSplineSet
Fore
Refer: 68 -1 N 1 0 0 1 415 371.8 2
Refer: 27 1936 N 1 0 0 1 0 -22 2
EndChar

StartChar: quoteleft
Encoding: 317 8216 61
Width: 0
VWidth: 1100
GlyphClass: 2
Flags: HW
LayerCount: 3
Back
SplineSet
73.974609375 528.3203125 m 128
 62.0927734375 541.015625 56.15234375 557.942382812 56.15234375 579.1015625 c 0
 56.15234375 598.958007812 65.3486328125 624.755859375 83.740234375 656.494140625 c 128
 102.131835938 688.232421875 122.721679688 715.739257812 145.5078125 739.013671875 c 128
 168.293945312 762.288085938 186.5234375 773.92578125 200.1953125 773.92578125 c 0
 208.0078125 773.92578125 214.030273438 771.647460938 218.26171875 767.08984375 c 128
 222.493164062 762.532226562 224.609375 757.487304688 224.609375 751.953125 c 0
 224.609375 745.1171875 222.004882812 739.013671875 216.796875 733.642578125 c 128
 211.588867188 728.271484375 201.252929688 717.7734375 185.791015625 702.1484375 c 128
 170.329101562 686.5234375 158.854492188 669.43359375 151.3671875 650.87890625 c 1
 167.96875 649.90234375 181.396484375 643.798828125 191.650390625 632.568359375 c 128
 201.904296875 621.337890625 207.03125 607.91015625 207.03125 592.28515625 c 0
 207.03125 570.80078125 198.161132812 551.594726562 180.419921875 534.66796875 c 128
 162.678710938 517.741210938 142.741210938 509.27734375 120.60546875 509.27734375 c 0
 101.399414062 509.27734375 85.8564453125 515.625 73.974609375 528.3203125 c 128
EndSplineSet
EndChar

StartChar: quoteright
Encoding: 318 8217 62
Width: 0
VWidth: 1100
GlyphClass: 2
Flags: HW
LayerCount: 3
Back
SplineSet
289.794921875 754.8828125 m 128
 301.676757812 742.1875 307.6171875 725.260742188 307.6171875 704.1015625 c 0
 307.6171875 684.245117188 298.420898438 658.447265625 280.029296875 626.708984375 c 128
 261.637695312 594.970703125 241.047851562 567.463867188 218.26171875 544.189453125 c 128
 195.475585938 520.915039062 177.24609375 509.27734375 163.57421875 509.27734375 c 0
 155.76171875 509.27734375 149.739257812 511.555664062 145.5078125 516.11328125 c 128
 141.276367188 520.670898438 139.16015625 525.715820312 139.16015625 531.25 c 0
 139.16015625 538.0859375 141.764648438 544.189453125 146.97265625 549.560546875 c 128
 152.180664062 554.931640625 162.516601562 565.4296875 177.978515625 581.0546875 c 128
 193.440429688 596.6796875 204.915039062 613.76953125 212.40234375 632.32421875 c 1
 195.80078125 633.30078125 182.373046875 639.404296875 172.119140625 650.634765625 c 128
 161.865234375 661.865234375 156.73828125 675.29296875 156.73828125 690.91796875 c 0
 156.73828125 712.40234375 165.608398438 731.608398438 183.349609375 748.53515625 c 128
 201.090820312 765.461914062 221.028320312 773.92578125 243.1640625 773.92578125 c 0
 262.370117188 773.92578125 277.913085938 767.578125 289.794921875 754.8828125 c 128
EndSplineSet
EndChar

StartChar: quotedblleft
Encoding: 319 8220 63
Width: 0
VWidth: 1100
GlyphClass: 2
Flags: HW
LayerCount: 3
Back
SplineSet
73.974609375 528.3203125 m 128
 62.0927734375 541.015625 56.15234375 557.942382812 56.15234375 579.1015625 c 0
 56.15234375 598.958007812 65.3486328125 624.755859375 83.740234375 656.494140625 c 128
 102.131835938 688.232421875 122.721679688 715.739257812 145.5078125 739.013671875 c 128
 168.293945312 762.288085938 186.5234375 773.92578125 200.1953125 773.92578125 c 0
 208.0078125 773.92578125 214.030273438 771.647460938 218.26171875 767.08984375 c 128
 222.493164062 762.532226562 224.609375 757.487304688 224.609375 751.953125 c 0
 224.609375 745.1171875 222.004882812 739.013671875 216.796875 733.642578125 c 128
 211.588867188 728.271484375 201.252929688 717.7734375 185.791015625 702.1484375 c 128
 170.329101562 686.5234375 158.854492188 669.43359375 151.3671875 650.87890625 c 1
 167.96875 649.90234375 181.396484375 643.798828125 191.650390625 632.568359375 c 128
 201.904296875 621.337890625 207.03125 607.91015625 207.03125 592.28515625 c 0
 207.03125 570.80078125 198.161132812 551.594726562 180.419921875 534.66796875 c 128
 162.678710938 517.741210938 142.741210938 509.27734375 120.60546875 509.27734375 c 0
 101.399414062 509.27734375 85.8564453125 515.625 73.974609375 528.3203125 c 128
293.701171875 528.3203125 m 128
 281.819335938 541.015625 275.87890625 557.942382812 275.87890625 579.1015625 c 0
 275.87890625 598.958007812 285.075195312 624.755859375 303.466796875 656.494140625 c 128
 321.858398438 688.232421875 342.448242188 715.739257812 365.234375 739.013671875 c 128
 388.020507812 762.288085938 406.25 773.92578125 419.921875 773.92578125 c 0
 427.734375 773.92578125 433.756835938 771.647460938 437.98828125 767.08984375 c 128
 442.219726562 762.532226562 444.3359375 757.487304688 444.3359375 751.953125 c 0
 444.3359375 745.1171875 441.731445312 739.013671875 436.5234375 733.642578125 c 128
 431.315429688 728.271484375 420.979492188 717.7734375 405.517578125 702.1484375 c 128
 390.055664062 686.5234375 378.581054688 669.43359375 371.09375 650.87890625 c 1
 387.6953125 649.90234375 401.123046875 643.798828125 411.376953125 632.568359375 c 128
 421.630859375 621.337890625 426.7578125 607.91015625 426.7578125 592.28515625 c 0
 426.7578125 570.80078125 417.887695312 551.594726562 400.146484375 534.66796875 c 128
 382.405273438 517.741210938 362.467773438 509.27734375 340.33203125 509.27734375 c 0
 321.125976562 509.27734375 305.583007812 515.625 293.701171875 528.3203125 c 128
EndSplineSet
EndChar

StartChar: quotedblright
Encoding: 320 8221 64
Width: 0
VWidth: 1100
GlyphClass: 2
Flags: HW
LayerCount: 3
Back
SplineSet
289.794921875 754.8828125 m 128
 301.676757812 742.1875 307.6171875 725.260742188 307.6171875 704.1015625 c 0
 307.6171875 684.245117188 298.420898438 658.447265625 280.029296875 626.708984375 c 128
 261.637695312 594.970703125 241.047851562 567.463867188 218.26171875 544.189453125 c 128
 195.475585938 520.915039062 177.24609375 509.27734375 163.57421875 509.27734375 c 0
 155.76171875 509.27734375 149.739257812 511.555664062 145.5078125 516.11328125 c 128
 141.276367188 520.670898438 139.16015625 525.715820312 139.16015625 531.25 c 0
 139.16015625 538.0859375 141.764648438 544.189453125 146.97265625 549.560546875 c 128
 152.180664062 554.931640625 162.516601562 565.4296875 177.978515625 581.0546875 c 128
 193.440429688 596.6796875 204.915039062 613.76953125 212.40234375 632.32421875 c 1
 195.80078125 633.30078125 182.373046875 639.404296875 172.119140625 650.634765625 c 128
 161.865234375 661.865234375 156.73828125 675.29296875 156.73828125 690.91796875 c 0
 156.73828125 712.40234375 165.608398438 731.608398438 183.349609375 748.53515625 c 128
 201.090820312 765.461914062 221.028320312 773.92578125 243.1640625 773.92578125 c 0
 262.370117188 773.92578125 277.913085938 767.578125 289.794921875 754.8828125 c 128
509.521484375 754.8828125 m 128
 521.403320312 742.1875 527.34375 725.260742188 527.34375 704.1015625 c 0
 527.34375 684.245117188 518.147460938 658.447265625 499.755859375 626.708984375 c 128
 481.364257812 594.970703125 460.774414062 567.463867188 437.98828125 544.189453125 c 128
 415.202148438 520.915039062 396.97265625 509.27734375 383.30078125 509.27734375 c 0
 375.48828125 509.27734375 369.465820312 511.555664062 365.234375 516.11328125 c 128
 361.002929688 520.670898438 358.88671875 525.715820312 358.88671875 531.25 c 0
 358.88671875 538.0859375 361.491210938 544.189453125 366.69921875 549.560546875 c 128
 371.907226562 554.931640625 382.243164062 565.4296875 397.705078125 581.0546875 c 128
 413.166992188 596.6796875 424.641601562 613.76953125 432.12890625 632.32421875 c 1
 415.52734375 633.30078125 402.099609375 639.404296875 391.845703125 650.634765625 c 128
 381.591796875 661.865234375 376.46484375 675.29296875 376.46484375 690.91796875 c 0
 376.46484375 712.40234375 385.334960938 731.608398438 403.076171875 748.53515625 c 128
 420.817382812 765.461914062 440.754882812 773.92578125 462.890625 773.92578125 c 0
 482.096679688 773.92578125 497.639648438 767.578125 509.521484375 754.8828125 c 128
EndSplineSet
EndChar

StartChar: uni25CC
Encoding: 321 9676 65
Width: 524
VWidth: 1075
GlyphClass: 2
Flags: HW
LayerCount: 3
Back
SplineSet
239.2578125 476.806640625 m 128
 243.815429688 481.852539062 249.348632812 484.375 255.859375 484.375 c 256
 262.370117188 484.375 268.06640625 481.852539062 272.94921875 476.806640625 c 128
 277.83203125 471.760742188 280.2734375 466.145507812 280.2734375 459.9609375 c 256
 280.2734375 453.776367188 277.83203125 448.2421875 272.94921875 443.359375 c 128
 268.06640625 438.4765625 262.370117188 436.03515625 255.859375 436.03515625 c 256
 249.348632812 436.03515625 243.815429688 438.4765625 239.2578125 443.359375 c 128
 234.700195312 448.2421875 232.421875 453.776367188 232.421875 459.9609375 c 256
 232.421875 466.145507812 234.700195312 471.760742188 239.2578125 476.806640625 c 128
152.83203125 457.51953125 m 128
 157.71484375 462.40234375 163.249023438 464.84375 169.43359375 464.84375 c 256
 175.618164062 464.84375 181.15234375 462.40234375 186.03515625 457.51953125 c 128
 190.91796875 452.63671875 193.359375 447.102539062 193.359375 440.91796875 c 256
 193.359375 434.733398438 190.91796875 429.19921875 186.03515625 424.31640625 c 128
 181.15234375 419.43359375 175.618164062 416.9921875 169.43359375 416.9921875 c 256
 163.249023438 416.9921875 157.71484375 419.43359375 152.83203125 424.31640625 c 128
 147.94921875 429.19921875 145.5078125 434.733398438 145.5078125 440.91796875 c 256
 145.5078125 447.102539062 147.94921875 452.63671875 152.83203125 457.51953125 c 128
329.1015625 455.56640625 m 128
 333.984375 460.124023438 339.518554688 462.40234375 345.703125 462.40234375 c 256
 351.887695312 462.40234375 357.421875 460.124023438 362.3046875 455.56640625 c 128
 367.1875 451.008789062 369.62890625 445.475585938 369.62890625 438.96484375 c 256
 369.62890625 432.454101562 367.1875 426.838867188 362.3046875 422.119140625 c 128
 357.421875 417.399414062 351.887695312 415.0390625 345.703125 415.0390625 c 256
 339.518554688 415.0390625 333.984375 417.48046875 329.1015625 422.36328125 c 128
 324.21875 427.24609375 321.77734375 432.780273438 321.77734375 438.96484375 c 0
 321.77734375 445.475585938 324.21875 451.008789062 329.1015625 455.56640625 c 128
86.669921875 410.64453125 m 128
 91.3896484375 415.202148438 97.0048828125 417.48046875 103.515625 417.48046875 c 256
 110.026367188 417.48046875 115.559570312 415.202148438 120.1171875 410.64453125 c 128
 124.674804688 406.086914062 126.953125 400.553710938 126.953125 394.04296875 c 256
 126.953125 387.532226562 124.674804688 381.916992188 120.1171875 377.197265625 c 128
 115.559570312 372.477539062 110.026367188 370.1171875 103.515625 370.1171875 c 0
 97.3310546875 370.1171875 91.796875 372.477539062 86.9140625 377.197265625 c 128
 82.03125 381.916992188 79.58984375 387.532226562 79.58984375 394.04296875 c 256
 79.58984375 400.553710938 81.9501953125 406.086914062 86.669921875 410.64453125 c 128
402.099609375 402.34375 m 128
 406.819335938 407.2265625 412.434570312 409.66796875 418.9453125 409.66796875 c 256
 425.456054688 409.66796875 430.989257812 407.2265625 435.546875 402.34375 c 128
 440.104492188 397.4609375 442.3828125 391.926757812 442.3828125 385.7421875 c 256
 442.3828125 379.557617188 440.104492188 374.0234375 435.546875 369.140625 c 128
 430.989257812 364.2578125 425.456054688 361.81640625 418.9453125 361.81640625 c 256
 412.434570312 361.81640625 406.819335938 364.2578125 402.099609375 369.140625 c 128
 397.379882812 374.0234375 395.01953125 379.557617188 395.01953125 385.7421875 c 256
 395.01953125 391.926757812 397.379882812 397.4609375 402.099609375 402.34375 c 128
39.0625 341.796875 m 128
 43.6201171875 346.6796875 49.1533203125 349.12109375 55.6640625 349.12109375 c 256
 62.1748046875 349.12109375 67.87109375 346.6796875 72.75390625 341.796875 c 128
 77.63671875 336.9140625 80.078125 331.379882812 80.078125 325.1953125 c 256
 80.078125 319.010742188 77.63671875 313.4765625 72.75390625 308.59375 c 128
 67.87109375 303.7109375 62.1748046875 301.26953125 55.6640625 301.26953125 c 256
 49.1533203125 301.26953125 43.6201171875 303.7109375 39.0625 308.59375 c 128
 34.5048828125 313.4765625 32.2265625 319.010742188 32.2265625 325.1953125 c 256
 32.2265625 331.379882812 34.5048828125 336.9140625 39.0625 341.796875 c 128
444.580078125 332.51953125 m 128
 449.299804688 337.077148438 454.915039062 339.35546875 461.42578125 339.35546875 c 256
 467.936523438 339.35546875 473.469726562 337.077148438 478.02734375 332.51953125 c 128
 482.584960938 327.961914062 484.86328125 322.428710938 484.86328125 315.91796875 c 256
 484.86328125 309.407226562 482.584960938 303.791992188 478.02734375 299.072265625 c 128
 473.469726562 294.352539062 467.936523438 291.9921875 461.42578125 291.9921875 c 256
 454.915039062 291.9921875 449.299804688 294.352539062 444.580078125 299.072265625 c 128
 439.860351562 303.791992188 437.5 309.407226562 437.5 315.91796875 c 256
 437.5 322.428710938 439.860351562 327.961914062 444.580078125 332.51953125 c 128
456.0546875 258.30078125 m 128
 460.9375 263.18359375 466.471679688 265.625 472.65625 265.625 c 256
 478.840820312 265.625 484.375 263.18359375 489.2578125 258.30078125 c 128
 494.140625 253.41796875 496.58203125 247.883789062 496.58203125 241.69921875 c 256
 496.58203125 235.514648438 494.140625 229.98046875 489.2578125 225.09765625 c 128
 484.375 220.21484375 478.840820312 217.7734375 472.65625 217.7734375 c 256
 466.471679688 217.7734375 460.9375 220.21484375 456.0546875 225.09765625 c 128
 451.171875 229.98046875 448.73046875 235.514648438 448.73046875 241.69921875 c 256
 448.73046875 247.883789062 451.171875 253.41796875 456.0546875 258.30078125 c 128
21.240234375 258.30078125 m 128
 25.9599609375 263.18359375 31.5751953125 265.625 38.0859375 265.625 c 256
 44.5966796875 265.625 50.1298828125 263.18359375 54.6875 258.30078125 c 128
 59.2451171875 253.41796875 61.5234375 247.883789062 61.5234375 241.69921875 c 256
 61.5234375 235.514648438 59.2451171875 229.98046875 54.6875 225.09765625 c 128
 50.1298828125 220.21484375 44.5966796875 217.7734375 38.0859375 217.7734375 c 256
 31.5751953125 217.7734375 25.9599609375 220.21484375 21.240234375 225.09765625 c 128
 16.5205078125 229.98046875 14.16015625 235.514648438 14.16015625 241.69921875 c 256
 14.16015625 247.883789062 16.5205078125 253.41796875 21.240234375 258.30078125 c 128
439.453125 173.828125 m 128
 444.010742188 178.385742188 449.543945312 180.6640625 456.0546875 180.6640625 c 256
 462.565429688 180.6640625 468.180664062 178.385742188 472.900390625 173.828125 c 128
 477.620117188 169.270507812 479.98046875 163.737304688 479.98046875 157.2265625 c 256
 479.98046875 150.715820312 477.620117188 145.100585938 472.900390625 140.380859375 c 128
 468.180664062 135.661132812 462.565429688 133.30078125 456.0546875 133.30078125 c 256
 449.543945312 133.30078125 444.010742188 135.661132812 439.453125 140.380859375 c 128
 434.895507812 145.100585938 432.6171875 150.715820312 432.6171875 157.2265625 c 256
 432.6171875 163.737304688 434.895507812 169.270507812 439.453125 173.828125 c 128
43.212890625 165.771484375 m 128
 47.9326171875 170.491210938 53.5478515625 172.8515625 60.05859375 172.8515625 c 256
 66.5693359375 172.8515625 72.1025390625 170.491210938 76.66015625 165.771484375 c 128
 81.2177734375 161.051757812 83.49609375 155.436523438 83.49609375 148.92578125 c 256
 83.49609375 142.415039062 81.2177734375 136.881835938 76.66015625 132.32421875 c 128
 72.1025390625 127.766601562 66.5693359375 125.48828125 60.05859375 125.48828125 c 256
 53.5478515625 125.48828125 47.9326171875 127.766601562 43.212890625 132.32421875 c 128
 38.4931640625 136.881835938 36.1328125 142.415039062 36.1328125 148.92578125 c 256
 36.1328125 155.436523438 38.4931640625 161.051757812 43.212890625 165.771484375 c 128
393.5546875 105.224609375 m 128
 398.4375 109.944335938 403.971679688 112.3046875 410.15625 112.3046875 c 256
 416.340820312 112.3046875 421.875 109.944335938 426.7578125 105.224609375 c 128
 431.640625 100.504882812 434.08203125 94.8896484375 434.08203125 88.37890625 c 256
 434.08203125 81.8681640625 431.640625 76.3349609375 426.7578125 71.77734375 c 128
 421.875 67.2197265625 416.340820312 64.94140625 410.15625 64.94140625 c 256
 403.971679688 64.94140625 398.4375 67.2197265625 393.5546875 71.77734375 c 128
 388.671875 76.3349609375 386.23046875 81.8681640625 386.23046875 88.37890625 c 256
 386.23046875 94.8896484375 388.671875 100.504882812 393.5546875 105.224609375 c 128
94.23828125 96.6796875 m 128
 99.12109375 101.5625 104.655273438 104.00390625 110.83984375 104.00390625 c 256
 117.024414062 104.00390625 122.55859375 101.5625 127.44140625 96.6796875 c 128
 132.32421875 91.796875 134.765625 86.2626953125 134.765625 80.078125 c 256
 134.765625 73.8935546875 132.32421875 68.359375 127.44140625 63.4765625 c 128
 122.55859375 58.59375 117.024414062 56.15234375 110.83984375 56.15234375 c 256
 104.655273438 56.15234375 99.12109375 58.59375 94.23828125 63.4765625 c 128
 89.35546875 68.359375 86.9140625 73.8935546875 86.9140625 80.078125 c 256
 86.9140625 86.2626953125 89.35546875 91.796875 94.23828125 96.6796875 c 128
325.927734375 58.10546875 m 128
 330.647460938 62.98828125 336.262695312 65.4296875 342.7734375 65.4296875 c 256
 349.284179688 65.4296875 354.899414062 62.98828125 359.619140625 58.10546875 c 128
 364.338867188 53.22265625 366.69921875 47.6884765625 366.69921875 41.50390625 c 256
 366.69921875 35.3193359375 364.338867188 29.78515625 359.619140625 24.90234375 c 128
 354.899414062 20.01953125 349.284179688 17.578125 342.7734375 17.578125 c 0
 336.588867188 17.578125 331.0546875 20.01953125 326.171875 24.90234375 c 128
 321.2890625 29.78515625 318.84765625 35.3193359375 318.84765625 41.50390625 c 256
 318.84765625 47.6884765625 321.208007812 53.22265625 325.927734375 58.10546875 c 128
162.59765625 54.19921875 m 128
 167.48046875 58.7568359375 173.176757812 61.03515625 179.6875 61.03515625 c 256
 186.198242188 61.03515625 191.731445312 58.7568359375 196.2890625 54.19921875 c 128
 200.846679688 49.6416015625 203.125 44.1083984375 203.125 37.59765625 c 0
 203.125 31.4130859375 200.846679688 25.87890625 196.2890625 20.99609375 c 128
 191.731445312 16.11328125 186.198242188 13.671875 179.6875 13.671875 c 256
 173.176757812 13.671875 167.48046875 16.11328125 162.59765625 20.99609375 c 128
 157.71484375 25.87890625 155.2734375 31.4130859375 155.2734375 37.59765625 c 0
 155.2734375 44.1083984375 157.71484375 49.6416015625 162.59765625 54.19921875 c 128
239.2578125 40.52734375 m 128
 243.815429688 45.41015625 249.348632812 47.8515625 255.859375 47.8515625 c 256
 262.370117188 47.8515625 268.06640625 45.41015625 272.94921875 40.52734375 c 128
 277.83203125 35.64453125 280.2734375 30.1103515625 280.2734375 23.92578125 c 256
 280.2734375 17.7412109375 277.83203125 12.20703125 272.94921875 7.32421875 c 128
 268.06640625 2.44140625 262.370117188 0 255.859375 0 c 256
 249.348632812 0 243.815429688 2.44140625 239.2578125 7.32421875 c 128
 234.700195312 12.20703125 232.421875 17.7412109375 232.421875 23.92578125 c 256
 232.421875 30.1103515625 234.700195312 35.64453125 239.2578125 40.52734375 c 128
EndSplineSet
Fore
SplineSet
237.349609375 500.5 m 128
 242.849609375 506 248.349609375 508.200195312 256.049804688 508.200195312 c 256
 263.75 508.200195312 269.25 506 274.75 500.5 c 128
 280.25 495 282.450195312 488.400390625 282.450195312 481.799804688 c 256
 282.450195312 475.200195312 280.25 468.599609375 274.75 463.099609375 c 128
 269.25 457.599609375 263.75 455.400390625 256.049804688 455.400390625 c 256
 248.349609375 455.400390625 242.849609375 457.599609375 237.349609375 463.099609375 c 128
 231.849609375 468.599609375 229.650390625 475.200195312 229.650390625 481.799804688 c 256
 229.650390625 488.400390625 231.849609375 495 237.349609375 500.5 c 128
142.75 479.599609375 m 128
 148.25 485.099609375 153.75 487.299804688 160.349609375 487.299804688 c 256
 166.950195312 487.299804688 173.549804688 485.099609375 179.049804688 479.599609375 c 128
 184.549804688 474.099609375 186.75 467.5 186.75 460.900390625 c 256
 186.75 454.299804688 184.549804688 447.700195312 179.049804688 442.200195312 c 128
 173.549804688 436.700195312 166.950195312 434.5 160.349609375 434.5 c 256
 153.75 434.5 148.25 436.700195312 142.75 442.200195312 c 128
 137.25 447.700195312 135.049804688 454.299804688 135.049804688 460.900390625 c 256
 135.049804688 467.5 137.25 474.099609375 142.75 479.599609375 c 128
336.349609375 477.400390625 m 128
 341.849609375 482.900390625 348.450195312 484 355.049804688 484 c 256
 361.650390625 484 367.150390625 482.900390625 372.650390625 477.400390625 c 128
 378.150390625 471.900390625 381.450195312 466.400390625 381.450195312 458.700195312 c 256
 381.450195312 451 378.150390625 445.5 372.650390625 440 c 128
 367.150390625 434.5 361.650390625 432.299804688 355.049804688 432.299804688 c 256
 348.450195312 432.299804688 341.849609375 434.5 336.349609375 440 c 128
 330.849609375 445.5 328.650390625 452.099609375 328.650390625 458.700195312 c 0
 328.650390625 466.400390625 330.849609375 471.900390625 336.349609375 477.400390625 c 128
70.150390625 427.900390625 m 128
 75.650390625 433.400390625 81.150390625 434.5 88.849609375 434.5 c 256
 96.5498046875 434.5 100.950195312 433.400390625 106.450195312 427.900390625 c 128
 111.950195312 422.400390625 114.150390625 416.900390625 114.150390625 409.200195312 c 256
 114.150390625 401.5 111.950195312 396 106.450195312 390.5 c 128
 100.950195312 385 96.5498046875 382.799804688 88.849609375 382.799804688 c 0
 82.25 382.799804688 75.650390625 385 70.150390625 390.5 c 128
 64.650390625 396 62.4501953125 401.5 62.4501953125 409.200195312 c 256
 62.4501953125 416.900390625 64.650390625 422.400390625 70.150390625 427.900390625 c 128
416.650390625 418 m 128
 422.150390625 423.5 427.650390625 426.799804688 435.349609375 426.799804688 c 256
 443.049804688 426.799804688 448.549804688 423.5 454.049804688 418 c 128
 459.549804688 412.5 460.650390625 407 460.650390625 400.400390625 c 256
 460.650390625 393.799804688 459.549804688 387.200195312 454.049804688 381.700195312 c 128
 448.549804688 376.200195312 443.049804688 374 435.349609375 374 c 256
 427.650390625 374 422.150390625 376.200195312 416.650390625 381.700195312 c 128
 411.150390625 387.200195312 408.950195312 393.799804688 408.950195312 400.400390625 c 256
 408.950195312 407 411.150390625 412.5 416.650390625 418 c 128
17.349609375 352 m 128
 22.849609375 357.5 28.349609375 359.700195312 36.0498046875 359.700195312 c 256
 43.75 359.700195312 49.25 357.5 54.75 352 c 128
 60.25 346.5 62.4501953125 339.900390625 62.4501953125 333.299804688 c 256
 62.4501953125 326.700195312 60.25 321.200195312 54.75 315.700195312 c 128
 49.25 310.200195312 43.75 306.900390625 36.0498046875 306.900390625 c 256
 28.349609375 306.900390625 22.849609375 310.200195312 17.349609375 315.700195312 c 128
 11.849609375 321.200195312 9.650390625 326.700195312 9.650390625 333.299804688 c 256
 9.650390625 339.900390625 11.849609375 346.5 17.349609375 352 c 128
463.950195312 342.099609375 m 128
 469.450195312 347.599609375 473.849609375 348.700195312 481.549804688 348.700195312 c 256
 489.25 348.700195312 494.75 347.599609375 500.25 342.099609375 c 128
 505.75 336.599609375 507.950195312 331.099609375 507.950195312 323.400390625 c 256
 507.950195312 315.700195312 505.75 310.200195312 500.25 304.700195312 c 128
 494.75 299.200195312 489.25 297 481.549804688 297 c 256
 473.849609375 297 469.450195312 299.200195312 463.950195312 304.700195312 c 128
 458.450195312 310.200195312 456.25 315.700195312 456.25 323.400390625 c 256
 456.25 331.099609375 458.450195312 336.599609375 463.950195312 342.099609375 c 128
476.049804688 259.599609375 m 128
 481.549804688 265.099609375 488.150390625 268.400390625 494.75 268.400390625 c 256
 501.349609375 268.400390625 506.849609375 265.099609375 512.349609375 259.599609375 c 128
 517.849609375 254.099609375 521.150390625 248.599609375 521.150390625 242 c 256
 521.150390625 235.400390625 517.849609375 228.799804688 512.349609375 223.299804688 c 128
 506.849609375 217.799804688 501.349609375 215.599609375 494.75 215.599609375 c 256
 488.150390625 215.599609375 481.549804688 217.799804688 476.049804688 223.299804688 c 128
 470.549804688 228.799804688 468.349609375 235.400390625 468.349609375 242 c 256
 468.349609375 248.599609375 470.549804688 254.099609375 476.049804688 259.599609375 c 128
-2.4501953125 259.599609375 m 128
 3.0498046875 265.099609375 8.5498046875 268.400390625 16.25 268.400390625 c 256
 23.9501953125 268.400390625 29.4501953125 265.099609375 34.9501953125 259.599609375 c 128
 40.4501953125 254.099609375 42.650390625 248.599609375 42.650390625 242 c 256
 42.650390625 235.400390625 40.4501953125 228.799804688 34.9501953125 223.299804688 c 128
 29.4501953125 217.799804688 23.9501953125 215.599609375 16.25 215.599609375 c 256
 8.5498046875 215.599609375 3.0498046875 217.799804688 -2.4501953125 223.299804688 c 128
 -7.9501953125 228.799804688 -10.150390625 235.400390625 -10.150390625 242 c 256
 -10.150390625 248.599609375 -7.9501953125 254.099609375 -2.4501953125 259.599609375 c 128
457.349609375 167.200195312 m 128
 462.849609375 172.700195312 468.349609375 174.900390625 476.049804688 174.900390625 c 256
 483.75 174.900390625 489.25 172.700195312 494.75 167.200195312 c 128
 500.25 161.700195312 502.450195312 156.200195312 502.450195312 148.5 c 256
 502.450195312 140.799804688 500.25 135.299804688 494.75 129.799804688 c 128
 489.25 124.299804688 483.75 122.099609375 476.049804688 122.099609375 c 256
 468.349609375 122.099609375 462.849609375 124.299804688 457.349609375 129.799804688 c 128
 451.849609375 135.299804688 450.75 140.799804688 450.75 148.5 c 256
 450.75 156.200195312 451.849609375 161.700195312 457.349609375 167.200195312 c 128
21.75 158.400390625 m 128
 27.25 163.900390625 32.75 166.099609375 40.4501953125 166.099609375 c 256
 48.150390625 166.099609375 53.650390625 163.900390625 59.150390625 158.400390625 c 128
 64.650390625 152.900390625 65.75 147.400390625 65.75 139.700195312 c 256
 65.75 132 64.650390625 126.5 59.150390625 121 c 128
 53.650390625 115.5 48.150390625 113.299804688 40.4501953125 113.299804688 c 256
 32.75 113.299804688 27.25 115.5 21.75 121 c 128
 16.25 126.5 14.0498046875 132 14.0498046875 139.700195312 c 256
 14.0498046875 147.400390625 16.25 152.900390625 21.75 158.400390625 c 128
407.849609375 91.2998046875 m 128
 413.349609375 96.7998046875 418.849609375 99 425.450195312 99 c 256
 432.049804688 99 438.650390625 96.7998046875 444.150390625 91.2998046875 c 128
 449.650390625 85.7998046875 451.849609375 80.2998046875 451.849609375 72.599609375 c 256
 451.849609375 64.900390625 449.650390625 60.5 444.150390625 55 c 128
 438.650390625 49.5 432.049804688 47.2998046875 425.450195312 47.2998046875 c 256
 418.849609375 47.2998046875 413.349609375 49.5 407.849609375 55 c 128
 402.349609375 60.5 399.049804688 64.900390625 399.049804688 72.599609375 c 256
 399.049804688 80.2998046875 402.349609375 85.7998046875 407.849609375 91.2998046875 c 128
77.849609375 82.5 m 128
 83.349609375 88 89.9501953125 90.2001953125 96.5498046875 90.2001953125 c 256
 103.150390625 90.2001953125 108.650390625 88 114.150390625 82.5 c 128
 119.650390625 77 122.950195312 70.400390625 122.950195312 63.7998046875 c 256
 122.950195312 57.2001953125 119.650390625 50.599609375 114.150390625 45.099609375 c 128
 108.650390625 39.599609375 103.150390625 37.400390625 96.5498046875 37.400390625 c 256
 89.9501953125 37.400390625 83.349609375 39.599609375 77.849609375 45.099609375 c 128
 72.349609375 50.599609375 70.150390625 57.2001953125 70.150390625 63.7998046875 c 256
 70.150390625 70.400390625 72.349609375 77 77.849609375 82.5 c 128
333.049804688 39.599609375 m 128
 338.549804688 45.099609375 344.049804688 47.2998046875 351.75 47.2998046875 c 256
 359.450195312 47.2998046875 364.950195312 45.099609375 370.450195312 39.599609375 c 128
 375.950195312 34.099609375 378.150390625 28.599609375 378.150390625 22 c 256
 378.150390625 15.400390625 375.950195312 8.7998046875 370.450195312 3.2998046875 c 128
 364.950195312 -2.2001953125 359.450195312 -4.400390625 351.75 -4.400390625 c 0
 345.150390625 -4.400390625 338.549804688 -2.2001953125 333.049804688 3.2998046875 c 128
 327.549804688 8.7998046875 325.349609375 15.400390625 325.349609375 22 c 256
 325.349609375 28.599609375 327.549804688 34.099609375 333.049804688 39.599609375 c 128
153.75 35.2001953125 m 128
 159.25 40.7001953125 164.75 42.900390625 172.450195312 42.900390625 c 256
 180.150390625 42.900390625 184.549804688 40.7001953125 190.049804688 35.2001953125 c 128
 195.549804688 29.7001953125 197.75 25.2998046875 197.75 17.599609375 c 0
 197.75 11 195.549804688 4.400390625 190.049804688 -1.099609375 c 128
 184.549804688 -6.599609375 180.150390625 -8.7998046875 172.450195312 -8.7998046875 c 256
 164.75 -8.7998046875 159.25 -6.599609375 153.75 -1.099609375 c 128
 148.25 4.400390625 144.950195312 11 144.950195312 17.599609375 c 0
 144.950195312 25.2998046875 148.25 29.7001953125 153.75 35.2001953125 c 128
237.349609375 20.900390625 m 128
 242.849609375 26.400390625 248.349609375 28.599609375 256.049804688 28.599609375 c 256
 263.75 28.599609375 269.25 26.400390625 274.75 20.900390625 c 128
 280.25 15.400390625 282.450195312 8.7998046875 282.450195312 2.2001953125 c 256
 282.450195312 -4.400390625 280.25 -11 274.75 -16.5 c 128
 269.25 -22 263.75 -24.2001953125 256.049804688 -24.2001953125 c 256
 248.349609375 -24.2001953125 242.849609375 -22 237.349609375 -16.5 c 128
 231.849609375 -11 229.650390625 -4.400390625 229.650390625 2.2001953125 c 256
 229.650390625 8.7998046875 231.849609375 15.400390625 237.349609375 20.900390625 c 128
EndSplineSet
EndChar

StartChar: uniFDF2
Encoding: 322 65010 66
Width: 0
VWidth: 1100
GlyphClass: 2
Flags: HW
LayerCount: 3
Back
SplineSet
868.1640625 260.25390625 m 2
 868.1640625 229.98046875 867.512695312 194.905273438 866.2109375 155.029296875 c 128
 864.909179688 115.153320312 863.444335938 74.70703125 861.81640625 33.69140625 c 1
 817.3828125 25.87890625 l 1
 816.731445312 58.7568359375 815.754882812 92.9365234375 814.453125 128.41796875 c 128
 813.151367188 163.899414062 811.686523438 199.055664062 810.05859375 233.88671875 c 2
 804.6875 333.0078125 l 2
 802.734375 362.3046875 800.456054688 398.681640625 797.8515625 442.138671875 c 128
 795.247070312 485.595703125 793.9453125 513.834960938 793.9453125 526.85546875 c 0
 793.9453125 551.594726562 798.747070312 569.82421875 808.349609375 581.54296875 c 128
 817.952148438 593.26171875 833.333007812 601.07421875 854.4921875 604.98046875 c 1
 886.71875 500.48828125 l 1
 862.79296875 481.4453125 l 1
 864.420898438 451.171875 865.72265625 421.875 866.69921875 393.5546875 c 128
 867.67578125 365.234375 868.1640625 338.541992188 868.1640625 313.4765625 c 2
 868.1640625 260.25390625 l 2
525.87890625 630.37109375 m 1
 533.040039062 615.72265625 538.0859375 601.643554688 541.015625 588.134765625 c 128
 543.9453125 574.625976562 545.41015625 564.453125 545.41015625 557.6171875 c 0
 545.41015625 540.0390625 539.631835938 524.088867188 528.076171875 509.765625 c 128
 516.520507812 495.442382812 502.604492188 488.28125 486.328125 488.28125 c 0
 480.793945312 488.28125 474.690429688 489.583007812 468.017578125 492.1875 c 128
 461.344726562 494.791992188 455.56640625 498.860351562 450.68359375 504.39453125 c 1
 445.149414062 491.374023438 437.5 481.689453125 427.734375 475.341796875 c 128
 417.96875 468.994140625 407.877929688 465.8203125 397.4609375 465.8203125 c 0
 382.8125 465.8203125 371.012695312 470.458984375 362.060546875 479.736328125 c 128
 353.108398438 489.013671875 348.6328125 502.44140625 348.6328125 520.01953125 c 0
 348.6328125 528.483398438 349.772460938 536.946289062 352.05078125 545.41015625 c 128
 354.329101562 553.874023438 357.747070312 562.336914062 362.3046875 570.80078125 c 1
 381.34765625 566.40625 l 1
 380.045898438 560.872070312 378.987304688 555.500976562 378.173828125 550.29296875 c 128
 377.360351562 545.084960938 376.953125 540.690429688 376.953125 537.109375 c 0
 376.953125 518.5546875 384.765625 509.27734375 400.390625 509.27734375 c 0
 407.877929688 509.27734375 413.899414062 512.288085938 418.45703125 518.310546875 c 128
 423.014648438 524.333007812 425.618164062 531.413085938 426.26953125 539.55078125 c 2
 424.31640625 577.63671875 l 1
 452.1484375 595.703125 l 1
 454.426757812 572.916992188 458.821289062 556.803710938 465.33203125 547.36328125 c 128
 471.842773438 537.922851562 481.770507812 533.203125 495.1171875 533.203125 c 0
 498.372070312 533.203125 501.790039062 534.504882812 505.37109375 537.109375 c 128
 508.952148438 539.713867188 511.067382812 542.317382812 511.71875 544.921875 c 0
 511.067382812 548.502929688 509.440429688 553.7109375 506.8359375 560.546875 c 128
 504.231445312 567.3828125 500.651367188 575.846679688 496.09375 585.9375 c 1
 494.62890625 596.19140625 l 2
 494.62890625 603.678710938 497.477539062 610.920898438 503.173828125 617.919921875 c 128
 508.870117188 624.918945312 515.788085938 629.39453125 523.92578125 631.34765625 c 1
 525.87890625 630.37109375 l 1
456.54296875 773.4375 m 1
 458.49609375 761.067382812 460.205078125 748.53515625 461.669921875 735.83984375 c 128
 463.134765625 723.14453125 463.8671875 709.9609375 463.8671875 696.2890625 c 0
 463.8671875 668.620117188 454.915039062 645.01953125 437.01171875 625.48828125 c 1
 426.26953125 627.9296875 l 1
 426.26953125 652.018554688 421.875 683.59375 413.0859375 722.65625 c 1
 410.64453125 740.72265625 l 1
 410.64453125 751.139648438 414.225585938 758.708007812 421.38671875 763.427734375 c 128
 428.547851562 768.147460938 438.96484375 771.97265625 452.63671875 774.90234375 c 1
 456.54296875 773.4375 l 1
699.70703125 565.4296875 m 1
 701.008789062 537.109375 702.961914062 497.55859375 705.56640625 446.77734375 c 128
 708.170898438 395.99609375 709.9609375 360.026367188 710.9375 338.8671875 c 2
 716.796875 206.54296875 l 2
 717.448242188 189.290039062 717.936523438 173.665039062 718.26171875 159.66796875 c 2
 719.23828125 117.1875 l 2
 719.23828125 103.190429688 714.599609375 85.205078125 705.322265625 63.232421875 c 128
 696.044921875 41.259765625 688.069335938 27.1806640625 681.396484375 20.99609375 c 128
 674.723632812 14.8115234375 663.411132812 9.6845703125 647.4609375 5.615234375 c 128
 631.510742188 1.5458984375 609.375 -0.48828125 581.0546875 -0.48828125 c 0
 538.411132812 -0.48828125 505.045898438 9.6025390625 480.95703125 29.78515625 c 1
 457.51953125 17.4150390625 437.581054688 9.27734375 421.142578125 5.37109375 c 128
 404.704101562 1.46484375 384.27734375 -0.48828125 359.86328125 -0.48828125 c 0
 347.493164062 -0.48828125 335.041992188 0.48828125 322.509765625 2.44140625 c 128
 309.977539062 4.39453125 298.176757812 7.7314453125 287.109375 12.451171875 c 128
 276.041992188 17.1708984375 265.299804688 24.3330078125 254.8828125 33.935546875 c 128
 244.465820312 43.5380859375 238.118164062 54.0361328125 235.83984375 65.4296875 c 2
 229.00390625 101.07421875 l 1
 224.772460938 92.28515625 220.133789062 83.6591796875 215.087890625 75.1953125 c 128
 210.041992188 66.7314453125 205.241210938 58.2685546875 200.68359375 49.8046875 c 1
 175.944335938 52.0830078125 157.2265625 54.1181640625 144.53125 55.908203125 c 128
 131.8359375 57.6982421875 121.58203125 59.8955078125 113.76953125 62.5 c 2
 94.7265625 68.84765625 l 1
 73.2421875 77.63671875 54.1181640625 88.134765625 37.353515625 100.341796875 c 128
 20.5888671875 112.548828125 12.20703125 122.721679688 12.20703125 130.859375 c 0
 12.20703125 140.625 18.3916015625 159.342773438 30.76171875 187.01171875 c 128
 43.1318359375 214.680664062 63.4765625 238.932617188 91.796875 259.765625 c 128
 120.1171875 280.598632812 154.459960938 299.641601562 194.82421875 316.89453125 c 1
 190.4296875 352.05078125 l 1
 199.21875 359.86328125 209.228515625 367.919921875 220.458984375 376.220703125 c 128
 231.689453125 384.521484375 244.62890625 393.06640625 259.27734375 401.85546875 c 1
 269.53125 90.33203125 l 1
 282.551757812 83.1708984375 296.305664062 77.63671875 310.791015625 73.73046875 c 128
 325.276367188 69.82421875 341.471679688 67.87109375 359.375 67.87109375 c 0
 376.627929688 67.87109375 392.903320312 69.82421875 408.203125 73.73046875 c 128
 423.502929688 77.63671875 438.639648438 83.1708984375 453.61328125 90.33203125 c 1
 420.41015625 377.44140625 l 1
 427.897460938 385.25390625 436.767578125 393.310546875 447.021484375 401.611328125 c 128
 457.275390625 409.912109375 469.23828125 418.782226562 482.91015625 428.22265625 c 1
 494.62890625 90.33203125 l 1
 508.30078125 83.1708984375 521.97265625 77.63671875 535.64453125 73.73046875 c 128
 549.31640625 69.82421875 564.94140625 67.87109375 582.51953125 67.87109375 c 0
 600.749023438 67.87109375 617.431640625 69.82421875 632.568359375 73.73046875 c 128
 647.705078125 77.63671875 662.760742188 83.1708984375 677.734375 90.33203125 c 1
 672.200195312 162.922851562 666.096679688 233.317382812 659.423828125 301.513671875 c 128
 652.750976562 369.709960938 645.01953125 441.081054688 636.23046875 515.625 c 1
 645.01953125 524.4140625 654.622070312 533.040039062 665.0390625 541.50390625 c 128
 675.456054688 549.967773438 687.01171875 557.942382812 699.70703125 565.4296875 c 1
202.63671875 257.32421875 m 1
 170.735351562 246.907226562 142.252929688 234.130859375 117.1875 218.994140625 c 128
 92.1220703125 203.857421875 72.75390625 187.98828125 59.08203125 171.38671875 c 1
 79.2646484375 154.459960938 102.131835938 142.252929688 127.685546875 134.765625 c 128
 153.239257812 127.278320312 185.546875 123.209960938 224.609375 122.55859375 c 1
 202.63671875 257.32421875 l 1
EndSplineSet
EndChar

StartChar: glyph68
Encoding: 324 -1 67
Width: 0
VWidth: 1094
GlyphClass: 2
Flags: HW
LayerCount: 3
Back
SplineSet
121.09375 13.427734375 m 128
 112.3046875 22.3798828125 107.91015625 33.5283203125 107.91015625 46.875 c 0
 107.91015625 62.1748046875 113.28125 75.0322265625 124.0234375 85.44921875 c 128
 134.765625 95.8662109375 147.135742188 101.07421875 161.1328125 101.07421875 c 0
 174.8046875 101.07421875 186.198242188 96.3544921875 195.3125 86.9140625 c 128
 204.426757812 77.4736328125 208.984375 66.0810546875 208.984375 52.734375 c 0
 208.984375 38.4111328125 203.61328125 26.0419921875 192.87109375 15.625 c 128
 182.12890625 5.2080078125 169.43359375 0 154.78515625 0 c 0
 141.11328125 0 129.8828125 4.4755859375 121.09375 13.427734375 c 128
EndSplineSet
Fore
SplineSet
-1.3603515625 -0.6806640625 m 4
 -26.251953125 -0.6806640625 -43.4951171875 16.9990234375 -43.4951171875 41.455078125 c 4
 -43.4951171875 67.3779296875 -21.2119140625 89.865234375 4.0185546875 89.865234375 c 4
 28.1318359375 89.865234375 47.05078125 70.501953125 47.05078125 46.833984375 c 4
 47.05078125 21.3291015625 24.26953125 -0.6806640625 -1.3603515625 -0.6806640625 c 4
EndSplineSet
EndChar

StartChar: glyph69
Encoding: 325 -1 68
Width: 0
VWidth: 1088
GlyphClass: 2
Flags: HW
LayerCount: 3
Back
SplineSet
28.3203125 13.427734375 m 128
 19.53125 22.3798828125 15.13671875 33.5283203125 15.13671875 46.875 c 0
 15.13671875 62.1748046875 20.5078125 75.0322265625 31.25 85.44921875 c 128
 41.9921875 95.8662109375 54.3623046875 101.07421875 68.359375 101.07421875 c 0
 82.03125 101.07421875 93.4248046875 96.3544921875 102.5390625 86.9140625 c 128
 111.653320312 77.4736328125 116.2109375 66.0810546875 116.2109375 52.734375 c 0
 116.2109375 38.4111328125 110.83984375 26.0419921875 100.09765625 15.625 c 128
 89.35546875 5.2080078125 76.66015625 0 62.01171875 0 c 0
 48.33984375 0 37.109375 4.4755859375 28.3203125 13.427734375 c 128
218.75 13.427734375 m 128
 209.9609375 22.3798828125 205.56640625 33.5283203125 205.56640625 46.875 c 0
 205.56640625 62.1748046875 210.9375 75.0322265625 221.6796875 85.44921875 c 128
 232.421875 95.8662109375 244.791992188 101.07421875 258.7890625 101.07421875 c 0
 272.4609375 101.07421875 283.854492188 96.3544921875 292.96875 86.9140625 c 128
 302.083007812 77.4736328125 306.640625 66.0810546875 306.640625 52.734375 c 0
 306.640625 38.4111328125 301.26953125 26.0419921875 290.52734375 15.625 c 128
 279.78515625 5.2080078125 267.08984375 0 252.44140625 0 c 0
 238.76953125 0 227.5390625 4.4755859375 218.75 13.427734375 c 128
134.27734375 139.404296875 m 128
 125.48828125 148.356445312 121.09375 159.504882812 121.09375 172.8515625 c 0
 121.09375 188.151367188 126.46484375 201.008789062 137.20703125 211.42578125 c 128
 147.94921875 221.842773438 160.319335938 227.05078125 174.31640625 227.05078125 c 0
 187.98828125 227.05078125 199.381835938 222.331054688 208.49609375 212.890625 c 128
 217.610351562 203.450195312 222.16796875 192.057617188 222.16796875 178.7109375 c 0
 222.16796875 164.387695312 216.796875 152.018554688 206.0546875 141.6015625 c 128
 195.3125 131.184570312 182.6171875 125.9765625 167.96875 125.9765625 c 0
 154.296875 125.9765625 143.06640625 130.452148438 134.27734375 139.404296875 c 128
EndSplineSet
Fore
SplineSet
-73.962890625 27.314453125 m 4
 -93.7396245775 27.314453125 -107.44140625 41.3638019262 -107.44140625 60.794921875 c 4
 -107.44140625 81.3933694045 -89.7364326596 99.2646484375 -69.6875 99.2646484375 c 4
 -49.9259510629 99.2646484375 -35.4921875 84.6384544892 -35.4921875 65.0703125 c 4
 -35.4921875 44.8029089896 -53.5954772104 27.314453125 -73.962890625 27.314453125 c 4
61.3896484375 27.314453125 m 4
 41.972044103 27.314453125 28.6201171875 41.7477522559 28.6201171875 60.794921875 c 4
 28.6201171875 81.3925611151 46.3281602272 99.2646484375 66.3779296875 99.2646484375 c 4
 85.5351908286 99.2646484375 100.57421875 83.875419005 100.57421875 65.0703125 c 4
 100.57421875 44.4343225654 82.1014234635 27.314453125 61.3896484375 27.314453125 c 4
1.5498046875 117.072265625 m 4
 -18.2306073805 117.072265625 -31.931640625 131.122563946 -31.931640625 150.5546875 c 4
 -31.931640625 171.155469784 -14.2273677094 189.0234375 5.82421875 189.0234375 c 4
 24.9865214712 189.0234375 40.021484375 173.635092093 40.021484375 154.830078125 c 4
 40.021484375 134.56249398 21.9176875482 117.072265625 1.5498046875 117.072265625 c 4
EndSplineSet
EndChar

StartChar: glyph70
Encoding: 326 -1 69
Width: 332
VWidth: 1094
GlyphClass: 2
Flags: HW
LayerCount: 3
Back
SplineSet
42.96875 13.427734375 m 128
 34.1796875 22.3798828125 29.78515625 33.5283203125 29.78515625 46.875 c 0
 29.78515625 62.1748046875 35.15625 75.0322265625 45.8984375 85.44921875 c 128
 56.640625 95.8662109375 69.0107421875 101.07421875 83.0078125 101.07421875 c 0
 96.6796875 101.07421875 108.073242188 96.3544921875 117.1875 86.9140625 c 128
 126.301757812 77.4736328125 130.859375 66.0810546875 130.859375 52.734375 c 0
 130.859375 38.4111328125 125.48828125 26.0419921875 114.74609375 15.625 c 128
 104.00390625 5.2080078125 91.30859375 0 76.66015625 0 c 0
 62.98828125 0 51.7578125 4.4755859375 42.96875 13.427734375 c 128
204.1015625 13.427734375 m 128
 195.3125 22.3798828125 190.91796875 33.5283203125 190.91796875 46.875 c 0
 190.91796875 62.1748046875 196.2890625 75.0322265625 207.03125 85.44921875 c 128
 217.7734375 95.8662109375 230.143554688 101.07421875 244.140625 101.07421875 c 0
 257.8125 101.07421875 269.206054688 96.3544921875 278.3203125 86.9140625 c 128
 287.434570312 77.4736328125 291.9921875 66.0810546875 291.9921875 52.734375 c 0
 291.9921875 38.4111328125 286.62109375 26.0419921875 275.87890625 15.625 c 128
 265.13671875 5.2080078125 252.44140625 0 237.79296875 0 c 0
 224.12109375 0 212.890625 4.4755859375 204.1015625 13.427734375 c 128
EndSplineSet
Fore
SplineSet
31.2001953125 9.25 m 128
 21.2998046875 19.150390625 16.900390625 32.349609375 16.900390625 46.650390625 c 0
 16.900390625 63.150390625 22.400390625 77.4501953125 34.5 88.4501953125 c 128
 46.599609375 99.4501953125 59.7998046875 106.049804688 75.2001953125 106.049804688 c 0
 90.599609375 106.049804688 102.700195312 100.549804688 112.599609375 90.650390625 c 128
 122.5 80.75 128 67.5498046875 128 53.25 c 0
 128 37.849609375 122.5 23.5498046875 110.400390625 12.5498046875 c 128
 98.2998046875 1.5498046875 85.099609375 -5.0498046875 68.599609375 -5.0498046875 c 0
 53.2001953125 -5.0498046875 41.099609375 -0.650390625 31.2001953125 9.25 c 128
208.299804688 9.25 m 128
 198.400390625 19.150390625 194 32.349609375 194 46.650390625 c 0
 194 63.150390625 199.5 77.4501953125 211.599609375 88.4501953125 c 128
 223.700195312 99.4501953125 236.900390625 106.049804688 252.299804688 106.049804688 c 0
 267.700195312 106.049804688 279.799804688 100.549804688 289.700195312 90.650390625 c 128
 299.599609375 80.75 305.099609375 67.5498046875 305.099609375 53.25 c 0
 305.099609375 37.849609375 299.599609375 23.5498046875 287.5 12.5498046875 c 128
 275.400390625 1.5498046875 262.200195312 -5.0498046875 245.700195312 -5.0498046875 c 0
 230.299804688 -5.0498046875 218.200195312 -0.650390625 208.299804688 9.25 c 128
EndSplineSet
EndChar

StartChar: semicolon
Encoding: 327 59 70
Width: 246
VWidth: 79
GlyphClass: 2
Flags: HW
LayerCount: 3
Back
SplineSet
215.576171875 117.1875 m 128
 227.458007812 104.4921875 233.3984375 87.5654296875 233.3984375 66.40625 c 0
 233.3984375 46.5498046875 224.202148438 20.751953125 205.810546875 -10.986328125 c 128
 187.418945312 -42.724609375 166.829101562 -70.2314453125 144.04296875 -93.505859375 c 128
 121.256835938 -116.780273438 103.02734375 -128.41796875 89.35546875 -128.41796875 c 0
 81.54296875 -128.41796875 75.5205078125 -126.139648438 71.2890625 -121.58203125 c 128
 67.0576171875 -117.024414062 64.94140625 -111.979492188 64.94140625 -106.4453125 c 0
 64.94140625 -99.609375 67.5458984375 -93.505859375 72.75390625 -88.134765625 c 128
 77.9619140625 -82.763671875 88.2978515625 -72.265625 103.759765625 -56.640625 c 128
 119.221679688 -41.015625 130.696289062 -23.92578125 138.18359375 -5.37109375 c 1
 121.58203125 -4.39453125 108.154296875 1.708984375 97.900390625 12.939453125 c 128
 87.646484375 24.169921875 82.51953125 37.59765625 82.51953125 53.22265625 c 0
 82.51953125 74.70703125 91.3896484375 93.9130859375 109.130859375 110.83984375 c 128
 126.872070312 127.766601562 146.809570312 136.23046875 168.9453125 136.23046875 c 0
 188.151367188 136.23046875 203.694335938 129.8828125 215.576171875 117.1875 c 128
127.44140625 258.056640625 m 128
 116.374023438 269.287109375 110.83984375 283.69140625 110.83984375 301.26953125 c 0
 110.83984375 323.73046875 119.791992188 344.23828125 137.6953125 362.79296875 c 128
 155.598632812 381.34765625 176.26953125 390.625 199.70703125 390.625 c 0
 217.936523438 390.625 232.991210938 384.684570312 244.873046875 372.802734375 c 128
 256.754882812 360.920898438 262.6953125 346.19140625 262.6953125 328.61328125 c 0
 262.6953125 305.827148438 253.499023438 285.563476562 235.107421875 267.822265625 c 128
 216.715820312 250.081054688 195.80078125 241.2109375 172.36328125 241.2109375 c 0
 153.483398438 241.2109375 138.508789062 246.826171875 127.44140625 258.056640625 c 128
EndSplineSet
Fore
Refer: 6 44 N 1 0 0 1 10 80 2
Refer: 7 46 S 1 0 0 1 -1 399 2
EndChar

StartChar: colon
Encoding: 328 58 71
Width: 288
VWidth: 79
GlyphClass: 2
Flags: HW
LayerCount: 3
Back
SplineSet
127.44140625 258.056640625 m 128
 116.374023438 269.287109375 110.83984375 283.69140625 110.83984375 301.26953125 c 0
 110.83984375 323.73046875 119.791992188 344.23828125 137.6953125 362.79296875 c 128
 155.598632812 381.34765625 176.26953125 390.625 199.70703125 390.625 c 0
 217.936523438 390.625 232.991210938 384.684570312 244.873046875 372.802734375 c 128
 256.754882812 360.920898438 262.6953125 346.19140625 262.6953125 328.61328125 c 0
 262.6953125 305.827148438 253.499023438 285.563476562 235.107421875 267.822265625 c 128
 216.715820312 250.081054688 195.80078125 241.2109375 172.36328125 241.2109375 c 0
 153.483398438 241.2109375 138.508789062 246.826171875 127.44140625 258.056640625 c 128
95.703125 7.080078125 m 128
 84.6357421875 18.310546875 79.1015625 32.71484375 79.1015625 50.29296875 c 0
 79.1015625 72.75390625 88.0537109375 93.26171875 105.95703125 111.81640625 c 128
 123.860351562 130.37109375 144.53125 139.6484375 167.96875 139.6484375 c 0
 186.198242188 139.6484375 201.252929688 133.708007812 213.134765625 121.826171875 c 128
 225.016601562 109.944335938 230.95703125 95.21484375 230.95703125 77.63671875 c 0
 230.95703125 54.8505859375 221.760742188 34.5869140625 203.369140625 16.845703125 c 128
 184.977539062 -0.8955078125 164.0625 -9.765625 140.625 -9.765625 c 0
 121.745117188 -9.765625 106.770507812 -4.150390625 95.703125 7.080078125 c 128
EndSplineSet
Fore
Refer: 7 46 N 1 0 0 1 26 402 2
Refer: 7 46 N 1 0 0 1 26 72 2
EndChar

StartChar: exclam
Encoding: 329 33 72
Width: 330
VWidth: 153
GlyphClass: 2
Flags: HW
LayerCount: 3
Back
SplineSet
334.9609375 578.61328125 m 2
 302.24609375 479.00390625 l 2
 288.249023438 437.336914062 276.204101562 399.006835938 266.11328125 364.013671875 c 128
 256.022460938 329.020507812 248.372070312 301.106445312 243.1640625 280.2734375 c 2
 233.88671875 241.69921875 l 2
 231.282226562 230.95703125 225.341796875 222.737304688 216.064453125 217.041015625 c 128
 206.787109375 211.344726562 196.452148438 208.49609375 185.05859375 208.49609375 c 0
 165.852539062 208.49609375 152.750976562 211.833007812 145.751953125 218.505859375 c 128
 138.752929688 225.178710938 135.25390625 235.026367188 135.25390625 248.046875 c 0
 135.25390625 264.6484375 154.459960938 325.602539062 192.87109375 430.908203125 c 128
 231.282226562 536.213867188 261.637695312 611.247070312 283.935546875 656.005859375 c 128
 306.233398438 700.764648438 327.311523438 723.14453125 347.16796875 723.14453125 c 0
 356.608398438 723.14453125 363.118164062 721.110351562 366.69921875 717.041015625 c 128
 370.280273438 712.971679688 372.0703125 706.0546875 372.0703125 696.2890625 c 0
 372.0703125 683.268554688 367.67578125 665.934570312 358.88671875 644.287109375 c 128
 350.09765625 622.639648438 342.122070312 600.749023438 334.9609375 578.61328125 c 2
110.83984375 111.81640625 m 128
 128.743164062 130.37109375 149.4140625 139.6484375 172.8515625 139.6484375 c 0
 191.081054688 139.6484375 206.135742188 133.708007812 218.017578125 121.826171875 c 128
 229.899414062 109.944335938 235.83984375 95.21484375 235.83984375 77.63671875 c 0
 235.83984375 54.8505859375 226.643554688 34.5869140625 208.251953125 16.845703125 c 128
 189.860351562 -0.8955078125 168.9453125 -9.765625 145.5078125 -9.765625 c 0
 126.627929688 -9.765625 111.653320312 -4.150390625 100.5859375 7.080078125 c 128
 89.5185546875 18.310546875 83.984375 32.71484375 83.984375 50.29296875 c 0
 83.984375 72.75390625 92.9365234375 93.26171875 110.83984375 111.81640625 c 128
EndSplineSet
Fore
SplineSet
89 772 m 1
 116 796 203 805 237 801 c 1
 215.63671875 608.21875 200.844726562 435.486328125 193 208 c 1
 112 206 l 1
 105 399 97 610 89 772 c 1
EndSplineSet
Refer: 7 46 N 1 0 0 1 29 -10 2
EndChar

StartChar: uni0660
Encoding: 330 1632 73
Width: 0
VWidth: 1100
GlyphClass: 2
Flags: HW
LayerCount: 3
Back
SplineSet
76.171875 344.23828125 m 1
 87.2392578125 362.141601562 97.2490234375 379.8828125 106.201171875 397.4609375 c 128
 115.153320312 415.0390625 125.325195312 432.12890625 136.71875 448.73046875 c 1
 173.828125 427.571289062 199.951171875 410.237304688 215.087890625 396.728515625 c 128
 230.224609375 383.219726562 237.79296875 374.0234375 237.79296875 369.140625 c 0
 237.79296875 360.026367188 219.401367188 328.450195312 182.6171875 274.4140625 c 1
 147.4609375 301.106445312 111.979492188 324.381835938 76.171875 344.23828125 c 1
130.859375 702.63671875 m 1024
143.06640625 134.765625 m 1024
EndSplineSet
EndChar

StartChar: uni0661
Encoding: 331 1633 74
Width: 0
VWidth: 1100
GlyphClass: 2
Flags: HW
LayerCount: 3
Back
SplineSet
130.859375 702.63671875 m 1
 164.0625 643.06640625 190.510742188 578.532226562 210.205078125 509.033203125 c 128
 229.899414062 439.534179688 239.74609375 378.41796875 239.74609375 325.68359375 c 0
 239.74609375 261.23046875 235.188476562 197.590820312 226.07421875 134.765625 c 1
 187.98828125 144.04296875 l 1
 186.360351562 266.438476562 175.944335938 359.211914062 156.73828125 422.36328125 c 128
 137.532226562 485.514648438 119.791992188 532.633789062 103.515625 563.720703125 c 128
 87.2392578125 594.807617188 78.61328125 612.629882812 77.63671875 617.1875 c 2
 76.66015625 629.39453125 l 2
 76.66015625 642.741210938 81.4619140625 655.76171875 91.064453125 668.45703125 c 128
 100.666992188 681.15234375 113.932617188 692.545898438 130.859375 702.63671875 c 1
EndSplineSet
EndChar

StartChar: uni0662
Encoding: 332 1634 75
Width: 0
VWidth: 1100
GlyphClass: 2
Flags: HW
LayerCount: 3
Back
SplineSet
130.859375 702.63671875 m 1
 151.041992188 666.178710938 168.45703125 628.581054688 183.10546875 589.84375 c 1
 190.266601562 584.309570312 199.625976562 579.833984375 211.181640625 576.416015625 c 128
 222.737304688 572.998046875 235.026367188 571.2890625 248.046875 571.2890625 c 0
 305.989257812 571.2890625 339.192382812 614.74609375 347.65625 701.66015625 c 1
 387.6953125 693.84765625 l 1
 387.6953125 556.15234375 341.471679688 487.3046875 249.0234375 487.3046875 c 0
 237.629882812 487.3046875 225.911132812 489.909179688 213.8671875 495.1171875 c 1
 231.120117188 430.012695312 239.74609375 373.53515625 239.74609375 325.68359375 c 0
 239.74609375 294.108398438 238.932617188 265.543945312 237.3046875 239.990234375 c 128
 235.676757812 214.436523438 231.93359375 179.362304688 226.07421875 134.765625 c 1
 187.98828125 144.04296875 l 1
 187.01171875 208.49609375 184.326171875 261.474609375 179.931640625 302.978515625 c 128
 175.537109375 344.482421875 167.724609375 384.602539062 156.494140625 423.33984375 c 128
 145.263671875 462.077148438 132.649414062 497.639648438 118.65234375 530.029296875 c 128
 104.655273438 562.418945312 94.1572265625 584.47265625 87.158203125 596.19140625 c 128
 80.1591796875 607.91015625 76.66015625 618.977539062 76.66015625 629.39453125 c 0
 76.66015625 642.741210938 81.4619140625 655.924804688 91.064453125 668.9453125 c 128
 100.666992188 681.965820312 113.932617188 693.196289062 130.859375 702.63671875 c 1
EndSplineSet
EndChar

StartChar: uni0663
Encoding: 333 1635 76
Width: 0
VWidth: 1100
GlyphClass: 2
Flags: HW
LayerCount: 3
Back
SplineSet
130.859375 702.63671875 m 1
 150.390625 666.829101562 167.643554688 629.069335938 182.6171875 589.35546875 c 1
 198.567382812 577.311523438 217.28515625 571.2890625 238.76953125 571.2890625 c 0
 258.30078125 571.2890625 272.541992188 577.555664062 281.494140625 590.087890625 c 128
 290.446289062 602.620117188 294.921875 621.58203125 294.921875 646.97265625 c 0
 294.921875 661.946289062 294.108398438 677.083007812 292.48046875 692.3828125 c 1
 322.265625 702.63671875 l 1
 331.706054688 668.131835938 336.42578125 638.834960938 336.42578125 614.74609375 c 2
 336.42578125 608.88671875 l 1
 347.493164062 604.98046875 356.93359375 603.02734375 364.74609375 603.02734375 c 0
 378.743164062 603.02734375 389.567382812 609.049804688 397.216796875 621.09375 c 128
 404.866210938 633.137695312 408.69140625 650.390625 408.69140625 672.8515625 c 0
 408.69140625 685.221679688 408.203125 694.499023438 407.2265625 700.68359375 c 1
 447.75390625 696.2890625 l 1
 450.68359375 675.129882812 452.1484375 657.551757812 452.1484375 643.5546875 c 0
 452.1484375 606.4453125 443.928710938 576.497070312 427.490234375 553.7109375 c 128
 411.051757812 530.924804688 390.461914062 519.53125 365.72265625 519.53125 c 0
 350.749023438 519.53125 334.797851562 524.250976562 317.87109375 533.69140625 c 1
 311.03515625 520.01953125 301.676757812 508.870117188 289.794921875 500.244140625 c 128
 277.913085938 491.618164062 263.997070312 487.3046875 248.046875 487.3046875 c 0
 236.979492188 487.3046875 225.422851562 489.909179688 213.37890625 495.1171875 c 1
 212.40234375 495.1171875 l 1
 229.329101562 431.315429688 237.79296875 374.836914062 237.79296875 325.68359375 c 0
 237.79296875 259.928710938 233.88671875 196.2890625 226.07421875 134.765625 c 1
 187.98828125 144.04296875 l 1
 186.686523438 261.23046875 176.676757812 351.399414062 157.958984375 414.55078125 c 128
 139.241210938 477.702148438 121.256835938 526.611328125 104.00390625 561.279296875 c 128
 86.7509765625 595.947265625 77.7998046875 615.234375 77.1484375 619.140625 c 2
 76.66015625 629.8828125 l 2
 76.66015625 643.229492188 81.3798828125 656.25 90.8203125 668.9453125 c 128
 100.260742188 681.640625 113.606445312 692.87109375 130.859375 702.63671875 c 1
EndSplineSet
EndChar

StartChar: uni0664
Encoding: 334 1636 77
Width: 0
VWidth: 1100
GlyphClass: 2
Flags: HW
LayerCount: 3
Back
SplineSet
258.7890625 730.46875 m 1
 260.7421875 724.284179688 261.71875 717.448242188 261.71875 709.9609375 c 0
 261.71875 695.637695312 259.033203125 682.047851562 253.662109375 669.189453125 c 128
 248.291015625 656.331054688 241.047851562 646.159179688 231.93359375 638.671875 c 2
 201.66015625 614.74609375 l 1
 161.62109375 584.797851562 133.30078125 562.174804688 116.69921875 546.875 c 1
 131.34765625 530.924804688 148.4375 518.798828125 167.96875 510.498046875 c 128
 187.5 502.197265625 210.774414062 495.1171875 237.79296875 489.2578125 c 1
 265.13671875 430.17578125 l 1
 244.62890625 408.040039062 222.249023438 378.987304688 197.998046875 343.017578125 c 128
 173.747070312 307.047851562 161.62109375 281.25 161.62109375 265.625 c 0
 161.62109375 251.953125 173.502929688 239.990234375 197.265625 229.736328125 c 128
 221.028320312 219.482421875 249.348632812 214.35546875 282.2265625 214.35546875 c 0
 316.40625 214.35546875 346.19140625 217.7734375 371.58203125 224.609375 c 1
 381.8359375 207.03125 l 1
 379.8828125 205.403320312 370.1171875 192.626953125 352.5390625 168.701171875 c 128
 334.9609375 144.775390625 312.01171875 132.8125 283.69140625 132.8125 c 0
 229.00390625 132.8125 187.336914062 141.276367188 158.69140625 158.203125 c 128
 130.045898438 175.129882812 115.72265625 200.358398438 115.72265625 233.88671875 c 0
 115.72265625 252.766601562 122.233398438 278.401367188 135.25390625 310.791015625 c 128
 148.274414062 343.180664062 164.713867188 374.51171875 184.5703125 404.78515625 c 1
 149.739257812 419.108398438 121.58203125 434.5703125 100.09765625 451.171875 c 128
 78.61328125 467.7734375 67.87109375 482.91015625 67.87109375 496.58203125 c 0
 67.87109375 525.227539062 78.125 560.383789062 98.6328125 602.05078125 c 128
 119.140625 643.717773438 172.526367188 686.5234375 258.7890625 730.46875 c 1
96.6796875 702.63671875 m 1024
128.41796875 134.765625 m 1024
EndSplineSet
EndChar

StartChar: uni0665
Encoding: 335 1637 78
Width: 0
VWidth: 1100
GlyphClass: 2
Flags: HW
LayerCount: 3
Back
SplineSet
299.8046875 580.078125 m 128
 323.2421875 533.528320312 334.9609375 478.515625 334.9609375 415.0390625 c 0
 334.9609375 356.4453125 327.961914062 313.801757812 313.96484375 287.109375 c 128
 299.967773438 260.416992188 279.948242188 238.28125 253.90625 220.703125 c 128
 227.864257812 203.125 201.008789062 194.3359375 173.33984375 194.3359375 c 0
 128.743164062 194.3359375 96.5166015625 205.973632812 76.66015625 229.248046875 c 128
 56.8037109375 252.522460938 46.875 288.899414062 46.875 338.37890625 c 0
 46.875 381.34765625 55.0126953125 427.327148438 71.2890625 476.318359375 c 128
 87.5654296875 525.309570312 108.642578125 566.487304688 134.521484375 599.853515625 c 128
 160.400390625 633.219726562 184.407226562 649.90234375 206.54296875 649.90234375 c 0
 245.280273438 649.90234375 276.3671875 626.627929688 299.8046875 580.078125 c 128
262.451171875 500.9765625 m 128
 241.780273438 536.458007812 215.983398438 554.19921875 185.05859375 554.19921875 c 0
 163.57421875 554.19921875 141.845703125 531.413085938 119.873046875 485.83984375 c 128
 97.900390625 440.266601562 86.9140625 398.4375 86.9140625 360.3515625 c 0
 86.9140625 305.6640625 119.303710938 278.3203125 184.08203125 278.3203125 c 0
 217.28515625 278.3203125 243.815429688 289.469726562 263.671875 311.767578125 c 128
 283.528320312 334.065429688 293.45703125 353.515625 293.45703125 370.1171875 c 0
 293.45703125 421.875 283.122070312 465.495117188 262.451171875 500.9765625 c 128
130.859375 702.63671875 m 1024
226.07421875 134.765625 m 1024
EndSplineSet
EndChar

StartChar: uni0666
Encoding: 336 1638 79
Width: 0
VWidth: 1100
GlyphClass: 2
Flags: HW
LayerCount: 3
Back
SplineSet
322.75390625 133.30078125 m 1
 298.014648438 194.82421875 279.78515625 251.953125 268.06640625 304.6875 c 128
 256.34765625 357.421875 250.48828125 411.784179688 250.48828125 467.7734375 c 0
 250.48828125 488.932617188 252.604492188 515.299804688 256.8359375 546.875 c 128
 261.067382812 578.450195312 264.485351562 599.12109375 267.08984375 608.88671875 c 1
 239.74609375 604.98046875 205.56640625 603.02734375 164.55078125 603.02734375 c 0
 137.532226562 603.02734375 111.572265625 605.46875 86.669921875 610.3515625 c 128
 61.767578125 615.234375 41.3408203125 621.418945312 25.390625 628.90625 c 1
 48.33984375 713.37890625 l 1
 89.35546875 697.102539062 128.092773438 688.96484375 164.55078125 688.96484375 c 0
 209.147460938 688.96484375 257.8125 692.219726562 310.546875 698.73046875 c 1
 322.75390625 682.6171875 l 1
 311.360351562 637.043945312 305.6640625 597.493164062 305.6640625 563.96484375 c 0
 305.6640625 485.83984375 312.092773438 417.561523438 324.951171875 359.130859375 c 128
 337.809570312 300.700195312 356.770507812 246.745117188 381.8359375 197.265625 c 1
 322.75390625 133.30078125 l 1
199.21875 702.63671875 m 1024
226.07421875 134.765625 m 1024
EndSplineSet
EndChar

StartChar: uni0667
Encoding: 337 1639 80
Width: 0
VWidth: 1100
GlyphClass: 2
Flags: HW
LayerCount: 3
Back
SplineSet
204.1015625 134.765625 m 1
 156.575195312 294.921875 113.118164062 413.004882812 73.73046875 489.013671875 c 128
 34.3427734375 565.022460938 13.7529296875 604.98046875 11.962890625 608.88671875 c 128
 10.1728515625 612.79296875 9.27734375 618.000976562 9.27734375 624.51171875 c 0
 9.27734375 637.20703125 13.5908203125 650.309570312 22.216796875 663.818359375 c 128
 30.8427734375 677.327148438 42.6435546875 689.616210938 57.6171875 700.68359375 c 1
 88.2158203125 653.80859375 121.663085938 582.844726562 157.958984375 487.79296875 c 128
 194.254882812 392.741210938 219.23828125 311.03515625 232.91015625 242.67578125 c 1
 246.907226562 322.75390625 268.879882812 406.575195312 298.828125 494.140625 c 128
 328.776367188 581.706054688 357.584960938 650.553710938 385.25390625 700.68359375 c 1
 427.24609375 628.90625 l 1
 385.905273438 545.8984375 352.458007812 469.482421875 326.904296875 399.658203125 c 128
 301.350585938 329.833984375 278.3203125 254.8828125 257.8125 174.8046875 c 1
 236.653320312 157.877929688 218.75 144.53125 204.1015625 134.765625 c 1
150.390625 702.63671875 m 1024
EndSplineSet
EndChar

StartChar: uni0668
Encoding: 338 1640 81
Width: 0
VWidth: 1100
GlyphClass: 2
Flags: HW
LayerCount: 3
Back
SplineSet
231.93359375 700.68359375 m 1
 280.436523438 536.62109375 324.788085938 416.584960938 364.990234375 340.576171875 c 128
 405.192382812 264.567382812 425.618164062 224.934570312 426.26953125 221.6796875 c 128
 426.920898438 218.424804688 427.24609375 214.680664062 427.24609375 210.44921875 c 0
 427.24609375 198.079101562 422.932617188 185.302734375 414.306640625 172.119140625 c 128
 405.680664062 158.935546875 393.5546875 146.484375 377.9296875 134.765625 c 1
 347.331054688 181.315429688 313.883789062 252.034179688 277.587890625 346.923828125 c 128
 241.291992188 441.813476562 216.30859375 523.600585938 202.63671875 592.28515625 c 1
 187.98828125 509.602539062 166.259765625 426.025390625 137.451171875 341.552734375 c 128
 108.642578125 257.080078125 79.9150390625 188.151367188 51.26953125 134.765625 c 1
 8.30078125 206.0546875 l 1
 51.26953125 291.666992188 84.8798828125 367.67578125 109.130859375 434.08203125 c 128
 133.381835938 500.48828125 156.413085938 576.008789062 178.22265625 660.64453125 c 1
 231.93359375 700.68359375 l 1
130.859375 702.63671875 m 1024
EndSplineSet
EndChar

StartChar: uni0669
Encoding: 339 1641 82
Width: 0
VWidth: 1100
GlyphClass: 2
Flags: HW
LayerCount: 3
Back
SplineSet
311.03515625 133.30078125 m 1
 286.62109375 196.77734375 269.04296875 252.197265625 258.30078125 299.560546875 c 128
 247.55859375 346.923828125 241.69921875 395.833007812 240.72265625 446.2890625 c 1
 223.469726562 438.4765625 205.403320312 434.5703125 186.5234375 434.5703125 c 0
 138.997070312 434.5703125 103.108398438 445.393554688 78.857421875 467.041015625 c 128
 54.6064453125 488.688476562 42.48046875 519.856445312 42.48046875 560.546875 c 0
 42.48046875 595.703125 56.9658203125 631.103515625 85.9375 666.748046875 c 128
 114.909179688 702.392578125 144.04296875 720.21484375 173.33984375 720.21484375 c 0
 211.42578125 720.21484375 240.478515625 703.369140625 260.498046875 669.677734375 c 128
 280.517578125 635.986328125 290.52734375 582.682617188 290.52734375 509.765625 c 0
 290.52734375 456.379882812 297.038085938 404.296875 310.05859375 353.515625 c 128
 323.079101562 302.734375 342.936523438 250.48828125 369.62890625 196.77734375 c 1
 311.03515625 133.30078125 l 1
125.48828125 537.59765625 m 128
 151.85546875 524.90234375 181.640625 518.5546875 214.84375 518.5546875 c 1
 237.3046875 520.99609375 l 1
 236.328125 527.34375 l 2
 225.911132812 597.65625 196.614257812 632.8125 148.4375 632.8125 c 0
 131.8359375 632.8125 117.268554688 627.360351562 104.736328125 616.455078125 c 128
 92.2041015625 605.549804688 85.9375 595.051757812 85.9375 584.9609375 c 0
 85.9375 566.081054688 99.12109375 550.29296875 125.48828125 537.59765625 c 128
67.3828125 702.63671875 m 1024
226.07421875 134.765625 m 1024
EndSplineSet
EndChar

StartChar: uniFDF2.salt
Encoding: 340 -1 83
Width: 0
VWidth: 1100
GlyphClass: 2
Flags: HW
LayerCount: 3
Back
SplineSet
746.09375 62.5 m 128
 740.234375 67.3828125 737.3046875 73.5673828125 737.3046875 81.0546875 c 256
 737.3046875 88.5419921875 741.536132812 107.91015625 750 139.16015625 c 128
 758.463867188 170.41015625 767.333984375 226.643554688 776.611328125 307.861328125 c 128
 785.888671875 389.079101562 790.52734375 472.004882812 790.52734375 556.640625 c 0
 790.52734375 573.2421875 793.864257812 586.995117188 800.537109375 597.900390625 c 128
 807.209960938 608.805664062 816.569335938 614.2578125 828.61328125 614.2578125 c 0
 848.14453125 614.2578125 857.91015625 603.840820312 857.91015625 583.0078125 c 0
 857.91015625 480.143554688 850.5859375 372.55859375 835.9375 260.25390625 c 128
 821.2890625 147.94921875 809.489257812 85.693359375 800.537109375 73.486328125 c 128
 791.584960938 61.279296875 780.924804688 55.17578125 768.5546875 55.17578125 c 0
 759.440429688 55.17578125 751.953125 57.6171875 746.09375 62.5 c 128
218.75 69.3359375 m 1
 197.590820312 43.9453125 170.41015625 21.97265625 137.20703125 3.41796875 c 128
 104.00390625 -15.13671875 75.8466796875 -24.4140625 52.734375 -24.4140625 c 0
 44.2705078125 -24.4140625 37.4345703125 -21.728515625 32.2265625 -16.357421875 c 128
 27.0185546875 -10.986328125 24.4140625 -4.5576171875 24.4140625 2.9296875 c 0
 24.4140625 22.4609375 36.4580078125 35.7255859375 60.546875 42.724609375 c 128
 84.6357421875 49.7236328125 108.235351562 61.1982421875 131.34765625 77.1484375 c 128
 154.459960938 93.0986328125 172.526367188 112.385742188 185.546875 135.009765625 c 128
 198.567382812 157.633789062 206.54296875 180.745117188 209.47265625 204.345703125 c 128
 212.40234375 227.946289062 223.307617188 239.74609375 242.1875 239.74609375 c 0
 264.323242188 239.74609375 275.390625 232.258789062 275.390625 217.28515625 c 0
 275.390625 180.500976562 279.78515625 151.774414062 288.57421875 131.103515625 c 128
 297.36328125 110.432617188 310.709960938 100.09765625 328.61328125 100.09765625 c 0
 347.819335938 100.09765625 364.583007812 115.559570312 378.90625 146.484375 c 128
 393.229492188 177.409179688 400.390625 211.42578125 400.390625 248.53515625 c 0
 400.390625 279.78515625 411.1328125 295.41015625 432.6171875 295.41015625 c 0
 453.450195312 295.41015625 464.111328125 288.330078125 464.599609375 274.169921875 c 128
 465.087890625 260.009765625 469.482421875 230.387695312 477.783203125 185.302734375 c 128
 486.083984375 140.217773438 503.581054688 117.67578125 530.2734375 117.67578125 c 0
 556.315429688 117.67578125 574.70703125 130.290039062 585.44921875 155.517578125 c 128
 596.19140625 180.745117188 603.352539062 221.598632812 606.93359375 278.076171875 c 128
 610.514648438 334.553710938 612.3046875 382.487304688 612.3046875 421.875 c 0
 612.3046875 444.010742188 622.395507812 455.078125 642.578125 455.078125 c 0
 651.3671875 455.078125 659.098632812 452.63671875 665.771484375 447.75390625 c 128
 672.444335938 442.87109375 675.78125 437.5 675.78125 431.640625 c 0
 675.78125 372.721679688 673.258789062 308.268554688 668.212890625 238.28125 c 128
 663.166992188 168.293945312 646.809570312 113.28125 619.140625 73.2421875 c 128
 591.471679688 33.203125 557.942382812 13.18359375 518.5546875 13.18359375 c 0
 493.815429688 13.18359375 472.737304688 20.8330078125 455.322265625 36.1328125 c 128
 437.907226562 51.4326171875 424.641601562 76.66015625 415.52734375 111.81640625 c 1
 387.20703125 34.3427734375 350.749023438 -4.39453125 306.15234375 -4.39453125 c 0
 284.342773438 -4.39453125 266.276367188 1.220703125 251.953125 12.451171875 c 128
 237.629882812 23.681640625 226.5625 42.6435546875 218.75 69.3359375 c 1
454.58984375 596.923828125 m 128
 451.66015625 584.391601562 443.522460938 578.125 430.17578125 578.125 c 0
 414.55078125 578.125 406.73828125 585.612304688 406.73828125 600.5859375 c 0
 406.73828125 602.864257812 406.901367188 607.258789062 407.2265625 613.76953125 c 2
 410.15625 656.73828125 l 2
 410.15625 663.899414062 410.319335938 669.758789062 410.64453125 674.31640625 c 0
 410.64453125 694.82421875 412.109375 711.018554688 415.0390625 722.900390625 c 128
 417.96875 734.782226562 424.967773438 740.72265625 436.03515625 740.72265625 c 0
 451.334960938 740.72265625 458.984375 735.83984375 458.984375 726.07421875 c 0
 458.984375 652.506835938 457.51953125 609.456054688 454.58984375 596.923828125 c 128
420.41015625 415.0390625 m 1
 414.875976562 402.668945312 407.145507812 393.473632812 397.216796875 387.451171875 c 128
 387.288085938 381.428710938 375.163085938 378.41796875 360.83984375 378.41796875 c 0
 345.21484375 378.41796875 331.54296875 385.090820312 319.82421875 398.4375 c 128
 308.10546875 411.784179688 302.24609375 427.409179688 302.24609375 445.3125 c 0
 302.24609375 467.7734375 307.047851562 486.165039062 316.650390625 500.48828125 c 128
 326.252929688 514.811523438 336.42578125 521.97265625 347.16796875 521.97265625 c 0
 356.282226562 521.97265625 360.83984375 517.741210938 360.83984375 509.27734375 c 0
 360.83984375 506.34765625 359.86328125 503.092773438 357.91015625 499.51171875 c 2
 351.5625 486.81640625 l 2
 348.958007812 482.258789062 346.6796875 476.969726562 344.7265625 470.947265625 c 128
 342.7734375 464.924804688 341.796875 458.170898438 341.796875 450.68359375 c 0
 341.796875 434.733398438 350.749023438 426.7578125 368.65234375 426.7578125 c 0
 380.696289062 426.7578125 389.241210938 430.500976562 394.287109375 437.98828125 c 128
 399.333007812 445.475585938 401.85546875 455.56640625 401.85546875 468.26171875 c 0
 401.85546875 480.305664062 402.995117188 490.153320312 405.2734375 497.802734375 c 128
 407.551757812 505.452148438 412.59765625 509.27734375 420.41015625 509.27734375 c 0
 433.10546875 509.27734375 439.453125 505.045898438 439.453125 496.58203125 c 0
 439.453125 454.915039062 450.68359375 434.08203125 473.14453125 434.08203125 c 0
 491.69921875 434.08203125 500.9765625 444.172851562 500.9765625 464.35546875 c 0
 500.9765625 467.610351562 500.48828125 472.004882812 499.51171875 477.5390625 c 2
 496.09375 494.140625 l 2
 494.791992188 499.674804688 493.571289062 504.8828125 492.431640625 509.765625 c 128
 491.291992188 514.6484375 490.72265625 518.391601562 490.72265625 520.99609375 c 0
 490.72265625 531.413085938 495.60546875 536.62109375 505.37109375 536.62109375 c 0
 515.461914062 536.62109375 522.4609375 526.530273438 526.3671875 506.34765625 c 128
 530.2734375 486.165039062 532.2265625 471.516601562 532.2265625 462.40234375 c 0
 532.2265625 410.64453125 511.393554688 384.765625 469.7265625 384.765625 c 0
 446.614257812 384.765625 430.17578125 394.856445312 420.41015625 415.0390625 c 1
EndSplineSet
EndChar

